<?xml version="1.0" encoding="UTF-8"?>
<svg id="Layer_1" xmlns="http://www.w3.org/2000/svg" version="1.1" viewBox="0 0 158.4 141.8">
  <!-- Generator: Adobe Illustrator 30.5.1, SVG Export Plug-In . SVG Version: 2.1.4 Build 3)  -->
  <defs>
    <style>
      .st0 {
        fill: #0c6d2f;
      }
    </style>
  </defs>
  <path class="st0" d="M89.4,141.2l-10.9-2.1c-2.8-.5-6,.8-8.9,1.2-15.6,2.6-30.9-1.9-42.7-12.3-9.7-8.6-15.6-20.1-18.2-32.7l-1.7-8.5-2.5-6.9c-5-13.6-6.1-28-1.6-41.9,4-12.3,11.8-22.6,22.6-29.7C41-2,60.8-2.7,77.2,6c2.7,1.4,5.3,1.8,8.1.5,7-3.1,14.3-4.2,22.2-4,14.6.5,27.6,7.3,37.1,18.3,11.2,13,15.6,30.1,13.2,47.2-1,7.3-3.8,13.7-6.1,20.7l-1.6,7.5c-2.7,12.7-8.6,24.1-18.3,32.6-11.6,10.3-26.7,14.7-42.3,12.3ZM26.1,41.7c8.6-7.6,18.6-12.4,29.9-13.5,2.4-.2,4.6-1.4,6.4-2.8,4.1-5.5,8.7-10.1,14.2-14.2.3-.6.7-1.9.7-2.5s-.9-1.4-1.6-1.8C57.6-2.5,35.9.3,20.4,13.8,2.8,29.2-3.3,54.5,4.8,76.3c.3.8,1.3,1.7,1.9,1.7s1.3-1,1.4-1.6c1-5.5,2.6-10.8,4.5-16.1,1.7-4.6,4.3-8.6,7.2-12.5,1.8-2.4,3.7-4,6.1-6.1ZM131.9,41.9c5.4,4.4,9.5,9.2,12.3,15.4,2.9,6.7,5.3,13.1,6.3,20.4,0,.6,1.2,1.8,1.8,1.6s1.3-1,1.5-1.5c7-19.8,2.5-42.2-11.9-57.7-9.9-10.7-23.7-16.7-38.2-16.3-6.4.2-19.1,2.9-18.8,5.9s.5,1.4.8,2.1c4.8,4.2,8.8,8.8,12.2,14.3,1.6,1.6,3.7,2.9,6,3.1,10.6,1.2,19.6,5.8,27.9,12.6ZM80.7,30.8c4.4,0,8.4-1.4,12.6-1.8.7,0,1.7-.6,2.1-1s.5-1.9.2-2.5c-3.7-5.9-12-16.8-17.6-13.2s-18.4,15.5-10.7,16.1c4.5.4,8.7,2.4,13.4,2.4ZM10,85.1c1.9,5.6,5.4,9.7,9.5,13.4,7.5,6.7,16.4,11.1,26.4,12.7s2.1-.4,2.5-.8.6-2,.4-2.7c-5.6-14.3-5.5-29.6-.3-44l2.8-7.7c1.8-7.7,2.9-15.1,6.4-22.2.3-.7.3-2.3,0-2.9s-1.6-1.1-2.2-1c-10.2,1.2-19.4,5.4-27.2,12.1-.5.4-1,1.8-.7,2.4s1.4,1.2,2,1.3c7.2.9,11.9,6.9,11,13.7-.9,6.6-7.1,11.3-13.9,10.4-8-1-9.2-8.2-11.7-7.8-3.1.5-6.9,17.6-5,23.2ZM58.1,47.8c4.6-5.4,9.6-9.5,15.7-12.8.5-.6,1.1-1.5,1.2-2.1s-1.1-1.6-1.7-1.7c-5.2-1.5-10.8-2.6-13.3,1.7-3.5,6.1-6.2,16.3-4.1,15.7l2.2-.7ZM100,33.8c-1-2-3.3-3.6-5.5-3.3l-7.1,1.1c-.6,0-1.5,1.2-1.4,1.7s.7,1.6,1.2,1.9c5,3.2,9.4,7.1,13.5,11.5.4.5,1.7.8,2.2.7,2-.6-.5-9-2.7-13.5ZM142.3,59.8c-2.3,0-2.7,9-12.2,10.1-7.3.9-13.5-4.2-14-11.2-.5-7,4.9-12.8,12.3-13,.6,0,2-.5,2.2-1.1s-.2-1.5-.5-2.2c-7.2-6.2-15.6-10.1-25.1-11.7-1,0-2.5.6-3,1.4s-.2,1.8.1,2.6c2.5,6.5,3.4,13,4.9,19.8l2.6,6.9c6,16,5.9,33.4-1.4,48.9-.3.6,0,2.2.5,2.6s1.7.8,2.5.7c13.6-1.9,25.9-9,34-20.2,1.2-1.6,2.3-3.8,3-5.6,3-8.7-2.9-28-6.1-28.1ZM81.6,102.5c13.2-9.6,21.6-24.3,22.9-40.6l-.3-6.2c-2.3-5.2-5.5-9.6-9.9-13.3-5.5-4.7-11.8-9.8-18-6.9-9.1,4.2-18,12.3-22,21.7v9.5c1.7,13.8,8.4,26.3,18.8,35.3,2.6,2.3,5.5,2.7,8.6.5ZM18.3,61.4c1.8,5.4,7.6,7.8,12.7,6.5s8.6-5.5,8.2-10.9-5.3-10.4-11-9.9-5.1,1.5-7.1,3c-2.9,2.2-4.1,7.5-2.8,11.3ZM139.1,59.2c.3-5.6-3.8-10.1-8.8-11.6s-7.1.5-9.5,2.8-3.9,5.8-3.1,9.3c1.2,5.4,5.9,9.1,11.2,8.9,4.8-.2,9.9-3.8,10.3-9.4ZM99.6,113.7c2.9.4,5.7-.8,7-3.4,7.3-14.2,8.2-30.8,2.6-45.7-.3-.7-1.4-1.6-1.9-1.5s-1.4,1.2-1.5,1.9c-2.4,15.6-10.3,29.5-23.2,38.6-6.2,4.4,8.6,9,17.1,10.1ZM73.4,105.4c0-.6-.7-1.8-1.1-2.2-11.1-9.3-17.7-22.1-19.7-36.4,0-.6-1.1-1.8-1.6-1.7s-1.6.9-1.8,1.6c-4.7,13.3-4.2,27.7,1.2,40.7,1.3,3.1,4.4,4.5,7.6,4,5.5-.8,16-2.9,15.5-6ZM71.4,134.6c-7.6-4.7-13.4-10.8-18.2-18-1.6-2.4-4-3.6-6.7-4-13-1.7-24.3-8.2-32.9-18s-1.8-1.1-2.4-.8-1,1.6-.9,2.2c2.3,11.5,7.9,22,16.5,30,11.9,11.1,28.2,16,44,12.6s1.9-1.3,1.8-1.9-.7-1.7-1.4-2.1ZM132.2,126.5c7.9-7.5,13.1-17,15.8-27.6.2-1-.3-2.8-1.1-3.1-2.1.8-3.7,2.9-5.3,4.4-8.4,8.6-19.2,13.7-31.2,15-2.6.3-4.8,1.3-6.7,3-5.2,7-11.3,12.8-19,16.9-.4.8-.9,1.7-.9,2.3,0,2.6,27.1,9.1,48.3-10.9ZM82.4,134.5c7.4-3.4,13.3-8.5,18.3-14.6.7-.9,1.2-2.2.8-3.2s-1.6-1.5-2.5-1.6c-6.7-.8-12.6-2.9-18.5-6-2.1-1.1-4.6-1.2-6.8-.3-5.3,2.2-10.4,3.5-16.1,4.1s-2,.8-2.4,1.4,0,2.2.4,2.8c4.8,7.2,10.8,13.1,18.5,17.1,2.5,1.3,5.5,1.6,8.3.3Z"/>
  <path class="st0" d="M89.5,60c2.9,3.6,3.2,8.9.9,12.9-2.2,3.9-6.5,6.5-11.3,6.3-6.8-.3-11.8-5.4-12-11.8s4.7-11.9,11.5-12.3c4.3-.3,8,1.3,10.9,4.9ZM90.4,67.7c.4-6-4.4-10.6-9.7-11.2s-10.7,3-11.9,8.5c-1.3,6.2,3.2,11.8,9.1,12.6s12-3.4,12.4-10Z"/>
</svg>