<?xml version="1.0" encoding="UTF-8"?>
<svg id="Layer_1" xmlns="http://www.w3.org/2000/svg" version="1.1" viewBox="0 0 148.2 157.3">
  <!-- Generator: Adobe Illustrator 30.5.1, SVG Export Plug-In . SVG Version: 2.1.4 Build 3)  -->
  <defs>
    <style>
      .st0 {
        fill: #0a6c2f;
      }
    </style>
  </defs>
  <path class="st0" d="M137.4,128.1l-25.1,11.1-9.6,4.2c-8.1,3.6-15.2,8.9-23,13.2s-2.8,1-4.3.2l-23.4-12.9-10.7-4.4-23.4-8.4c-1-.4-2.9-1.3-3.1-2.5l-5.8-30.6c-1.2-6.5-4.8-5.9-7.9-9.3L0,54.3c0-.7.9-2,1.5-2.3l14.3-9c2-1.2,2.9-3.9,2.4-6.2l-2.2-11.7c-.2-1.1.4-2.6,1.3-3.3L41.4,1.1c1.3-1.1,2.7-1.3,4.3-.8l28,9.8c1.7.6,5,1.4,6.6.7L102.9.7c1.8-.8,3.3-1,5,.2l25.4,18.5c.7.5,1.9,2,1.8,2.8l-1.2,12.2c-.2,2.5,1,4.8,3,5.9l9.9,5.8c.7.4,1.3,2,1.3,2.9v33.6c-1.7,2.6-5,3.2-6.1,4.8-1.1,1.5,1,3.7.7,5.6l-3.8,32.2c-.1.9-.7,2.4-1.6,2.9ZM47.3,42.4c2.8,1.5,5.4,1.5,7.9,0l11.8-7.1c2.4-1.4,3.7-4.2,4-6.9l1.5-13.5c0-.7.5-2,.3-2.6s-1.1-1.3-1.8-1.5L46.6,2.2c-1.7-.6-4-.2-5.4,1l-21.3,18.3c-1.4,1.2-2.5,3.3-2.1,5.2l1.8,9.5c.1.6.9,1.6,1.4,1.9s2.1.3,2.6,0l5.3-3.3c.7-.4,2.4-.9,3.1-.6l15.4,8.1ZM114.8,29.8c1.4-.8,3-.5,4.1.2l9.4,5.4c.6.3,2.1.5,2.7.3s1.5-1.5,1.6-2.1l.9-9.1c.2-1.7-.9-3.8-2.3-4.8L108.8,3.4c-1.7-1.3-3.8-1.9-6-1l-21.9,9.8c-1.6.7-2.5,3.4-2.2,5l2.5,13.3c1.1,5.7,3.9,7.9,9.5,10.3s4.4.4,6.2-.7l17.9-10.3ZM77.5,33.3c1.8.4,2.6-1.6,2.4-2.8l-2.5-12.7c-.1-.6-1.2-1.7-1.8-1.7s-1.8,1-1.8,1.7l-1.1,11.4c.6,1.7,3.1,3.7,4.9,4.1ZM109.7,65.4l17.5-7.8c1.3-.6,3.1-2.4,3.2-3.7l1.1-9c.3-2.3,0-5.7-2.3-7l-9.6-5.7c-1.9-1.1-4.1-1-6,0l-15.3,8.9c-.6.3-1.3,1.5-1.3,2.2s.8,1.8,1.3,2.1l5.2,3c.7.4,1.8,2,1.8,2.8v11.8c0,.7.8,2,1.3,2.4s2.1.4,2.9,0ZM78.7,50.5c3.4-2.5,4.4-5.5,3.1-9.2-1.6-4.6-5.5-7.7-7.9-6.9s-3.2,9-3.2,13.7c0,1.8,1.8,3.6,3.1,3.9s3.5-.4,4.9-1.5ZM42.4,59.9v-9.2c1.9-2.4,5-2.9,5-5.1,0-.8-.9-1.9-1.6-2.3l-11.5-6.1c-1.9-1-4.1-1.4-6-.2l-4.4,2.8c-1.9,1.2-3,3.7-2.5,6l1.7,9.3c.3,1.7,1.9,3.5,3.5,4l12.4,4.3c2.1.7,3.4-1.6,3.4-3.5ZM66.1,60.8c1.7-.8,3.8-2.7,5.1-4,1.6-1.6,1.2-3.8-.6-4.9-1.1-.7-1.6-2.3-1.5-3.7l.9-8.8c0-.6-.7-1.8-1.2-2.1s-1.8-.2-2.3.1l-9.4,5.6c-.8.5-1.7,1.7-1.5,2.4.6,2.8,5.4,3.1,7,5.6s-.7,11.7,3.7,9.7ZM89.1,43.2c0-1.9-3.2-3.5-4.6-2.5s-.9,1.7-.8,2.3c.2,1.6,1.4,2.8,2.7,2.8s2.7-.8,2.7-2.6ZM115,70.2l19.6,14.6c2.8,2.1,5.4,1.8,8.3.2s4.2-3.4,4.2-6.7v-26.2c0-3.2-1.6-5.3-4.3-6.7l-6.8-3.6c-1.2-.6-3,1.3-3.1,2.5l-.9,9.5c-.2,2.3-.8,3.6-3,4.5l-18.9,8.4c-1.3.6-2.8,1.8-3.3,3.1-.2.5.9,1.8,1.4,1.6l1.9-.6c1.1-.3,3.3-1.9,4.9-.7ZM42,70.3c1-2-1.1-4.7-3.5-5.5l-14.1-4.9c-1.3-.5-2.2-1.8-2.4-3.1l-2-10.3c-.3-1.7-2.5-2.6-3.9-1.8l-11.9,7.5c-1.9,1.2-2.8,3.3-2.7,5.5l.9,26.5c.1,3,1,5.2,3.8,6.5,2.2,1,4.9,1.2,7-.6l20.8-17.8c3.4-2.9,6.7.8,8-1.8ZM96.2,68.8c1.3,1,3.8,1,5.1.2,3.9-2.3,2.9-8.3,2.8-13.8s0-4.8-2-5.9l-6.1-3.4c-3.4-1.9-8.6.1-9.2,4.3-.8,5.1-.5,11.2,3.2,14l6.2,4.6ZM55.6,68.8c2.5,0,4.4-2.3,5.4-4.3,1.2-2.6,1-5.9.9-8.7s-2.2-5.1-5-6.6c-3.3-1.8-6.3-2.4-9.7-.2s-3.3,2.5-3.3,4.6v6.9c-.1,3.6,2.3,5.8,5.6,6.7,1.9.5,4.1,1.7,6.2,1.7ZM84.6,50.2c-1.1-2.3-6.7,1.6-6.3,4.1.3,2,2.4,3.4,4.2,4.1,2.6.9,3.7-4.6,2.1-8.2ZM76.2,85.5c4.7-1,8.8-3.4,9-7.6.2-4.4.4-8.9-.4-13.2-.7-3.8-7.8-9.3-11-7.6s-3.1,2.2-4.6,3.4c-5.7,4.9-5.9,7.2-5.4,15,.2,2.7,1.3,4.9,3.9,5.8,1.8.6,2.8,2.1,3.7,3.8.9,1.7,3.2.7,4.8.3ZM100.3,75.3c2-.9,3.4-2.7,2.5-3.8-1.2-1.5-3.3,1.6-7.1-1.1l-5.6-4.1c-.5-.4-1.9-.4-2.4-.1s-1.3,1.4-1.3,2v9c0,.7.8,2,1.3,2.3s2,.4,2.5.2l9.9-4.3ZM60.7,69.3c-2.1-.3-3.5,2.1-5.5,1.4l-7.5-2.7c-1.4-.5-3.4.2-3.5,2s1.5,3.7,3.1,4.2l11.6,4.1c1,.3,3.2-.6,3.3-1.6.4-3.4.3-7.2-1.5-7.5ZM119.3,98.6l14-8.1c.5-.3,1.4-1.4,1.5-2s-.4-2-.9-2.3l-18.5-13.7c-2.2-1.6-5.7.2-7.3,1.5s-2.7,4.6-2.2,7.2c1.1,6.2-3.9,5.9-4.3,8.5s.6,1.9,1.1,2.2l11.4,6.6c1.5.9,3.6,1.1,5.3.1ZM36.3,103.1l13-8.1c.7-.4,1.6-1.8,1.5-2.5-.2-2.5-5.4-3.3-7.9-6.4l-.4-8.8c0-1.8-1.9-3.6-3.2-4.1-1.9-.8-3.9-.2-5.5,1.2l-19.3,16.5c-1.3,1.1-1.1,3.4.4,4.3l15.7,8.4c1.8,1,4,.7,5.8-.4ZM61.9,86.1c1.4-2-.3-5-2.3-5.8l-11.5-4.3c-.8-.3-2.6,0-3.2.6-1.6,1.7-1.2,7.5.3,9.1,2.3,2.3,5.5,4.2,8.7,4.6,2.9.3,6.3-1.7,7.9-4.2ZM102.9,85.5c1.8-1.9,1.9-5,1.1-7.3-.5-1.3-2.2-1.9-3.4-1.4l-9.4,4c-.7.3-1.9,1.8-1.7,2.6.4,2.1,8.5,7.4,13.4,2.1ZM69.1,85c-.7-1.2-2.1-2.3-3.5-1.6-1,.5-1.4,2.6-1.8,3.9l-4.5,3.3c-.4.3-.8,1.7-.5,2.1,1.6,2.5,12.9-3.1,10.4-7.8ZM93.6,90.4c.1-.5-.2-1.8-.7-2.2-3.7-2.7-9.2-5.2-10.3-2.7-1.6,3.6,10.2,8.7,11,4.9ZM77.2,87.6c-.9-.3-2.6.2-3.2.8-1.6,1.8-2,3.8-1.4,6l1.4,5.2c.2.6,1.5,1.5,2,1.3,3.1-.6,5.2-12.1,1.2-13.4ZM87,93.9c0-2.5-3.2-3.7-5-2.6s-2.2,4.7-.3,5.8c1.8,1,5.2-1.1,5.3-3.2ZM108.5,104.4v15.2s.3,14.7.3,14.7c0,.9.6,2.2,1.3,2.7s2,.4,2.9,0l20.8-9c2.1-.9,3.9-2.5,4.1-4.9l3.4-29c.1-1.2-1-2.9-1.9-3.3s-3-.4-3.8,0l-16.5,9.5c-1.7,1-3.1.9-4.8,0l-13.8-8c-1.5-.9-4-.9-5.2.4s.3,2.6,1.2,3.1l10.4,5.8c.6.3,1.6,1.9,1.6,2.6ZM71.4,98.3c.5-1.6,0-5-1.5-5.8-2.1-1.3-5.6.8-5.7,3s2.2,2.7,3.5,3.4c1.1.6,3.1,1.4,3.8-.6ZM20,130.2l21.9,7.7c.7.3,2.3,0,2.7-.5.4-.4,1-1.6,1-2.2v-16.6c0,0-.3-15.1-.3-15.1l8-4.9c1-.6,2.9-1.6,2.4-3.2-.3-1-2.9-.8-3.9-.2l-17.1,10.5c-.9.5-2.3.4-3.3,0l-17.7-9.4c-.8,0-2.2,0-2.6.5s-.5,1.2-.6,1.9l5.1,27.4c.7,1.9,2.2,3.3,4.3,4.1ZM107.4,135v-18.2c0,0-.4-9.5-.4-9.5,0-2.1-1-4.2-2.9-5.2l-9.4-5.3c-1.6-.9-4.2-1.3-5.9-.5-4.5,2-9.2,4.9-9.5,9.4l-.8,9.8c-.1,1.8-.3,4.5,1.4,5.7l22.2,16.6c.9.7,2.9.9,3.7.5s1.6-2,1.5-3.2ZM52.2,137.9l20-17.1c.8-.7,2.2-2.4,2.2-3.4,0-4,0-7.9-1.4-11.4-1.4-3.5-5.1-5-7.9-6.7-3-1.9-6-2.2-9.1-.3l-7.1,4.3c-.9.5-2.1,2.5-2,3.6v19c.1,0,.3,10.6.3,10.6,0,.8,1.3,2.3,2.1,2.5s2.2-.3,3-1ZM80.2,154.6l19.7-11.7c.6-.4,1.4-1.6,1.5-2.2s-.6-2-1.2-2.5l-21.7-16.1c-1.8-1.4-4.3-1.2-5.9.2l-18.9,16.2c-.6.5-1.2,1.7-1.2,2.3s.7,2,1.2,2.3l21.2,11.9c1.4.8,3.6.7,5.1-.3Z"/>
</svg>