<?xml version="1.0" encoding="UTF-8"?>
<svg id="Layer_1" xmlns="http://www.w3.org/2000/svg" version="1.1" viewBox="0 0 145.7 146">
  <!-- Generator: Adobe Illustrator 30.5.1, SVG Export Plug-In . SVG Version: 2.1.4 Build 3)  -->
  <defs>
    <style>
      .st0 {
        fill: #0c6d2f;
        stroke: #0c6d2f;
        stroke-miterlimit: 10;
      }
    </style>
  </defs>
  <path class="st0" d="M126.7,55.4c0,0,.1,0,.2-.1,0,0,0,0,0,0,0,0-.1,0-.2,0Z"/>
  <path class="st0" d="M127.3,54.2h0c0-.2,0-.2,0,0Z"/>
  <path class="st0" d="M123.4,62.5h0c0,0,0-.1,0,0Z"/>
  <path class="st0" d="M126.7,55.4s0,0,0,0c-.2.1-.1,0,0,0Z"/>
  <path class="st0" d="M52.8,26.2v.3c0,0-.4-.1-.5,0l-.4.4c-.1.1-.4-.2-.5-.3,0,.1,0,.2,0,.3h.3c0,.2-.3.4-.2.5l.4.4-1.4-.5.9.6h-.4s0,.1,0,.2l.2.3h-.7c0-.1.4.2.4.2l-.6.5c0,0,.4.2.3.3l-.2.4c0,0,.2.3.1.3h-.4c0,.1.6.6.6.6h-.7c.4.2.6.4.7.6h-1.6s1.7.3,1.7.3c.1,0,.3.4.2.5-.6.2-1.4-.4-2.7-.1l-.2.5h-2.2s0,.2,0,.2h.3s2.5-.2,2.5-.2c-.3-.4,0-.5.2-.3l2,.3c0,0,.2.3.1.4-.6,0-1.5,0-2.2-.2,0,0-.1.3,0,.3h.5c.3,0,.6.1,1,0,.5,0,1.1,0,1.5.1l.4.5h-.8c.6.3,1.2,0,1.7.2h-.9c0,0,1.2.4,1.2.4.2,0,.5-.1,0-.3l.7-.2v.5c-.2.2-1.1,0-1.5.4,0,.1.3.4.4.3l.5-.3c.4-.1.9-.3,1.3-.6l.8.3h-.5c0,.2,0,.4,0,.4l-.4.2.7.2v-.3c0,0,.4,0,.4,0v.4c.3,0,.7.2.9.5.4.6.8,0,1.4.3.1,0,.2.3.2.7l2.2-.3v-.3c0,0,.3,0,.3,0v.2s.1.6.1.6c.2,0,.6,0,.9-.2l-.2.3c0,0,0,.3.2.3h.4c0-.2-.1-.6,0-.7l.6-.3c.1,0,.3,0,.2,0,0,.4,0,.5,0,.5h.4c.3,0,.7,0,1.2,0v.4c0,0,.2,0,.3,0l.3-.3c0,.3.1.5.2.7l.4-1c.1,0,.4.2.4.3v.4s.4-.4.4-.4c0,0,.4,0,.4.2,0,.2,0,.4.1.4h.4c0-.1,0-.4,0-.5h.7s-.4.3-.4.3c0,0,0,.2,0,.2h.2c0,.1.4.4.4.4.1,0,.4,0,.5-.2l.4-.4c0,0,.4,0,.4.2l-.3.8c.1.1.6,0,.6-.1,0-.1,0-.4-.1-.6v-.4c.2,0-.1-.3-.1-.4l-.4-2.1c0-.1.3-.4.2-.5l-.3-.3-.3-2.2c0-.4,0-.5-.2-.9l-.5-1.9c0,0,.1-.3.2-.4,0,0,.2.2.2.3l.4,2.2.6,3,.4,2.6c0,0,0,.4,0,.4,0,0,0,0,.1,0h.3c0,.1-.2.4-.1.5l.4.2c.2,0,.4.4.6.3.2,0,.2-.3.2-.5l.6-.3v.7c0,.1,0,.4.1.4.1,0,.5-.1.4-.2-.2-.3-.5-.8-.2-1.2l.7.4c.1.2.2.4.3.4,0,0,.4-.3.3-.3l-.4-.3.2-.4c0,0-.3-.3-.4-.2l-.2.2c.1.2.2.3.2.3h-.2c0,.1-.1,0-.2,0l-.5-.4-.2-1.2c.2-.1.4-.3.4-.5,0-.1-.3-.3-.4-.4-.5-.2-.2-.8-.3-1.1l-.4-1.5c-.3-1.3.5-1.9-.4-2.2l-.3-1.9c.1-.2.3-.4.3-.6,0-.1-.2-.4-.3-.5-.4-.2-.5-.6-.5-1,0-.4-.2-.8-.1-1.3,0-.4,0-.8-.2-1.2l.4.3c0,0,0-.4,0-.4h-.5c-.2-.7-.3-1.6-.3-2.4-.4-1.1-.6-2.3-.7-3.5-.2-.4-.5-.8-.4-1.3-.5-.5-.5-1-.2-1.6-.3-1.1-.7-2.2-.6-3.4v-1.6c-.3-.5-.2-1,0-1.4-.4-.4-.5-.8-.1-1.2l-.3-1.2c.1-.1.3-.4.3-.5,0-.2-.2-.6-.1-.8.3-.4.3-1-.2-1.3,0-.2.1-.6,0-.7l-.5-.4-.4-.9c-.4,0-.6-.2-.9-.4h-.6c0,0-.8-.1-.8-.1-.1,0-.4.2-.4.3l.2.5c0,0-.2,0-.3,0,0,0,0-.2,0-.3,0-.2-.4-.4-.6-.3-.2,0-.4.4-.3.5l.4.6h-.2c0,.1,0,.6,0,.6l-.4-.2c-.1,0-.3.4-.3.5-.3-.3-.7-.4-1-.2h-.5s.3-.5.3-.5c0,0-.2-.4-.3-.3l-.2.3c0,0-.2,0-.3,0l-.7.5c-.3.2-.6.4-.6.7,0,.4.2.7.5.9v.2s-.1.1-.1,0v-.3c-.1,0-.4.2-.4.3s.2.4.3.5l-.2.4c0,.1.1.4.2.6.3.4.5.8.8,1.3.3.5.7.8.5,1.5l.5.5c0,.6.3.9.7,1.3,0,.2.2.6.3.8l.8,1.5.5,1.1c0,.1.1.1.2-.2l.4.9c0,.2,0,.4-.2.1l-.4.7c.2.4.6.7.9.8.2-.1.3-.2.4-.1l.2.5v-.9c.3.2.6.5.8,1v-1.2c.5.6.6,1.1.7,1.8l1.1,4.6.6,3.2.3,1.1.4,1.7c0,.2,0,.5-.1.7l-.5-.8-.2-1.5v-1c-.1,0-.7-2.5-.7-2.5.2-.3.1-.7-.2-.8l-.5-2.3.2-.5c0-.1-.3-.4-.4-.5l-.4-1.3.2,1.3c0,.4.1.6.2,1l.5,2.1c0,.1,0,.3,0,.4,0,0-.4,0-.4-.2l-.4-1.2v1.1c.1,0-.6,0-.6,0v.4c0,.1.4.1.5.1v.2s.2,0,.2,0c0-.2,0-.4,0-.3l.2.2.4,2.1h.1c0,0-.5-2.1-.5-2.1.2,0,.5.1.5.4l.5,2.2v.2c.2,0,0,.2,0,.2l-.2-.2s-.1-.3-.1-.3l-.2.3-.5-.8-.6.6,1,.9c0,.2,0,.6.2.8v-1.1c.2.3.3.5.4.8l.3,1.8c-.5-.3-.3-.7-.5-1.1v.9c-.2,0-.6,0-.6,0,0,.4.8.9,1.2.8l.5,2.1-.3.2-.4-.5-.7.3.9.6.2.8v-.8s.2,0,.2,0l.4,2.6c-.5-.1-.4-.5-.4-.9l-.2.7-.3-1.7v1.4s-.2,0-.2,0c0,0-.1-.1-.2-.2,0-.1-.3-.2-.5-.2-.1,0-.2.3-.2.4h-.6c-.1.1-.4.3-.5.2l-.2-.4c-.2-.4-.2-.6.1-1l.4,1.3-.3-1.4c.3-.1.4-.4.3-.6-.1-.3-.5-.6-.7-.1l-.2-.6h0c0,0,.3,1,.3,1h-.4s-.7-1.8-.7-1.8c0-.2,0-.6,0-.6l.8.7c0-.6-.3-1.1-.7-1.7l-.4-.7.2.9c0,.2-.3.6-.4.6l-.6-1.1v1.1c.1,0,0,0-.2.2l-.8-1.6c-.2-.4-.2-.7-.6-1v.6c-.1.1.3.3.4.4l.7,1.5c0,0,0,.3,0,.3,0,0-.3,0-.3-.2l-.9-1.3c0-.1,0-.4,0-.4l-.4-.4v.5c0,0-.5-.5-.5-.5v.4c.1,0-.2,0-.2,0l-.3-.3.2.4-.4.4h-.3c0,0-.2.2-.3.4l-.6-.6c.1.4.2.4,0,.9l-1.4-1.5.4-.4.7.9h.2s-.3-.5-.3-.5c0-.4-.1-.8-.4-1l-.3.3c0,0-.2-.1-.3-.2l-.4-.2v.2c0,0-.1.2-.2.3l-1.6-1.3c.1-.1.2-.4.1-.4-.1-.1-.4-.2-.6-.3l.2.6h-.5c0,0-.1,0-.1,0h-.5c0,0,0,.2,0,.3h-.4c0,.1-.3.1-.3.2ZM65.3,2c-.2,0-.7.2-.7.4,0,.2,0,.6-.2.7-.2,0-.6,0-.6-.1h.5c.1,0,.1-.4,0-.5-.3-.4-.7,0-.7-.2v-.2c-.1,0,0,0,0,0v-.2c.2,0,.4,0,.5,0h.8c0,0-.4-.3-.4-.3,0,0,0-.3.1-.3.1,0,.4,0,.5,0l.4.2-.3.6ZM54.3,25.7l1.2.9.7.5c-.1,0-.2.2-.2.2v.4c0,0-1.1-1-1.1-1,0,0,0,0,0,0v-.2c-.1,0-.7-.8-.7-.8h.1ZM53.5,26.3l1,.6c0,0,.3,0,.3,0,0,.5.6.6.7,1.2l-2.1-1.3s-.1-.2-.1-.2v-.3Z"/>
  <path class="st0" d="M145.2,76.6c0,0-.1-.3-.2-.3h-.4c0,0,0-1.7,0-1.7.3,0,.6-.3.5-.4l-.5-.3v-1.6c0,0-.1-2.4-.1-2.4,0,0,.3-.3.2-.4l-.2-.2c-.3-.4.2-.2.4-.8,0-.1-.3-.4-.5-.4l-.7-3.9c.1-.2.3-.5.3-.6,0-.1-.3-.2-.5-.3v-1.1s-.8-3-.8-3c0-.4,0-.7.1-1,.3-.4-.9-.4-.6-1.2,0-.1.1-.4,0-.4l-.3-.2-1-3.1-.8-2.6.2-.4c0,0-.3-.2-.3-.3l-.9-2c-.2-.5-.4-.8-.3-1.3-.3-.1-.5-.3-.6-.6l-1.4-2.6-.2.2v-.7s-.8-1.4-.8-1.4c-.2-.4-.4-.6-.3-1.1,0,0,0-.4,0-.4h-.5c-.3,0-.4-.7-.6-1l-1.3-1.8-.6-1.4h-.7c0,.1.2.2.3.3.3.1.3.6.4,1,0,.3.4.7.5.9.2.5.4.8.7,1.1l.8.8.6.7.5.8c-.3.1-.3.2-.4.2,0,0,.1.2.2.3.4.1.5.5.7.9l.7,1.8c.5,1.3,1.2,2.6,1.9,3.8.2,0,.3,0,.3,0v.3s1.1,2.7,1.1,2.7l.6,2.1-.6.2-.2-.6h0c0,0-1-2.3-1-2.3h-.1c0,0,.6,1.6.6,1.6-.1,0-.4.2-.4.4,0,.2.3.6.4.4l.2-.3s.2,0,.2,0v.2s0,0,0,0l.5,1.4v-.3c.1,0,.4-.2.4,0l.2.6v-.7c.1,0,1.3,4.4,1.3,4.4l.7,3.4v1c0,0,.9,4.2.9,4.2-.1,0-.4,0-.4,0,0,0-.1-.3-.1-.4l-.6-3.2.4,3.2v1.3c.1,0,.3-.6.3-.6l-.3,2.6-.3-.7h0c0,0-.4-3.3-.4-3.3,0-.4-.2-.8.3-1l-.2-.3c0,0-.3.1-.3.2v1.1c0,1,.2,2.5.5,3.3h0c.4,2,.7,4,.5,6l-.2.8.5-.7c.2.9.1,1.7.1,2.6v1.3s.2,1.1.2,1.1v2s0,0,0,0v-1.5s-.1,0-.1,0v4.1s.3-2.8.3-2.8v-2s.2-.1.2-.1v2.5c0,0-.1,2.4-.1,2.4l.4-.5c0-.1.2-.3.2-.4,0-.1-.3-.3-.4-.3-.2-.1,0-.6,0-.9,0-1.3,0-2.6.3-3.8,0-.2.7-.4,0-.7l-.4,1c0,.1-.3.4-.4.4v-4.3c-.4-.6-.4-1.7,0-2.3.2.3.2.2.3,0,0-1,0-1.8-.2-2.8v1.4c0,0-.4,1.7-.4,1.7l-.3-2.6c0-.7.1-1.4.2-2.1,0-.5-.1-1,.5-1.3l.2,2.6.2,3.3v.3s-.2.1-.2.1v1.6c0,0,.2-1,.2-1v3.6c.2.1.3,0,.2,0,0-.5.1-.9.3-1.2l.3-.4Z"/>
  <path class="st0" d="M131.5,35c0,.3,0,.7.2.9l.5-.5c0-.4-.3-.4-.7-.4Z"/>
  <polygon class="st0" points="131.7 35.9 131.7 35.9 131.7 35.9 131.7 35.9"/>
  <path class="st0" d="M144.1,86.2h-.5c-.1-.2-.3.2-.2.2l.4.3-.2,1.1-.2-1-.2,2.7-.2-.8-.3.6c0,.1.3.4.4.5l-.3,1.5v-1.5s-.1-.1-.1-.1v1.4c-.2.4-.1.7,0,1.2l-.2-.3-.5,4-.3-.3.5-2.9.4-3.2v-2.3c.1,0,.1-2.7.1-2.7h-.1c0,0,0,2.9,0,2.9-.1,0-.4.3-.3.4l.2.3c0,.2-.2.6-.2.8v2.3c-.2.6-.3,1.1-.5,1.6,0,1.1,0,2.1-.4,3.2l-.2,1.3c0,0,.3.1.3,0v-.4c0-.3,0-.6.3-.8,0,.5,0,1.1,0,1.5l-.3,1-.2-1-.2.4c0,0,0,.1.1.1,0,0,.2,0,.2,0,0,0,0,0,0,0l-.6,2c-.2-.6-.2-.8-.2-1.2v1.1c-.2.5-.2,1,0,1.5.3-.1.4-.3.5-.5l.5-1.1.5-1.6c.1,0,.5-.3.4-.5l-.2-.5c0-.1.1-.3.2-.5.3-.3.4-.7,0-1l.3-2.1c.3,0,.7,0,.7-.2v-.5c.2-1,.6-2,.4-3l-.4,2.3h-.1s.3-1.7.3-1.7l.2-1.7c0-.7.4-1.4.9-1.6-.3-.7.1-1.3-.1-1.3Z"/>
  <path class="st0" d="M35.6,141.7c.2-.2.5,0,.6.1h.1c0-.1-1.5-.9-1.5-.9l-.9-.6-.4.3c-.3-.6-.8-.9-1.4-1-.3-.3-.7-.4-1.2-.6l-.3-.2c0,0-.1.1-.1.2,0,0,0,0,.2.2l1.5,1.4c.4.4.9.6,1.4.7l.6.3c-.3-.5-.4-.7-.4-1.2l1.6,1.7c.6.6,1.3.9,2.1,1.1-.5-.7-1.2-1.2-2.1-1.7Z"/>
  <path class="st0" d="M79,32.8c0,.2.9.6,1.2.6.5,0,.9.3,1,.7l.2-.2s.1,0,.2.1c.3.2.5.2.9,0l-.3.8h.3c0,.1,0,.4,0,.3-.2,0-.4-.1-.5,0l-.3.3c0-.1,0-.3,0-.3-.5.2-1.4-.2-1.8.8h1.5s-.6-.3-.6-.3c0,0,.2-.2.4-.3,0,0,.2.2.3.4.1.2.6,0,.7,0-.3,0-.4-.1-.3-.2l.9-.2h1.3c-.2-.4-.2-.7,0-.9h-.4c0,.1,0-.1,0-.2,0,0,.1,0,.2,0h.6c-.1-.2-.1-.3-.2-.3h-.3c0,0,.3-.5.3-.5l.2.4s0,0,.1,0c0,0,0-.1,0-.2l-.2-.3c0-.2.4.1.5.3,0,.2-.1.3-.3.5-.2,0-.3.2,0,.2l.8-.4-.3-.7.3-.3s.1,0,.1,0v.2c0,0,0,.3,0,.3h.5c0-.5-.3-.8-1-.8l.4-.7-.4.4h-.2s.5-.9.5-.9l-.9.9v-.5c-.2-.3-.2-.3-.3-.7l-.7.6s0,.5,0,.4l.2-.2c0,.6.3.9.7,1.2l-.6,1.1c-.1-.1-.2-.3-.3-.2l-.2.3-1.2-.9-.6.2v-.5s-.5.3-.5.3c0,0-.1-.3-.1-.3h-.3c.2,0-.8,0-1.3-.6-.1-.1-.5.2-.4.4Z"/>
  <path class="st0" d="M110.7,73.4c.9,0,1.5,0,2.3-.3l-.4-1.9-1.1-.5c0,.7,0,1.4-.2,1.9l-1.6.7c.3.4.6.2.9.2Z"/>
  <path class="st0" d="M48.2,67l-.3-.2c0,0-.4,0-.4,0v-.3c0,0,.2-.3.2-.3-.2,0-.3.2-.5.4-.7-.2-.9-1.1-1-1.7,0-.4,0-.6.1-1l.2-.7c0-.2,0-.4,0-.7l-1,.5c0,.2.1.3,0,.3,0,0-.1.2-.2.2h-.6c-.1-.1,0,.4,0,.3.3,0,.8.1,1,.2,0,.4,0,.4-.3.3-.2.4-.1.9.2,1.3v.6c0,0,.2-.3.2-.3,0,0,.6.3.6.4l-.2.3s.2,0,.2,0c0,0,.2-.2.3-.2.2.1.6.6.7.8,0-.1.2-.4.2-.4l.4.3c0,0,.3-.3.2-.4Z"/>
  <path class="st0" d="M67.8,111.7l3.4.5v-1c-.3-.6-.8-.2-1.2-.2-.7,0-1.2-.2-1.9-.4-.2.3-.3.6-.4,1Z"/>
  <path class="st0" d="M115.2,66.8h-.2c0-.1-1.9.4-1.9.4-.2,0-.5.2-.7,0-.2,0-.4-.4-.4-.5l-1.1-3.3c0,1.4,1.4,3.9,1,4h-.5c0,.1-3.5.9-3.5.9-.2,0-.5-.3-.6-.1v.5c-.2.1.2.3.3.2l.3-.4,3.2-.7c.4-.3.9-.1,1.1,0,.3-.4.6-.5,1-.6l1.9-.5Z"/>
  <path class="st0" d="M83.1,101l-.4-1.6-.6.5c-.2.2-.4.4-.5.7-.2-.1-.7-.4-1-.3-.3,0-.6.3-.7.8h2c0,0,1.2,0,1.2,0Z"/>
  <path class="st0" d="M78.4,36l-.8.2v-.5s-.7.6-.7.6l-.2-1.2-.2.8c0,.1-.3.2-.4.2-.1.6-.5.6-1,.8.4,0,.7,0,1.1,0v-.3c0,0,.1-.2.2-.1l.2.3c.2.3.7.4,1.3.4l.2-.9h.6c0,.1.1-.1.2-.2,0,0,.2,0,.2.1v.3c0,.2,0,.2.3,0,.1,0,0-.6-.1-.6l-.7-.2c.1-.1,0,0-.2.2Z"/>
  <path class="st0" d="M141.3,66.7l-.6-2.3c0,.8.2,1.6.4,2.3l.2.8.2,1h0c0,0,.4,3.1.4,3.1l.6,5v4.5c0,.2.2.6.3.9v-1.9c0-.8-.1-1.7,0-2.5,0-.4.1-.5,0-.9-.1-.3-.1-1-.2-1.4v-1.3c-.1,0-.2-2-.2-2-.2-.3-.2-.6-.3-.9l-.4-2.5h0c0,0-.1-1.2-.1-1.2l.2-.4c0,0-.3-.2-.3-.3Z"/>
  <path class="st0" d="M88.6,32.7l.2-.6c0-.1-.3-.2-.5-.3l.3-.7-.2-.7.3.3s.2,0,.2,0v-.7c0-.1.2-.3.4-.4h-.8c0,0,.2-.4.2-.4,0,0,.2.3.3.2l.2-.3c0,0-.1-.1-.3-.2l.2-.5-.8.2h-.4s.4.9.4.9c0,0,0,.2,0,.4v1.2c0,.2,0,.5-.1.7l.5.4h-1c0,.1,1.1.3,1.1.3Z"/>
  <path class="st0" d="M24.7,132.3l1,1.3.9.5c.3.4.7.7,1.2,1,0-.4-.5-.6-.7-.8l-.9-1.4c-.2-.4-.5-.6-1-.9-1.1-.6-1.4-1.3-1.8-1.5,0,0-.1.2,0,.2h.2c.2.3.2.6.4.9l1.3,2.3c0,.1-.5.3-.6,0l-.8-.8.7,1.2c.2.3.7.4.8.2l-.2-.5,1.5,1.4-1.1-1.4-1.6-2.5c.3.2.6.5.8.9Z"/>
  <path class="st0" d="M4.6,55.2l.3-1.1c0,0-.2-.5-.3-.4,0,0-.3.2-.3.3l-.7,1.7c0,.1-.4.3-.4.5v.5c.1,0-.4.3-.4.3-.1,0,.2.4.3.5-.4,1.5-.7,3-.9,4.6-.1.2-.3.3-.3.5v.5c.1,0-.3,2-.3,2l-.5.4c.4.3.6.9.2,1.1l-.5.3c0,0,0,.3.1.3h.3c0,0,0,1.6,0,1.6v-.2c0,0,.4-3.1.4-3.1l.4-2.6.4-1.8.8-3.9.8-2.5c0,0,.5,0,.3,0v.7Z"/>
  <path class="st0" d="M85.8,32.4c0,.1.2.5.4.5-.3-.6.9-.7.1-1.3l.6-.5h-.5s.5-.6.5-.6c0,0-.4,0-.4,0v-.4c-.3,0-.4-.4-.5-.4h-.4s.2-.3.2-.3c0,0-.1-.2-.2-.2h-.3c-.1.2-.3.5-.2.7,0,.1.3.2.5.2v.7c0,0,.2-.3.2-.3,0,0,.2,0,.1.1l-.3.7.2-.2s.1,0,.2,0c.3.4.2.9-.2,1.2Z"/>
  <path class="st0" d="M65.4,90.1v-3.1c-.1-.8-.2-1.6,0-2.3l-.3-1.1c0,.4-.2.9-.2,1.2v1.1c.1,0,.2,1.8.2,1.8v2.7c-.1,0-.4.3-.3.4l.3.3v4.7s.3,0,.3,0v-1.8c0,0,0-2.9,0-2.9l.3-.4c0,0-.3-.3-.3-.4Z"/>
  <path class="st0" d="M7.6,46.5c.1-.2.1-.3.4-.4.1-.3.2-.6.2-1.2l-1.2.3.3.6-.6,1.4c0,.1-.4.3-.5.3l.6.8.9-1.9Z"/>
  <path class="st0" d="M75.5,105.1c-.3.3-.3,1.1,0,1.5h.6c.3.2.7.2.9,0,.5-.4,0-1.5-.2-1.5-.1,0-.3.2-.3.3,0,.3-.4.5-.6.4v-.5c0,0-.2-.2-.4-.2Z"/>
  <path class="st0" d="M109.5,61.5l-3.2.7c1.2,0,2.3-.4,3.4-.6.1,0,.5.2.6.1,0,0,.3-.3.4-.4l3.2-.8.5.3.3-.6-.7-.5c0,.1,0,.6-.2.6l-3.2.8c-.2,0-.6-.3-.7-.4l-.9-2.2c0,1.4,1.5,2.7.5,2.9Z"/>
  <path class="st0" d="M125.5,30.3s0-.1,0-.2v-.2c-.2,0-.2-.2-.3-.3,0,0,.3-.1.4,0l.9.7v.5c0,0,.4,0,.4-.1h.4c0,0-1.4-1.3-1.4-1.3v-.8c-.1,0-1.2,0-1.2,0l.5.4-.5.7-1-.5h0c0,.1,1.5,1.1,1.5,1.1,0,0,.3,0,.3,0Z"/>
  <path class="st0" d="M76.9,33.9h0s-.2-.4-.2-.4l-.3-.4c0,0-.3,0-.4.1-.2,0-.4-.1-.4,0v.4c0,0,.2,0,.3,0h.6c0,0,0,1.2,0,1.2l.2-.9h.1s.9.4.9.4c.3.5.7.8,1.3.8h1.1c0,.2.4-.2.3-.3l-.3-.3c-.3.3-.3.3-.3.3l-.4-.6-.2.4c0,0-.3,0-.4-.1-.4,0-.8-.2-1.1-.6l-.7-.4-.3.4Z"/>
  <path class="st0" d="M52.3,66c0-.3,0-.6,0-.6-.2,0-.4.1-.6,0-.2,0-.2-.6,0-.5l.2.4s.1,0,.1-.1l-.2-.7-.2-.8h-.3c0-.2,0-.4,0-.4l.2.2s.2-.2.2-.2c-.1,0-.2-.2-.2-.3v-.4c.1,0,.3,0,.3,0v.2s.2.4.2.4c0,0-.2.3-.2.3l.3.3c0,0,0,.2.1.4.2-.4.1-.5,0-.9-.2-.8-.4-1.6-1.1-2.2v-.5c0,0-.3.3-.4.2-.1-.1-.2-.4-.2-.6l-.5,1c.8,0,.9.6,1.2.2l.5.8-.6,1.4c.2,0,.4.2.4.3l-.2.4.3.2c.1,0-.2.3-.1,1.1,0,.2-.3.5-.6.6l-.4.6-.3-.3v.7c.2-.1.6-.4.8-.7l.9-1,.6.4Z"/>
  <path class="st0" d="M102.8,69.3c-.5-.4-.2-1.1-.7-1.7,0,.8.6,1.6.2,1.9,0,0-.3.1-.5.2l-2.7.4v.2c0,0,2.5-.4,2.5-.4.4,0,.7,0,1.1.1,0,0,.3-.4.4-.4l3.7-.7c-1.3-.1-3.7.8-4.1.5Z"/>
  <path class="st0" d="M1.5,80v-2.2c-.1,0-.2-2.3-.2-2.3-.2.6-1,.9-.6,1.1l.4.2.2,3.9.2,1.3.2.3-.2-1v-1.3Z"/>
  <path class="st0" d="M127.1,49.5c-.2-.4-.4-.8-.7-1-.3.2,0,.6,0,.8,0,.5.1,1,.6,1.3-.1.1-.3.4-.4.6,0,.3.3.5.5.5.7-.1-.3-.9.4-1.4l-.3-.7Z"/>
  <path class="st0" d="M89.1,84l2.5-.3,2.1-.3h-.1c0-.1-4,.4-4,.4-.3,0-.9.2-1-.2,0-.2-.1-.6-.2-1v1c0,0-.3.4-.3.4,0,0,.2.3.3.3l.3,2.8h.2c0,0-.2-2.3-.2-2.3,0-.2,0-.5,0-.6,0-.1.4-.2.5-.2Z"/>
  <path class="st0" d="M20.7,111.9c0,.3,0,.7,0,1,.1.2.4.5.4.8l1,3.6c-.1-1.6-.6-2.9-1-4.3h.5c-.3,0-.6-.3-.7-.6l-.8-4,.6,3.5Z"/>
  <path class="st0" d="M26.2,125.5l.5.2.8,1.2c.3.5.6.9,1.2.9l-.5-1.5-.6.4-.8-1.2c0-.1,0-.6-.1-.6h-.5c0,0-.1.5,0,.5Z"/>
  <path class="st0" d="M1.1,72.3v1.7c0,.4,0,.9,0,1.2,0-.4.3-.4.3,0,0,.3,0,.3.1,0,0-.5,0-.9-.3-1.3l.4-4.7c0,0-.3-.2-.4-.1l-.2.2c.1.3.2.6.2.9l-.2,2.2Z"/>
  <path class="st0" d="M18.6,115.3l-.2.5c0,0,.2.2.3.3l1.3,3.9h.1c0,0-.4-1.2-.4-1.2l-.9-2.7.7.2c-.6-.4-.8-.5-.9-1.1l-.8-3c0,1.1.5,2.1.8,3.2Z"/>
  <path class="st0" d="M92,88.6c.4.2.8.2,1.2.1l.5.2c.1,0,.4-.4.3-.5,0-.2-.3-.6-.5-.8l-.7.8h-1.1c-.2,0-.5,0-.6,0,0,.1,0,.4,0,.6l.7-.4Z"/>
  <path class="st0" d="M23.4,103.9l-.2-1.4v1.5c0,0-.3.4-.3.4,0,0,.2.2.3.3l.6,4.5-.2.4.4.9v-.9c0-.3-.2-.7-.2-1.1l-.5-3.7v-.8Z"/>
  <path class="st0" d="M27.7,104.3v-1.7c-.1,0-.2-1.7-.2-1.7,0-.1.2-.4.2-.4l-.3-.4c0,0-.3.2-.4.3,0,.1.2.4.3.5v1.3c.1,0,.3,1.4.3,1.4v1.4c.2.3,0,.6,0,.9l.4.8.2-.8c-.2-.5-.3-1.1-.3-1.7Z"/>
  <path class="st0" d="M4.3,95.4l-.5-.3c.1-.9,0-1.8-.5-2.5.1.6.1,1-.4,1.4.3.3.6.6.7.9l.5,1.7v-.8c0,0,.3-.4.2-.4Z"/>
  <path class="st0" d="M31.7,96.8c0,.1.3.3.4.2.1,0,.2-.3.1-.4-.3-.4-.2-1.2-.2-1.7v-3.2c0-.1.3-.4.3-.5,0,0-.2-.3-.2-.3-.1,0-.4.2-.4.3,0,0,.2.3.2.4v2.5s-.1,2.1-.1,2.1c0,.1-.2.4-.2.6Z"/>
  <path class="st0" d="M42.3,104.7c0,0,.3.2.4.1.5-.2,0-.6,0-1.1v-4.3c0-.2.2-.4.1-.5,0-.1-.2-.3-.3-.3-.1,0-.4.3-.3.4l.4.4v4.6c-.2.1-.2.4-.1.5Z"/>
  <path class="st0" d="M110.6,19.7c.5.1.7.3.9.7l1.4.6.3.7v-.6c.5.3.6.5,1,.6-.2-.3-.5-.5-.7-.6l-1.4-.6-.2-.9c-.6.4-.8.2-1.3,0-.3,0-.2.1,0,.2Z"/>
  <path class="st0" d="M24.3,122.4c-.4,0-.6-.4-.7-.7h0c-.3-1.3-.6-2.5-1.2-3.6l1,3.6h0c0,0-.2.6-.2.6.4.2.5.3.6.6l1.3,3.3c0-.7-.4-1.4-.6-2.1,0,0,0-.1.1,0h.2c0,0-1-1.3-1-1.3,0,0-.2-.3-.1-.3h.3Z"/>
  <path class="st0" d="M103.5,75.6l-4.3.8-.5-.2c0,0-.3.3-.2.4l.3.3c0,0,.4-.3.5-.3l4.3-.8v-.2Z"/>
  <path class="st0" d="M86.1,84.1h-1.7c0,.1-1.3.3-1.3.3l-.5-.3-.3.5c0,.1.2.3.3.3.1,0,.3-.2.4-.3l5-.5c-.6-.1-1.2,0-1.9,0Z"/>
  <path class="st0" d="M61.8,2.2c.2,0,.4-.1.7-.3v.4c0,0,.6-.4.6-.4v-.6c-.1-.1-.4-.4-.5-.3l-.3.4c-.2,0-.6,0-.7.2,0,.1,0,.7.2.7Z"/>
  <path class="st0" d="M122.6,57.5c-.2,0-.6.1-.7,0-.2,0-.4-.3-.5-.5l-1.1-2h-.1c0,.1,1.1,2.4,1.1,2.4,0,.1.1.6,0,.6l-.5.2h.9c0,0,.8-.7.8-.7Z"/>
  <path class="st0" d="M47.6,61.1c0,0-.3.1-.4.2v.7c.2-.2.3-.4.3-.5l1.6-.2c0,0,.4.1.5,0,.2,0,.2-.6,0-.7l-.2.5-.9-.5c-.1.3-.3.4-.4.4l-.5-.2v.3Z"/>
  <path class="st0" d="M49.7,24.8v.5c0,0-1.2.1-1.2.1.5.6,1.3.7,1.3.6v-.2c0,0,.3-.1.3-.2l-.2-.3h.7c0,.1-.3-.4-.3-.4l.9.2v-.3c-.1,0,.2,0,.4,0-.1-.2-.6-.5-.8-.4-.2.4-.5.5-1,.5Z"/>
  <path class="st0" d="M23.5,124.6c0,.5.4.9.8.7l-1.1-1.5-.3-.8c-.2,0-.6,0-.5.2,0,.8.9.5,1.1,1.3Z"/>
  <path class="st0" d="M4.7,53.6l.5-1.5.3-1,.3-1-.8,1.1c.3,1.1-.9,1.7-.2,2.4Z"/>
  <path class="st0" d="M23.4,129.6l1.8,1.5c-.7-2.2-2.4-2.1-1.8-1.5Z"/>
  <path class="st0" d="M81.7,78.5c0,.1.3.4.4.3.2-.2.7-.3,1.1-.3h1.9c0-.1,1.7-.3,1.7-.3-.6,0-1.3,0-1.9,0h-1.8c-.4.2-.7,0-1.1-.2l-.3.5Z"/>
  <path class="st0" d="M139,58.3v-.5c.1,0,0-.2-.2-.3-.5-1.2-.8-2.3-1.4-3.5l1.7,4.3Z"/>
  <path class="st0" d="M43.5,29.1l.8.3c0,0,.4-.2.4-.4l-.8-.2c0-.2.4-.4.7-.2-.2-.4-.2-.6-.5-.6-.2,0-.4.1-.7.4h.4c0,.1,0,.8,0,.8h-.4Z"/>
  <path class="st0" d="M21.6,125l-.2.4c0,0-.2,0-.3,0,0,0,0,0,0,0,.2.5.4.6.8.9l1.1.8c0-.6-1.2-.7-1.2-2.1Z"/>
  <path class="st0" d="M21,125.4s0,0,0,0c-.2,0-.2,0,0,0Z"/>
  <path class="st0" d="M82.5,13.5c.2.1.8.1.9-.2,0-.2-.3-.5-.4-.5-.2,0-.4.2-.6.5h-1.5c0,.1,1.1.4,1.1.4l.6-.2Z"/>
  <path class="st0" d="M86.2,13.9c1.2-.7,1.4.4,2.1,0,.1-.2-.4-.9-.6-.8-1,.5-1.2.2-1.6.5,0,0,0,.3.1.3Z"/>
  <path class="st0" d="M32.7,107.1v-1.4c-.1,0-.3-1.9-.3-1.9v1.9c0,.5.1,1.1,0,1.5,0,.2-.1.5,0,.6,0,0,.4,0,.5,0h.8c-.4,0-1-.2-1-.5Z"/>
  <path class="st0" d="M66,20.1v-.9c0-.2-.2-.6-.3-.6l-.4.6-.5-.9c0,0-.3.3-.3.4,0,.2.2.5.4.5l.8.3.3.6Z"/>
  <path class="st0" d="M21.8,123.6l-.9-2.2h-.2s1.3,3.1,1.3,3.1c0,0,0,.4,0,.5l.3.2c.2.3.3.8.6.9l-1.1-2.5Z"/>
  <path class="st0" d="M37.7,19.8c0,0,.3.2.4.2.2,0,.3-.7.1-.7l-.7-.2-.4-.5-.6.9,1.2-.2v.6Z"/>
  <path class="st0" d="M71.5,90.6c-.1,0-.4-.1-.5-.1-.1,0-.3.3-.2.4l.4.4v3.7c.5-.2.1-.6.1-.9v-2.9c0-.2.3-.5.2-.6Z"/>
  <path class="st0" d="M22,128.8l-.7-1.2c-.2-.4-.6-.8-1.2-.3l1.1.8.8.7Z"/>
  <path class="st0" d="M10.8,113.9c-.5-.9-.4-1.5-.8-1.7-.2,0-.5,0-.7.1l.6.5c.3.3.7,1.1.9,1.4,0,0,.3,0,.2-.1l-.2-.3Z"/>
  <path class="st0" d="M69.8,13.8l.2,1s.2-.1.2-.2v-.3c-.1-.1,0-.5,0-.6.1,0,.3,0,.5,0h1.5c0-.1-1.9-.2-1.9-.2l-.5-.3c-.1,0-.4.3-.3.4l.2.4Z"/>
  <path class="st0" d="M93.5,15.2s0-.2,0-.2h0c0-.1.3-.7.3-.7,0,0-.2-.3-.3-.3h-.9c-.1,0-.3,0-.4.2l1.1.6.2.3Z"/>
  <path class="st0" d="M15.1,120.4l.7,1.2,1.2,1.1c-.3-1.3-1.1-1.4-1.9-2.3Z"/>
  <path class="st0" d="M71.3,84.7c-.1,0-.4-.3-.5-.2,0,0-.3.3-.2.4l.3.4.2,2.4v-2.8c0,0,1.8,0,1.8,0l-1.6-.2Z"/>
  <polygon class="st0" points="123.7 30.5 126.6 32.4 126.7 32.3 123.2 29.9 123.6 31 123.7 30.5"/>
  <path class="st0" d="M131.9,38.7l-2-2,2.4,2.8c.2.3.3.4.7.6,0-.2-.2-.4-.3-.6l-.7-.8Z"/>
  <path class="st0" d="M127.4,31.4c-.2.1-.4.3-.3.3s.3.3.4.2l.3-.4.9.5c-.3-.3-.4-.6-.6-.9l-.7-.4-.3.3.4.4Z"/>
  <path class="st0" d="M88.4,89.9h-1.5s-1.8.1-1.8.1h-1.4c.2.3.3.3.5.3h1.5c0,0,1.4-.2,1.4-.2l1.3-.2Z"/>
  <path class="st0" d="M59.4,89.8s.1-.3.1-.4v-4.6c0-.2.3-.5.2-.6l-.3-.3-.2.4c0,0,.1.2.2.3v5Z"/>
  <path class="st0" d="M81.8,96.2l1.2-.2h-1.9s-1.7,0-1.7,0c-.5,0-1,0-1.4.2h1.6s2.2-.1,2.2-.1Z"/>
  <path class="st0" d="M71.7,96.3c.7.5,1.5.2,2.2.2h.8s2.3,0,2.3,0h0c0-.1-5.2,0-5.2,0Z"/>
  <path class="st0" d="M100.9,62.8c-.3.4-.8.5-1.3.6h1.1s.4.1.4.1c0,0,.3-.3.3-.3l2-.4c-.9-.2-1.5.5-2.5,0Z"/>
  <path class="st0" d="M96.1,29.3h.8c0,.1.1-.3,0-.3h-.6s1.3-.7,1.3-.7h-1.3s-.2,1-.2,1Z"/>
  <path class="st0" d="M131.3,43.3c0-.5,0-.6,0-.6,0,0-.3-.1-.4-.2-.5-.6-1.2-1.6-2-2.1l1.8,2.2.5.7Z"/>
  <path class="st0" d="M6,96.6l-.5-3.5v-1.2c0,0-.4.6-.4.6l.5,2.8c0,.5.2.9.3,1.3Z"/>
  <path class="st0" d="M17.6,120.1v-.3c-.1,0-.4,0-.4,0l-.3-.4c-.1,0-.2-.2-.3-.2,0,0-.3.2-.2.3,0,0,.2.3.2.3l1.3,1-.3-.6Z"/>
  <path class="st0" d="M31.9,102.2h.4c.4.3,0-.7,0-1.3v-2.8s-.1,0-.1,0v3.5c-.2.1-.3.4-.2.5Z"/>
  <path class="st0" d="M132.1,41.5l.2-.2c0,0,0-.3-.2-.3l-.5-.4c-.6-.7-1-1.5-1.9-1.8l2.1,2.4c0,0,.2.4.2.3Z"/>
  <path class="st0" d="M52.4,16.3c.3,0,.7-.3.8-.5l-1.1-.6c0,0-.2.5-.2.6,0,.2.3.5.5.4Z"/>
  <path class="st0" d="M35,143.2c-.8-1-1.8-1.7-2.9-2.3l-.8-.5c.3.6.6.9,1.1,1.2-.1.2-.2.8,0,.9h1.1s-.8-.5-.8-.5h.5c0-.1,1.8,1.2,1.8,1.2Z"/>
  <path class="st0" d="M23.2,130l-.6-1.2-.7-1.4c-.6-.5-1.1-1.2-.9-.7v.2c.5.3.7.5.9.9l1.2,2.2h.1Z"/>
  <path class="st0" d="M18.7,96.8c0,.1-.2.3-.1.4l.3.5.2-.4c0-.1-.1-.4-.1-.5v-4c-.1,0-.2,4-.2,4Z"/>
  <path class="st0" d="M83.7,28.6h0c0-.1.1-.3.1-.4,0-.1-.4-.2-.5-.1-.1,0-.2.3-.2.5v.3c0,0,.2,0,.2,0l.2-.2h0c0,.1.3.6.3.6l.4-.3c0,.2,0,.5.2.5h.5c0,0,0,.6,0,.6l.4-.8c0,0-.3-.2-.4-.2l-.3.2v-.4c0,0-.3-.2-.8-.1Z"/>
  <path class="st0" d="M60.1,26l-.3.3-.4-.2c0,0-.3.1-.2.2v.3c.2,0,.5.2.5.1l.2-.3c.3.3.5.4.6.3.1,0,.1-.4,0-.5-.1-.2-.4-.3-.5-.3Z"/>
  <path class="st0" d="M93.9,27.8h-.3c0,.1,0,.2,0,.3h-.4c0,.1.4.2.4.3l-.4.5c.5,0,1-.2,1.6-.4h-1.3c0,.1,1.3-.8,1.3-.8h-.7s-.1.2-.2.2Z"/>
  <path class="st0" d="M47.3,27.2c.2.4.6.4,1,.4-.1-.3,0-.5,0-.5h.5c-.6-.4-1-.4-1.6-.4l.7.5h-.7Z"/>
  <path class="st0" d="M19.2,127.3v-.2s-1.4-1.2-1.4-1.2c0,.7.9.7,1.3,1.3h0c0,0,.5.6.5.6h-.5c-.1,0-.2.4,0,.5l.4.2.3.2c0,0,.1-.2.2-.3.5.6.9,1.3,1.6,1.7l-1.8-2.4-.6-.5Z"/>
  <path class="st0" d="M63.4,14.2c-.1-.3-.9-.6-1.1-.4,0,0,0,.4.1.5l.7.5c.2-.1.3-.5.3-.7Z"/>
  <path class="st0" d="M42.5,93.1l-.3.5c0,0,.2.3.2.4v3.2c0,0,.3-3.2.3-3.2,0-.4.1-.5,0-.9,0-.2-.1-.2-.2,0Z"/>
  <path class="st0" d="M44.7,61.8c0-.2-.4-.5-.5-.4-.1,0-.4.3-.5.4,0,.1,0,.5.2.6,0,0,.4,0,.5,0,.3-.2.4-.4.3-.6Z"/>
  <path class="st0" d="M53.7,90.2l.2,1v-1c0,0,.3-.4.3-.4,0,0-.2-.3-.2-.4v-1.7c0,0-.2,0-.2,0v1.6c-.2.1-.4.3-.4.4l.2.4Z"/>
  <path class="st0" d="M129.9,44.3c-.5-.6-.9-1.3-1.6-1.7l1.7,2.4.3-.2v-.5c-.1,0-.3,0-.4,0Z"/>
  <polygon class="st0" points="49.8 121.2 54.3 121.8 54.3 121.6 50 121 49.8 121.2"/>
  <path class="st0" d="M130.1,33.9l1.1,1.3v-.7c-.5-.3-.8-.7-1.1-1.1-.3,0-.5,0-.8,0,0,.2.4.5.7.5Z"/>
  <path class="st0" d="M143.4,77.8c-.3.9-.5,1.9-.4,2.8l.5-1.6c0-.3,0-.8,0-1.2Z"/>
  <path class="st0" d="M41.7,25.5c.2-.2.3-.3.2-.4,0,0-.1-.2-.2-.2l.5-.5h-1c0-.1.3.4.3.4l-.9.3,1,.3Z"/>
  <path class="st0" d="M59.9,14.3c-.3-.1-1,0-1.3.2l1,.5c.1,0,.5,0,.5-.2,0-.1-.1-.4-.2-.5Z"/>
  <path class="st0" d="M119.2,24.8c.2,0,.3-.5.2-.7-.1-.1-.4-.1-.8,0l-.9-.6c.4.5.9,1,1.5,1.3Z"/>
  <path class="st0" d="M136.8,52.7c-.3-.6-.6-1.3-1.1-1.7l1.5,2.6v-.8c0-.1-.3-.2-.4-.2Z"/>
  <path class="st0" d="M54.7,66.3c0-.2-.4-.5-.6-.5-.2,0-.5.4-.4.6,0,.2.4.5.6.4.2,0,.4-.4.4-.6Z"/>
  <path class="st0" d="M98,76.6l-4.1.6c.5,0,1,0,1.5,0l2.9-.4h-.2Z"/>
  <path class="st0" d="M43.6,110l4.2.7c-1.4-.4-2.8-.7-4.2-.7Z"/>
  <polygon class="st0" points="82.2 90.5 79.3 90.4 77.7 90.6 79.9 90.6 82.2 90.5"/>
  <path class="st0" d="M24.7,119.5c0,0,.1.3.2.4l1.4,1.5c-.1-.7-.8-1.3-1.2-2,0,0-.3,0-.3.1Z"/>
  <polygon class="st0" points="68.5 90.6 65.8 90.6 68.1 90.8 70.7 90.7 68.5 90.6"/>
  <path class="st0" d="M12.1,115.9c.3-.3.2-.9-.3-1-.3.4.6,1.4,0,1h-.3c0-.2,0,.3,0,.3h.6c0,.2-.2.5-.1.5l.4.2c0,0,0,.3,0,.3h.3c0,.2.2,0,.1-.2l-.7-1.2Z"/>
  <path class="st0" d="M27.7,136.2h-.5c.2.3.5.5.9.7l1.3.7-1.6-1.4Z"/>
  <path class="st0" d="M56,15.1c0,.2,0,.4.2.5,0,0,.4,0,.5,0,0,0,.1-.5,0-.6-.1-.2-.5-.4-.7-.5,0,0-.3.2-.2.3l.3.3Z"/>
  <path class="st0" d="M52.8,69.1c.2,0,.4-.4.3-.6,0-.2-.4-.4-.5-.4-.3,0-.5.4-.4.6,0,.2.4.4.6.3Z"/>
  <path class="st0" d="M90.6,29.4l.3.2-.5.5c.4.1.7,0,.9-.2l-.4-.3s.1-.1.2-.2h.2c0-.2,0-.4,0-.5l.2-.3-.8.2.3.4h-.3s0,0,0,0Z"/>
  <path class="st0" d="M47.2,29h-.3c0,.1.6.3.6.3,0,0,0-.3,0-.3l.3.2-.6.3c.1.4.7.6,1,.5l-.2-1,1,.2c-.7-.3-1.3-.5-1.9-.6l.2.4s0,0,0,0Z"/>
  <path class="st0" d="M65,101.8l-1.3-.2h-1.4c0-.1-1.8-.1-1.8-.1l1.6.2h1.4c.6.1,1.1.2,1.6.1Z"/>
  <path class="st0" d="M43.9,18c.2,0,.5-.1.5-.3,0,0-.1-.3-.2-.4l-.6-.5c-.1.3-.2.5-.1.7,0,.2.3.4.5.4Z"/>
  <path class="st0" d="M49.3,58.4c0,.2.4.4.7.3.2,0,.5-.4.4-.5,0-.2-.4-.3-.6-.3-.2,0-.5.4-.5.6Z"/>
  <path class="st0" d="M122.1,63.6l.9-.5c.1,0,.1-.4,0-.5,0,0-.3-.1-.4,0l-.6.6-.2.2s.2.3.3.3Z"/>
  <path class="st0" d="M41.9,60.7c.1-.2.2-.6,0-.7-.1-.1-.5-.2-.7,0-.2.2-.3.6-.1.7.2.1.6.2.7,0Z"/>
  <path class="st0" d="M124.3,60.2c.1,0,.5,0,.6-.2,0-.2,0-.7-.2-.7-.3,0-.5.2-.6.3,0,.2,0,.5.2.6Z"/>
  <path class="st0" d="M25.1,127.3h-.4c0-.1-.4.4-.4.4-.1.1.2.5.4.5.1,0,.4-.1.5-.2-.1-.2-.3-.3-.3-.4l.2-.3Z"/>
  <path class="st0" d="M50,69.5c-.2.1-.2.6,0,.8.1,0,.4.1.6,0,.2,0,.1-.4,0-.7,0-.1-.4-.3-.6-.1Z"/>
  <path class="st0" d="M85.5,27.2l.8.3.4-.4c-.2,0-.4-.2-.5-.2l-.6.3.2-.5c0,0-.3-.2-.4-.2,0,0-.3.2-.2.3,0,0,.2.3.3.3Z"/>
  <path class="st0" d="M138.1,49.1l-.2-.3v1.3c.2-.4.6-.6,1-.6l-.5-1.1v.5c0,0-.2.2-.3.1Z"/>
  <path class="st0" d="M47.2,30.7l.8.2c.2,0,.5-.4.4-.5h.8c-.8-.3-1.5-.4-2,.3Z"/>
  <path class="st0" d="M30.2,139.5v-.3c.1,0-1.7-1.6-1.7-1.6.5.7,1,1.3,1.7,1.8Z"/>
  <path class="st0" d="M46.6,56.8c-.1.2-.3.5-.1.6l.4.3c.2,0,.7-.7.4-.9-.2-.1-.6,0-.7,0Z"/>
  <path class="st0" d="M139.2,105.6l-.2.9c.4,0,.6-.1.6-.2v-.5s.1-.8.1-.8c-.4,0-.5.3-.6.7Z"/>
  <path class="st0" d="M73.2,32.7c-.1-.2-.4-.4-.6-.3-.2.1-.4.4-.2.5.1.1.4.2.6.3h.3c0,.1.2,0,.2-.2,0,0,0-.2,0-.3h-.3Z"/>
  <path class="st0" d="M22.7,95.9v-.2c0,0,.2-1.9.2-1.9,0-.2,0-.5,0-.6l-.2-.8-.3,1,.2.5v2Z"/>
  <path class="st0" d="M54.1,63.4c.1.1.6.2.7,0,.1-.1.2-.6,0-.7-.1-.1-.5-.2-.6-.1-.2.2-.3.6-.1.7Z"/>
  <path class="st0" d="M42.6,65c.1,0,.5.1.6,0,.1-.1.2-.5,0-.7,0-.1-.5-.2-.7-.1-.3.2-.2.6,0,.8Z"/>
  <path class="st0" d="M19.2,121.3c.1.6.4.8.9.7l-.7-1.7.2.7c0,.1-.2.2-.4.3Z"/>
  <path class="st0" d="M47.2,69.6c-.2,0-.4.3-.5.4,0,.1,0,.5.2.5.4.2.7-.1.7-.4,0-.2-.2-.6-.4-.5Z"/>
  <polygon class="st0" points="92.7 77.4 88.4 77.8 88.5 78 92.7 77.6 92.7 77.4"/>
  <path class="st0" d="M119.9,51.7h-1.3c0,.1-.4.6-.4.6l.8.3c0-.5.4-.8.9-.9Z"/>
  <polygon class="st0" points="53.4 111.4 49.3 110.9 49.2 111 53.6 111.6 53.4 111.4"/>
  <path class="st0" d="M70.2,65.7c-.2-.1-.5,0-.6,0-.1.1,0,.4.2.6l.2,1.5v-1.6c.3-.2.5-.5.3-.6Z"/>
  <path class="st0" d="M19,124.1l.9.9-.9-1.3c-.1-.2-.4-.4-.6-.5-.1.6.3.7.6.9Z"/>
  <path class="st0" d="M16.2,120.8l.3.2c-.2-1-.5-2.1-1.3-2.9l1,2.4c0,0-.1.4,0,.4Z"/>
  <path class="st0" d="M76,13.1c0-.2-.3-.7-.5-.6l-.7.6.7.3c.1,0,.5-.2.5-.3Z"/>
  <path class="st0" d="M41.9,122.3c.2,0,.3-.3.3-.5,0-.1-.2-.3-.4-.3-.2,0-.4.3-.4.5,0,.2.3.3.5.3Z"/>
  <path class="st0" d="M54,60.4c.2,0,.3-.5.2-.7,0-.1-.4-.2-.6-.2-.2,0-.4.5-.3.6,0,.2.5.3.6.2Z"/>
  <path class="st0" d="M22.2,130.6c0,.4.3,1.1.9.9l.5.4c-.1-.6-.7-.9-1.3-1.3Z"/>
  <path class="st0" d="M39.7,64.8c.1.1.4.3.6.2.2,0,.3-.5.3-.6,0-.2-.4-.3-.7-.3-.2,0-.3.5-.2.7Z"/>
  <path class="st0" d="M2.2,77.1v4.1s.1,0,.1,0v-3c0-.3.5-.8-.1-1.1Z"/>
  <path class="st0" d="M10.2,40.4l.2.4c.2-.3.3-.6.2-1l-1.1.5.4.8.2-.8Z"/>
  <path class="st0" d="M128.2,41.1c0,.1.1.6.3.6h.6c-.1-.4-.2-.6-.3-.7,0-.1-.5,0-.6.1Z"/>
  <path class="st0" d="M46.9,73.7c.2,0,.2-.4.2-.6,0-.1-.4-.3-.6-.2-.2,0-.4.5-.3.7,0,.2.5.3.7.2Z"/>
  <path class="st0" d="M117.2,63c.1,0,.6,0,.6-.1l-.2-.6c-.2,0-.5,0-.6.2,0,.2,0,.5.2.6Z"/>
  <path class="st0" d="M36.2,116.2c.2,0,.2-.4.1-.6,0-.1-.3-.2-.5-.2-.2,0-.3.4-.2.6,0,.1.4.2.6.2Z"/>
  <path class="st0" d="M78.5,13.6c.2,0,.4-.2.5-.4,0-.1-.2-.5-.4-.5-.2,0-.5.2-.6.4,0,.1.2.5.4.5Z"/>
  <path class="st0" d="M80.4,98.5c-.2,0-.3.4-.3.6,0,.2.4.2.6.2.2,0,.2-.3.2-.5,0-.1-.3-.2-.5-.2Z"/>
  <path class="st0" d="M89.2,31l.3.6c0,.1.4.2.5.2.1,0,.3-.4.3-.5-.2-.5-.5,0-1.1-.3Z"/>
  <polygon class="st0" points="77.2 101.9 72.2 101.9 72.3 102 77.2 102 77.2 101.9"/>
  <path class="st0" d="M54.3,84.2l-.3-.3-.3.4c0,0,0,.3.2.4v2.5c.1,0,.2-2.5.2-2.5,0-.1.2-.4.1-.5Z"/>
  <path class="st0" d="M124.7,49.7l.3-.6-.9-.2c0,.1.1.5,0,.6l-.4.2c.3,0,.7-.1,1,0Z"/>
  <path class="st0" d="M43.4,67.4c.2-.1.3-.5.2-.7,0-.1-.5-.3-.6-.2-.2.1-.3.5-.2.6.1.2.5.3.6.2Z"/>
  <path class="st0" d="M52.2,118.6c-.1,0-.5,0-.6,0s0,.4,0,.6h.6c.2,0,.2-.6,0-.6Z"/>
  <path class="st0" d="M71.7,96.4l-.3-1.2c0,.4-.2.9-.4,1.3l.4,1,.2-1Z"/>
  <path class="st0" d="M95.2,73.5c-.1.2-.1.6,0,.7.1,0,.4,0,.5,0,.1,0,.1-.5,0-.6,0-.1-.5-.1-.6,0Z"/>
  <path class="st0" d="M74.4,104.3c0,.1,0,.5,0,.5.1,0,.5,0,.6,0,.1,0,.1-.5,0-.6-.1,0-.6-.1-.6,0Z"/>
  <path class="st0" d="M80.1,65.8c0,0,.3.1.4,0l.7-.4c-.2,0-.7,0-.8-.2,0-.2-.1-.5-.2-.8l-.2.8c0,.2-.1.4,0,.5Z"/>
  <path class="st0" d="M107.4,18.7h.4c.1,0,.4-.2.4-.1l.3.4c.3,0,.2-.8,0-.9-.6.5-.8,0-1.1.2,0,0,0,.3,0,.3Z"/>
  <path class="st0" d="M111.5,54.5c0,.1.4.2.5.2.1-.4.4-.6.8-.6h-1.3c0-.2,0,.3,0,.4Z"/>
  <path class="st0" d="M113.6,64.3c.2,0,.2-.4.1-.6,0-.1-.3-.2-.5-.2-.2,0-.3.4-.2.6,0,.2.4.3.6.2Z"/>
  <path class="st0" d="M124.6,52.4c-.2,0-.3.4-.2.6,0,.1.5.3.6.1.3-.3.1-.8-.3-.8Z"/>
  <path class="st0" d="M46.2,118.4c.2,0,.6,0,.6-.2,0-.2,0-.5-.2-.5-.2,0-.5,0-.5.2,0,.2,0,.6.1.6Z"/>
  <path class="st0" d="M74.2,35.1l-.2-.4-.3.8c.4,0,.5,0,.6.1l.2.6.3-.9c0-.1-.3-.2-.5-.2Z"/>
  <path class="st0" d="M15.9,123.2c.2.7.6,1.1,1.1,1.5.1-.4-.7-1.4-1.1-1.5Z"/>
  <path class="st0" d="M120.9,61c-.2,0-.2.6,0,.7.2,0,.6,0,.6-.1v-.6c0-.1-.5-.1-.6,0Z"/>
  <polygon class="st0" points="9.3 87.2 9 87.2 9 89.7 9.3 89.6 9.3 87.2"/>
  <polygon class="st0" points="59 106.7 54.8 106.3 54.7 106.4 59 106.9 59 106.7"/>
  <path class="st0" d="M96.1,15.5l.3-.2c0,0,.3-.3.3-.4l-.3-.4-.3.4s-.1-.2-.2-.3l-.3.4c0,0,.5.6.5.6Z"/>
  <path class="st0" d="M56.9,114.1c-.1.1-.2.6,0,.6.1,0,.5.1.6,0,0-.1,0-.4,0-.5,0-.1-.5-.1-.6,0Z"/>
  <path class="st0" d="M66.2,96.4h3.4c.2,0,.7.4.8-.1h-4.3s0,.1,0,.1Z"/>
  <path class="st0" d="M111.3,58c.1-.1,0-.6-.1-.7-.1,0-.5,0-.5.1,0,.1,0,.4,0,.5,0,.1.5.2.6,0Z"/>
  <path class="st0" d="M48,28c0-.1-.6-.2-.7-.1l-.4.5h.8c.2.1.4.1.7,0h-.3c0-.1,0-.4,0-.4Z"/>
  <path class="st0" d="M118.7,59.1l-.9-.5c.1.3,0,.7,0,.7h-.5c.4.1.7.2,1.1.2l.4-.4Z"/>
  <path class="st0" d="M109.1,65.3c.2,0,.2-.3.2-.5,0-.1-.3-.3-.5-.2-.2,0-.3.5-.2.7,0,.1.4.1.6,0Z"/>
  <path class="st0" d="M10.6,110.1l1.1,2.8c-.2-1-.5-1.9-1.1-2.8Z"/>
  <path class="st0" d="M49.1,67.3c-.3-.2-.4-.3-.6-.6v.5c-.1.1,0,.2.3.4l-.5.2.6.3c.2,0,.4-.6.2-.7Z"/>
  <path class="st0" d="M44.2,68.4c-.2,0-.4.4-.3.7.2.1.3.2.7.2,0-.1.2-.4.2-.6,0-.2-.4-.3-.5-.3Z"/>
  <path class="st0" d="M111,71.2c0-.2,0-.4,0-.5,0,0-.5,0-.5,0-.1.1,0,.6,0,.7.2,0,.5,0,.5-.2Z"/>
  <path class="st0" d="M74.9,99.2v-.4c0,0-.3-.1-.5,0-.1,0-.3.2-.3.3,0,.1.1.4.2.4.2,0,.6,0,.6-.2Z"/>
  <path class="st0" d="M101.7,78.6c-.1.1-.1.6,0,.7.2,0,.5,0,.5-.2v-.5c0-.1-.5-.1-.6,0Z"/>
  <path class="st0" d="M85.6,86.8c-.2,0-.3.4-.2.6,0,.1.4.3.6.2.1,0,.2-.4.2-.6,0-.1-.4-.2-.5-.2Z"/>
  <path class="st0" d="M92,86.5c0-.3-.2-.5-.4-.4-.2,0-.3.3-.4.6l.2.3c.4,0,.5-.1.6-.4Z"/>
  <path class="st0" d="M96.5,27.9l.7.3.6-.5c-.2-.2-1-.4-1.3.3Z"/>
  <path class="st0" d="M64.9,28.8c0,.1,0,.5.2.5h.6c0-.3-.2-.6-.4-.8-.1-.1-.4.2-.4.3Z"/>
  <path class="st0" d="M105.6,62.1l-.7.4.9.4s.3-.3.3-.5c0-.1-.4-.3-.5-.3Z"/>
  <path class="st0" d="M116.4,26.8l1.4.6h.1c.2,0,.5.4.7.6.2,0,.6-.1,1,0l-.8-.3-.8-.3h-.1s-1.9-.7-1.9-.7l-.4.5c0,0,.2.3.3.3h.3c0-.1-.1-.4-.1-.4,0,0,.3,0,.3,0Z"/>
  <path class="st0" d="M5.3,102.7l.9.6-.4-1.4c-.1.4-.2.5-.5.8Z"/>
  <polygon class="st0" points="81.7 84.6 78.8 84.6 77.3 84.8 79.1 84.7 81.7 84.6"/>
  <path class="st0" d="M74.2,33.4h.3c0,0,.1.2.2.3,0,0,.3,0,.3,0v-.3s-.8-.8-.8-.8l-.4.5c0,0,.2.3.3.3Z"/>
  <path class="st0" d="M122.8,34.4l-1.1-.5,2.3,1.8c0-.5-.8-.6-1.2-1.3Z"/>
  <path class="st0" d="M55.6,25.6c.2,0,.6.2.7,0,.1,0,0-.5-.2-.6-.1,0-.4,0-.5,0h-.2c0,0,0,.3,0,.3h.2Z"/>
  <path class="st0" d="M36.7,63.8c0-.1-.3-.4-.4-.4-.2,0-.3.2-.4.5,0,.2.3.4.5.4.2,0,.4-.3.4-.6Z"/>
  <path class="st0" d="M121.6,53.8c-.2,0-.3.4-.2.5,0,.1.4.2.5.2.2,0,.3-.4.2-.5,0-.1-.3-.2-.5-.2Z"/>
  <path class="st0" d="M41,116.6c-.2,0-.4.3-.4.5,0,.2.3.3.5.3.2,0,.3-.3.3-.5,0-.1-.2-.3-.4-.3Z"/>
  <path class="st0" d="M97.1,24.5l-1,.2c.2.2.4.5.5.5l.5-.2c.1,0,.3,0,.3-.1v-.3c0,0-.2,0-.3,0Z"/>
  <path class="st0" d="M50.7,72.8c-.1.2-.2.6,0,.7.1,0,.6.1.7,0,0-.1,0-.5,0-.6,0-.2-.6-.2-.7,0Z"/>
  <path class="st0" d="M105.9,71.6c-.1,0-.4.2-.4.4,0,.2.1.5.3.5.1,0,.4-.2.4-.3,0-.3-.1-.6-.3-.5Z"/>
  <path class="st0" d="M121.2,39.9c0,.3.5.5.7.4.2,0,0-.6-.1-.7-.2,0-.6,0-.6.3Z"/>
  <path class="st0" d="M118.9,55.2c0-.1-.5-.2-.6,0-.1,0-.1.5,0,.6.1,0,.5.1.6,0,0-.1,0-.4,0-.5Z"/>
  <path class="st0" d="M124.3,37.4c.1,0,.4,0,.6,0,0-.3-.2-.6-.4-.7-.1,0-.5,0-.5.2,0,.2.2.5.3.5Z"/>
  <path class="st0" d="M126.1,44.7c0-.3-.3-.6-.5-.5-.2,0-.4.3-.4.4.1.4.8.4.8.1Z"/>
  <path class="st0" d="M46.3,112.8c0-.1-.2-.3-.4-.3-.2,0-.4.3-.4.5s.3.3.5.3c.2,0,.3-.3.3-.5Z"/>
  <path class="st0" d="M54.8,17c.2,0,.3-.4.2-.5,0-.1-.4-.3-.6-.2-.2,0-.3.5-.2.7,0,.1.4.2.5.1Z"/>
  <path class="st0" d="M104,66.2c.1.1.5.2.6,0,.1-.1.1-.5,0-.6,0-.1-.5-.2-.6,0-.1.2-.1.5,0,.6Z"/>
  <path class="st0" d="M118.9,45.2h-.9c0-.1,0,.2,0,.2,0,0-.2.2-.2.2.2,0,.6.2.8.4,0-.2,0-.7.2-.9Z"/>
  <path class="st0" d="M80,93c-.1,0-.2.6,0,.6.1,0,.5,0,.6,0,.1,0,.1-.4,0-.5,0-.1-.5-.2-.6,0Z"/>
  <path class="st0" d="M45.4,81.7c.1.1.4.2.6.2.2,0,.3-.4.2-.5,0-.2-.3-.3-.6-.3-.2,0-.4.5-.3.6Z"/>
  <path class="st0" d="M106.6,58.4c-.2,0-.3.4-.2.5.1.2.4.3.5.2.2,0,.3-.4.2-.6,0-.1-.4-.2-.6-.2Z"/>
  <path class="st0" d="M68.1,98.8c0,.2,0,.6,0,.6h.5c.1,0,.2-.5,0-.6-.1,0-.6,0-.7,0Z"/>
  <path class="st0" d="M45.1,26.5s-.2-.2-.3-.2c0,0-.1,0-.2,0-.1,0-.4-.1-.4,0l-.2.4,1.1.3-.2-.3s0-.1.2-.3Z"/>
  <path class="st0" d="M21.7,131.3c0,.3.3.5.6.5l1,.9c-.3-.5-.7-.9-1-1.3h-.6Z"/>
  <path class="st0" d="M69.1,110.2c.1,0,.1-.5,0-.6,0-.1-.4,0-.6,0-.1,0-.2.6,0,.6.1,0,.4,0,.5,0Z"/>
  <path class="st0" d="M87.6,76.8v.9c-.2.2-.3.4-.2.5,0,0,.4.3.5.2l.2-.4c-.5-.4-.5-.7-.5-1.2Z"/>
  <path class="st0" d="M36.6,120.4c-.1.1-.2.6,0,.6.1,0,.5,0,.6,0,.1,0,0-.4,0-.5,0-.1-.5-.2-.6-.1Z"/>
  <path class="st0" d="M79.8,87.2c-.1,0-.3.5-.2.6.1,0,.4,0,.6,0,.1,0,.2-.4.1-.5,0-.1-.4-.2-.6-.2Z"/>
  <polygon class="st0" points="76.2 90.8 76.1 90.7 71.7 90.7 71.8 90.8 76.2 90.8"/>
  <path class="st0" d="M13.6,119.2c0,0-.3,0-.3,0l.2.4c0,0,.3.3.4.3l.3-.3-.8-1.2.2.8Z"/>
  <path class="st0" d="M25.5,135.4c-.1,0-.2.5,0,.7.1.2.7.3.7,0,.1-.4-.3-.7-.7-.7Z"/>
  <path class="st0" d="M124.9,35.4c-.2.4.3.7.6.6.2,0,.1-.6,0-.7-.1-.1-.5,0-.6,0Z"/>
  <path class="st0" d="M97.5,22c0,.1.4.1.5,0l.5-.2-.9-.4c-.3-.1-.7,0-1,0h.8s0,.4,0,.4Z"/>
  <path class="st0" d="M49.5,64.1c0-.2-.3-.4-.5-.3-.2,0-.4.5-.3.6,0,.1.4.3.6.2.2,0,.3-.3.2-.5Z"/>
  <path class="st0" d="M46.2,24.9l-.8-.4-.6.5c.5,0,.8.2,1.2.3-.3-.2-.2-.3.2-.4Z"/>
  <path class="st0" d="M125,56.7l.4-.5-.9-.4s.2.4.1.5l-.2.3c.2,0,.6.2.7,0Z"/>
  <path class="st0" d="M118.8,49c.1,0,.2-.4.2-.5,0-.1-.3-.3-.5-.2-.2,0-.3.4-.2.5,0,.1.4.3.5.2Z"/>
  <path class="st0" d="M102.7,59.9c0-.1,0-.4,0-.6,0-.1-.5-.2-.6,0-.2.2-.1.5,0,.6.1.1.5.1.6,0Z"/>
  <path class="st0" d="M141.1,71c.2,0,.3-.3.3-.5,0-.1-.2-.4-.4-.4-.3,0-.3.9,0,.9Z"/>
  <path class="st0" d="M81,71.8c-.1.4.3.5.4,1.4l.2-.9c0-.2.1-.4,0-.6-.1-.1-.5,0-.5.1Z"/>
  <path class="st0" d="M42.5,72.4c.1,0,.2-.4.2-.6,0-.1-.4-.3-.5-.2-.2.1-.4.5-.3.6,0,.1.5.3.6.2Z"/>
  <path class="st0" d="M95.5,24.1l1.2-.9h-.8c-.2,0-.7.3-.9.4l.5.2c0,0,0,.3,0,.3Z"/>
  <path class="st0" d="M27.1,89.8c0,.2.4.2.5,0,0,0,0-.3,0-.5v-1.6c-.1,0-.3,1.6-.3,1.6-.2.1-.3.3-.2.6Z"/>
  <path class="st0" d="M115.8,49.9c0-.2-.1-.5-.2-.6-.1,0-.6.1-.5.3,0,.1.1.4.2.5,0,0,.5,0,.5-.2Z"/>
  <path class="st0" d="M76,72.3l-.4-.7-.3.8c.2.4.3.8.4,1.2l.3-1.3Z"/>
  <path class="st0" d="M19.8,113.9c-.1,0-.3.2-.3.3,0,.1.2.3.3.4l.4.3v-.7c0-.1-.3-.3-.4-.3Z"/>
  <path class="st0" d="M85.8,24.6h.2c0,.2.2.4.3.3h.4c0,0-.2.4-.2.4.4-.2.6-.4.7-.6l-1.1-.3h-.3c0,.2,0,.2,0,.2Z"/>
  <path class="st0" d="M101.1,73.2c.1,0,.1-.4,0-.5,0-.1-.5-.2-.6-.1-.1,0-.2.6,0,.7.1,0,.5,0,.6,0Z"/>
  <path class="st0" d="M93.5,16.4c.1,0,.4-.3.3-.4,0-.1-.3-.3-.3-.3-.5.8-1.2.2-1.3.8.5,0,.9-.1,1.2,0Z"/>
  <path class="st0" d="M39.3,69c-.1,0-.2.5,0,.6.1.1.5.2.6.1.1-.1.2-.6,0-.7,0-.1-.5,0-.6,0Z"/>
  <path class="st0" d="M135.2,51.2c-.3,0-.5.3-.4.5,0,.2.4.4.6.3.2-.2,0-.7-.2-.7Z"/>
  <path class="st0" d="M99.2,66.3c-.1,0-.3.5-.2.6,0,.1.3.2.5.2.1,0,.2-.3.2-.5,0-.1-.3-.3-.5-.3Z"/>
  <path class="st0" d="M48.9,79.1c0-.1-.4,0-.5.2,0,.1,0,.3.1.4v1.6c0,0,.3-1.6.3-1.6,0-.2,0-.4,0-.6Z"/>
  <path class="st0" d="M26.5,130.1c.3-.4,0-.6-.3-.9-.3-.4-.5-.6-.9-.6l1.2,1.5Z"/>
  <path class="st0" d="M48.7,83.7v-1.5c-.1,0-.3,1.5-.3,1.5-.2.1-.3.4-.2.5.1.2.4.2.6,0,0,0,0-.4,0-.5Z"/>
  <path class="st0" d="M56.5,109c-.1.2,0,.6.1.6.2,0,.4,0,.5,0,0-.1.1-.5,0-.6-.1,0-.5,0-.6,0Z"/>
  <path class="st0" d="M45.4,107.3c-.2,0-.4.4-.4.5,0,.2.3.3.5.3.2,0,.3-.3.3-.5,0-.1-.3-.3-.5-.3Z"/>
  <path class="st0" d="M64.9,80h0c0,0,0-1.1,0-1.1,0-.1.3-.3.3-.4,0,0-.3-.4-.4-.4l-.4.3c0,0,.2.3.3.4v1.1Z"/>
  <polygon class="st0" points="70.5 101.9 66.5 101.8 66.6 102 70.6 102 70.5 101.9"/>
  <path class="st0" d="M104.5,26l-.3.4.8.2c0-.1,0-.2.1-.2h.5c.2,0,.3,0,0,0l-.6-.2c-.1,0-.5-.2-.5-.1Z"/>
  <path class="st0" d="M84.3,74.6c-.2,0-.3.4-.2.6,0,.1.4.3.6.2.1,0,.2-.4.2-.6,0-.1-.4-.3-.5-.2Z"/>
  <path class="st0" d="M32,85.7c0,0,.2.3.2.4v1.6c.1,0,.3-1.6.3-1.6,0-.1.2-.4.1-.5l-.3-.3-.3.4Z"/>
  <path class="st0" d="M115.3,56.9c0-.2,0-.5-.2-.6,0,0-.4,0-.4.1,0,0,0,.4,0,.6,0,.2.6,0,.7-.1Z"/>
  <path class="st0" d="M72.9,75.1c-.1,0-.2.5-.1.6,0,.1.5.2.6,0,.1-.1,0-.5,0-.6,0-.1-.4-.1-.6,0Z"/>
  <path class="st0" d="M48.3,89.6l.3-.4c0,0-.1-.3-.2-.4v-1.8c0,0-.2,1.8-.2,1.8,0,0-.3.3-.3.4l.4.4Z"/>
  <path class="st0" d="M32.4,119.6c0-.2,0-.6-.1-.6h-.3c-.2,0-.2.5-.1.6.1.2.6.2.6,0Z"/>
  <path class="st0" d="M86,92.5c-.1,0-.2.5,0,.6,0,.1.5.1.6,0,.1,0,0-.4,0-.5,0-.1-.4-.1-.5,0Z"/>
  <path class="st0" d="M56.6,104.2c.1,0,.5,0,.5,0,0-.2,0-.5,0-.6,0-.1-.6,0-.6,0-.1.2,0,.6.2.6Z"/>
  <path class="st0" d="M68.3,104.2c-.1,0-.2.5,0,.6.1,0,.4,0,.6,0,.1,0,.2-.6,0-.6-.1,0-.4,0-.6,0Z"/>
  <path class="st0" d="M56.8,93.2c.1,0,.1-.4,0-.6,0-.1-.4-.1-.6,0-.2,0-.3.5-.1.6.1.1.5.1.6,0Z"/>
  <path class="st0" d="M24.7,121.1h.6c0,0-.2-.6-.2-.6,0-.1-.4-.1-.5,0,0,0,0,.6,0,.7Z"/>
  <path class="st0" d="M45.3,85.9c-.1.2-.1.6,0,.6.1,0,.5.1.6,0,0-.2,0-.4,0-.6,0-.1-.6-.2-.7,0Z"/>
  <path class="st0" d="M104.1,52.7c-.1.2,0,.6.2.6.1,0,.4,0,.5-.1,0-.1,0-.5,0-.6,0-.1-.5,0-.6,0Z"/>
  <path class="st0" d="M25,102.2c0,.1,0,.4.1.6s.5,0,.5,0c0-.2,0-.5,0-.6-.2,0-.6,0-.6.1Z"/>
  <path class="st0" d="M18.3,77c-.1,0-.3.4-.2.6,0,.1.4.3.5.2s.2-.4.2-.5c0-.2-.3-.4-.6-.2Z"/>
  <path class="st0" d="M88.8,67.7c-.2,0-.3.5-.2.6,0,.1.4.2.5.2.1,0,.3-.4.3-.5,0-.2-.3-.3-.5-.3Z"/>
  <path class="st0" d="M45.8,77c-.1.1-.2.5,0,.6.1.1.5.2.6,0,.1-.1.1-.5,0-.7,0-.1-.5-.1-.6,0Z"/>
  <path class="st0" d="M115.2,44c.2,0,.1-.6,0-.6-.2,0-.6,0-.6.2,0,.3.4.6.7.4Z"/>
  <path class="st0" d="M15.7,122c-.3.1-.3.2-.4.2l-.4-.2c0,0,.1.5.3.6s.4,0,.7,0l-.2-.7Z"/>
  <path class="st0" d="M40.2,112.2c.2,0,.4,0,.5,0,.1,0,.1-.5,0-.6,0-.1-.5,0-.6,0-.1.2-.2.6,0,.6Z"/>
  <path class="st0" d="M90.1,74.1c-.2,0-.5.3-.4.5,0,.1.3.3.4.3.1,0,.3-.2.4-.4,0-.1-.2-.4-.4-.4Z"/>
  <path class="st0" d="M122.6,50.4h-1.1c0,.4.2.7.5.8,0-.4.2-.8.5-.8Z"/>
  <path class="st0" d="M129.9,38.1c.2.1.5.2.6.2.1-.5-.3-.9-.6-.8-.2,0-.1.5,0,.6Z"/>
  <path class="st0" d="M50.8,108.8c.1,0,.4,0,.5,0,.1,0,.1-.4,0-.6,0-.1-.4-.1-.6,0-.1,0-.2.6,0,.6Z"/>
  <path class="st0" d="M93.9,67.2c0,.2,0,.6.1.7.1,0,.4,0,.5-.1,0-.1,0-.5,0-.6,0-.1-.5,0-.6,0Z"/>
  <path class="st0" d="M16.6,74.1c.2,0,.3-.4.3-.6,0-.1-.3-.4-.5-.3-.2.1-.4.5-.3.6,0,.1.4.3.5.3Z"/>
  <path class="st0" d="M74,93.2c-.1,0-.2.6,0,.6.1,0,.4,0,.5,0,.1,0,.1-.4,0-.6,0-.1-.4-.1-.6,0Z"/>
  <path class="st0" d="M63,26.3c-.1,0-.5.2-.4.3.1.4.6.7.6.6v-.4c0-.1-.1-.5-.2-.5Z"/>
  <path class="st0" d="M62.8,99.1c.1,0,.2-.5,0-.6-.1,0-.4,0-.6,0-.1,0-.2.5,0,.6.1,0,.5.1.6,0Z"/>
  <path class="st0" d="M139.8,65.5c0,.1.3.4.5.3.3-.2.2-.8-.2-.8-.2,0-.3.3-.3.5Z"/>
  <path class="st0" d="M51.2,113.5c-.1.1-.2.6,0,.6.2,0,.4,0,.5,0,.1-.1.1-.5,0-.6,0-.1-.5,0-.6,0Z"/>
  <path class="st0" d="M82.2,62.4c.1,0,.5.1.6,0,.1,0,.2-.5,0-.6,0,0-.4,0-.6,0-.2,0-.2.5,0,.6Z"/>
  <path class="st0" d="M23.9,116.3c0-.2-.2-.6-.3-.6-.2,0-.4.1-.4.3,0,.2.2.4.3.5,0,0,.4,0,.4-.2Z"/>
  <path class="st0" d="M96.2,79.6c0,.1,0,.6,0,.7.1,0,.3,0,.5,0,.1,0,0-.4,0-.5,0-.1-.5-.2-.6,0Z"/>
  <path class="st0" d="M92,24.8v.3c.1,0,.9-.6.9-.6,0-.1-.2-.3-.3-.3l-.3.2-.9.6.6-.2Z"/>
  <path class="st0" d="M19,102.8c.1,0,.5,0,.5,0v-.5c-.1,0-.3-1.5-.3-1.5h0c0,0,0,1.6,0,1.6,0,.1-.2.5,0,.5Z"/>
  <path class="st0" d="M40.9,80.5c0-.2-.3-.3-.6-.3-.2,0-.4.5-.3.6,0,.1.4.2.6.2.2,0,.3-.4.2-.6Z"/>
  <path class="st0" d="M129.7,40c.2,0,.2-.5,0-.7,0-.1-.4-.2-.5,0-.2.2,0,.9.5.7Z"/>
  <path class="st0" d="M40.3,106.9c.1,0,.1-.4,0-.6,0-.1-.4-.1-.5,0-.1,0-.2.5-.1.6,0,.1.4.1.6,0Z"/>
  <path class="st0" d="M130.7,47.6c-.2,0-.3.4-.2.6,0,.1.4.3.6.2.1,0,.1-.5,0-.6,0-.1-.3-.2-.4-.2Z"/>
  <path class="st0" d="M54.9,71.4c-.1.2-.2.6,0,.6.2,0,.5.1.6,0,0-.2.1-.5,0-.6,0-.1-.6-.2-.6,0Z"/>
  <path class="st0" d="M85,80.9c-.1.1,0,.5,0,.7,0,.1.6,0,.6,0v-.5c0-.1-.5-.2-.6,0Z"/>
  <path class="st0" d="M90.7,80.3c-.1,0-.2.6,0,.7.1,0,.4,0,.5,0,.1,0,0-.4,0-.6,0-.1-.4-.2-.5,0Z"/>
  <path class="st0" d="M67.3,75.7c.1,0,.4,0,.5,0,.1,0,.1-.5,0-.6,0-.1-.5-.2-.6,0-.1.2-.2.6,0,.7Z"/>
  <path class="st0" d="M62,81.8c.1,0,.5.1.6,0,0-.2,0-.5,0-.7,0-.1-.6-.1-.6,0-.1.2-.1.6,0,.6Z"/>
  <path class="st0" d="M127,42.8c0,.1.2.4.3.5.1,0,.5,0,.5-.2,0-.2-.2-.5-.4-.5-.1,0-.4.2-.4.3Z"/>
  <path class="st0" d="M93,61.5c.1,0,.1-.4,0-.6,0-.1-.4-.1-.6,0-.1,0-.2.5,0,.6,0,.1.4.1.6,0Z"/>
  <path class="st0" d="M40.1,101.5c0-.1,0-.4,0-.6,0-.1-.5-.1-.5,0-.1,0-.1.4,0,.6s.5.2.6,0Z"/>
  <path class="st0" d="M72,62.3c-.1,0-.3.5-.2.6,0,.1.5.1.6,0,.1,0,.1-.4,0-.6,0-.1-.4-.1-.5,0Z"/>
  <path class="st0" d="M45.2,101.9c-.1,0-.3.4-.3.5,0,.1.4.2.6.2.1,0,.2-.4.2-.5,0-.1-.3-.2-.5-.2Z"/>
  <path class="st0" d="M57.8,62.6c-.2,0-.3.5-.2.6.1.1.5.2.6.1s.3-.4.2-.6c0-.1-.5-.2-.6-.2Z"/>
  <path class="st0" d="M87.4,62h.7c0,0,0-.6,0-.6,0-.1-.4-.2-.5-.1-.2,0-.2.4-.2.7Z"/>
  <path class="st0" d="M38.1,59.5c0-.1.1-.4.1-.6,0-.1-.4-.3-.6-.2-.1,0-.2.4-.2.6,0,.2.6.3.7.2Z"/>
  <path class="st0" d="M77.8,40.5c0,0,0,.3,0,.4,0,0,.4.2.6.2.2,0,.4-.3.4-.4-.3-.3-.8-.2-.9,0Z"/>
  <path class="st0" d="M35.1,105.6c.1,0,.1-.4,0-.6,0-.1-.4-.1-.5,0-.1,0-.2.5,0,.6,0,.1.5.2.6,0Z"/>
  <path class="st0" d="M108.1,51.7c-.1,0-.1.4,0,.5,0,.1.6.2.6.1,0-.1,0-.5,0-.6,0-.1-.5-.1-.5,0Z"/>
  <path class="st0" d="M94.3,57.3c-.1,0-.4.3-.4.5,0,.1.3.3.5.4.1,0,.4-.3.4-.4,0-.1-.3-.4-.4-.4Z"/>
  <path class="st0" d="M68.6,93.7c0-.1,0-.4,0-.5,0-.1-.5,0-.6,0,0,.2,0,.6,0,.6.1,0,.5,0,.5-.1Z"/>
  <path class="st0" d="M32.8,110.6l.2,1.5c0-.6,0-1.1,0-1.8l-.2-1.5c0,.6,0,1.2,0,1.8Z"/>
  <path class="st0" d="M87.7,45.7c-.1.1,0,.5,0,.6.1,0,.5.1.5,0,0-.2,0-.4,0-.5,0-.1-.5-.2-.6,0Z"/>
  <path class="st0" d="M77,57c.1-.1.1-.4,0-.6,0-.1-.4-.1-.6,0-.1,0-.2.5,0,.6,0,.1.5.2.6,0Z"/>
  <path class="st0" d="M70.7,78.3v-.8c-.1,0-.4,1.1-.4,1.1,0,.1.3.5.4.4l.3-.3c0,0-.2-.3-.3-.4Z"/>
  <path class="st0" d="M83.2,68.2c-.1.2,0,.6.1.7.1,0,.5,0,.5-.1,0-.2,0-.4,0-.6,0-.1-.6,0-.6,0Z"/>
  <path class="st0" d="M132.4,46.7c.1,0,.2-.5.1-.6,0-.1-.3-.2-.5-.2-.1,0-.2.4-.1.5,0,.1.4.3.5.2Z"/>
  <path class="st0" d="M29.4,122.8l-.2-.6c0,0-.4-.1-.5,0-.2,0-.2.6,0,.7h.6Z"/>
  <path class="st0" d="M35.5,110.9c.1,0,.1-.4,0-.6,0-.1-.4-.1-.5,0-.1,0-.2.5,0,.6,0,.1.5.1.6,0Z"/>
  <polygon class="st0" points="69.8 84.8 69.8 84.7 65.8 84.7 65.8 84.8 69.8 84.8"/>
  <path class="st0" d="M40.5,84.9c0-.1-.4-.1-.6,0-.1,0-.2.5-.1.6.1.1.5.2.6,0,.1-.1.1-.5,0-.6Z"/>
  <path class="st0" d="M1.8,85.3v1.8c.1,0,.2.5.2.5,0,0,.3,0,.4,0l-.3-.9c0-.6,0-1-.2-1.4Z"/>
  <path class="st0" d="M24.9,91.9c.2,0,.5,0,.5-.2,0-.3,0-.6-.2-.6-.1,0-.4,0-.4.2-.1.2,0,.5.1.6Z"/>
  <path class="st0" d="M77.8,69.2c.1.1.5.2.6,0,.1-.1.1-.4,0-.6,0-.1-.4-.2-.6,0-.1,0-.2.5,0,.6Z"/>
  <path class="st0" d="M121.2,47c-.2,0-.3.4-.2.6,0,.1.4.2.6.2.1,0,.2-.4,0-.5,0,0-.3-.2-.4-.2Z"/>
  <path class="st0" d="M57,82c.1,0,.2-.3.3-.5,0-.2-.2-.3-.5-.3-.2,0-.4.4-.3.6,0,.1.3.2.5.2Z"/>
  <path class="st0" d="M81.4,56c-.1,0-.3.3-.3.4,0,.1.2.2.5.3.2,0,.4-.3.3-.5,0-.1-.4-.2-.5-.2Z"/>
  <path class="st0" d="M30.8,114.1c0,0,0,.4,0,.5,0,.2.7.2.7,0,0-.2,0-.6-.2-.6h-.4Z"/>
  <path class="st0" d="M44.6,25.3l-.2.6,1,.2c-.2-.6-.5-.8-.9-.7Z"/>
  <path class="st0" d="M56.4,87.6c.1,0,.5.1.6,0,.1-.1.1-.5,0-.6,0-.1-.5-.1-.6,0-.2.2-.2.6,0,.6Z"/>
  <path class="st0" d="M126,34.2c0-.2,0-.6-.2-.6-.1,0-.5,0-.6.2-.1.2.5.8.7.5Z"/>
  <path class="st0" d="M69.8,72.4l.4.6.4-.7c-.2-.3-.3-.6-.4-1,0,.4-.2.7-.4,1Z"/>
  <path class="st0" d="M62,87.7c.1,0,.4,0,.6,0,.1,0,.1-.4,0-.6,0-.1-.4-.1-.5,0-.1,0-.2.5-.1.6Z"/>
  <path class="st0" d="M52.4,54.9c.2,0,.4-.3.4-.5,0-.1-.3-.3-.5-.3-.2,0-.4.4-.4.5,0,.2.4.3.5.3Z"/>
  <path class="st0" d="M73.8,88c.1,0,.5,0,.5,0v-.5c0-.1-.5-.2-.6,0-.1.1-.1.6,0,.7Z"/>
  <path class="st0" d="M39.7,90.1c-.1,0-.2.5,0,.6.1,0,.4.1.6,0s.1-.5,0-.6c0-.1-.4-.1-.5,0Z"/>
  <path class="st0" d="M123.4,46.2c.1,0,.4,0,.5,0,.1,0,0-.5,0-.6s-.5,0-.6,0c0,.1,0,.4,0,.5Z"/>
  <path class="st0" d="M102.4,42.5c-.1,0-.3.2-.4.3,0,.1.2.3.3.4.1,0,.4,0,.5,0,0,0,0-.4,0-.5,0,0-.3-.1-.4-.1Z"/>
  <path class="st0" d="M17.6,116.7c0,.2,0,.6.2.7h.5c0-.2,0-.5-.1-.6,0,0-.4-.1-.5,0Z"/>
  <path class="st0" d="M62.3,75.6c.1,0,.2-.4.2-.6,0-.2-.4-.3-.6-.2-.1,0-.2.6-.1.7.1.1.4.2.6,0Z"/>
  <path class="st0" d="M97.4,25.1l-.3.2c-.1,0-.3-.1-.3,0v.3c-.1,0-.2.4-.2.4.4,0,.9-.3,1.1-.5,0,0-.2-.3-.3-.3Z"/>
  <path class="st0" d="M68.2,82c.1,0,.1-.4,0-.5,0-.1-.3-.2-.5-.1-.1,0-.2.5-.1.6,0,.1.5.1.6,0Z"/>
  <path class="st0" d="M79.1,81.3c0,.1,0,.5,0,.6.1,0,.4.1.5,0,0-.1,0-.5,0-.6,0-.1-.5-.1-.6,0Z"/>
  <path class="st0" d="M51.7,81.4c-.1,0-.5,0-.6,0-.1,0-.2.5,0,.6.1.1.5.2.6,0,.1-.1.2-.6,0-.7Z"/>
  <path class="st0" d="M100,53.4c-.2,0-.3.4-.2.5.1.1.4.3.6.3.2,0,.2-.5.2-.6,0-.1-.3-.2-.5-.2Z"/>
  <path class="st0" d="M77.7,62.2c-.1,0-.5,0-.6,0-.1,0-.1.6,0,.6h.5c.2,0,.2-.6,0-.6Z"/>
  <path class="st0" d="M20.6,76.3c0,.1.3.2.5.2.1,0,.2-.3.2-.5,0-.1-.3-.3-.4-.3-.2,0-.4.5-.3.6Z"/>
  <path class="st0" d="M61.6,40.9c-.1,0-.4.1-.4.2,0,.1,0,.3.1.4,0,0,.3,0,.5,0,.1,0,.4-.4.3-.5,0,0-.3-.1-.4-.2Z"/>
  <path class="st0" d="M101.5,48.2c0,.1.3.2.5.2.1,0,.3-.3.2-.5,0-.1-.3-.3-.4-.3-.3,0-.4.4-.3.6Z"/>
  <path class="st0" d="M36.2,23.3c.1,0,.2-.4.1-.5,0,0-.4-.1-.4,0l-.2.5h-.8c.5.2,1,.2,1.3,0Z"/>
  <path class="st0" d="M123.2,42.6c-.5-.2-.8-.5-1.2-.8l.6.8c0,.3.2.5.6.7v-.7Z"/>
  <path class="st0" d="M120.3,41.5c0-.2-.1-.5-.3-.6-.1,0-.5.1-.5.3,0,.3.4.5.8.3Z"/>
  <path class="st0" d="M98,60.4c0-.1-.3-.4-.4-.3-.2,0-.4.3-.4.5,0,.1.3.3.5.3.2,0,.3-.3.3-.5Z"/>
  <path class="st0" d="M138.8,60.8c-.1,0-.2.3-.2.4,0,.1.2.4.3.4.2,0,.4-.3.4-.5,0-.2-.3-.4-.5-.3Z"/>
  <path class="st0" d="M53.2,51.5c0,0,0,.3.2.4,0,0,.4,0,.5,0,.2-.1.3-.3.3-.4,0-.1-.4-.3-.5-.3-.2,0-.4.2-.4.4Z"/>
  <path class="st0" d="M71.2,44.5c.2,0,.6-.1.6-.3,0-.1-.1-.4-.3-.4-.2,0-.5.2-.5.3,0,.1.1.4.2.4Z"/>
  <path class="st0" d="M35,69.5c.1,0,.5.1.5,0,0-.1.1-.5,0-.6,0-.1-.5-.1-.6,0-.1.2-.2.6,0,.6Z"/>
  <path class="st0" d="M115.7,53.6c0-.1.3-.5.1-.6l-.6-.2v.6c0,.1.4.3.5.2Z"/>
  <path class="st0" d="M100.2,16.4c.1,0,.3-.3.3-.4,0-.1-.2-.4-.4-.4-.2,0-.5.4-.4.5,0,.1.3.3.5.4Z"/>
  <path class="st0" d="M62,68.7c-.2.1-.3.6-.2.6.1,0,.4.1.6.1.2,0,.2-.5.1-.6,0-.1-.4-.2-.6-.2Z"/>
  <path class="st0" d="M123.4,38.8c.1,0,.2-.4.2-.5,0-.1-.5-.2-.6-.1-.2.2-.2.5,0,.5.2,0,.4.2.5.1Z"/>
  <path class="st0" d="M21,95.6c0-.1,0-.4,0-.6,0-.1-.5-.1-.5,0-.1.1-.2.5,0,.6.1,0,.5.1.5,0Z"/>
  <path class="st0" d="M133.5,44.4c0-.1-.3-.2-.5-.2-.2,0-.1.5-.1.6,0,.1.4.2.5.2.1,0,.1-.5,0-.6Z"/>
  <path class="st0" d="M45.1,91.7c0,.1.5.2.6,0,0-.1.1-.4,0-.6,0-.1-.4-.1-.5,0-.1,0-.2.4,0,.6Z"/>
  <path class="st0" d="M93,77.3l.2.4.2.5.3-.9c0,0-.3-.2-.4-.3-.1,0-.4.2-.3.3Z"/>
  <path class="st0" d="M30.2,109.5c.1,0,.5.2.5,0v-.6c0-.1-.5-.1-.5,0,0,.2,0,.5,0,.6Z"/>
  <path class="st0" d="M34.3,58.2c.1,0,.3-.4.2-.5s-.4-.3-.5-.3c-.1,0-.4.5-.3.6.1,0,.4.2.6.2Z"/>
  <path class="st0" d="M99.5,57c0-.1-.2-.3-.3-.3-.1,0-.3.1-.4.2l-.5.2.9.2c.1,0,.4-.3.3-.4Z"/>
  <path class="st0" d="M89.2,50.4c0,.1.4.2.6.2.1,0,.2-.4.2-.6,0-.1-.3-.2-.5-.2-.1,0-.3.4-.3.5Z"/>
  <path class="st0" d="M57.9,52c-.1,0-.5-.1-.6,0-.1,0-.2.5,0,.6s.5.1.6,0c.1-.1.2-.5.1-.6Z"/>
  <path class="st0" d="M72.1,56.7c-.1,0-.4,0-.6,0-.1,0-.2.5,0,.6.1,0,.4.1.6,0s.2-.5,0-.6Z"/>
  <path class="st0" d="M73.9,53.8c-.2,0-.4.5-.3.6,0,0,.4.3.5.2.1,0,.3-.3.3-.5,0-.1-.3-.4-.5-.3Z"/>
  <path class="st0" d="M105.3,41.6c-.1,0-.2.5,0,.6.1,0,.4.2.6,0,.1,0,.1-.5,0-.6,0-.1-.4-.1-.6,0Z"/>
  <path class="st0" d="M34.7,84.3c.2.1.5.2.6,0,.1-.2.2-.5,0-.6,0,0-.5-.1-.6,0-.1.2-.2.5,0,.6Z"/>
  <path class="st0" d="M109.2,45.7c0,0-.5-.1-.6,0-.1.1-.1.6,0,.6.1,0,.4,0,.5,0,.1,0,.1-.4,0-.6Z"/>
  <path class="st0" d="M57.3,68.3c.1,0,.4,0,.5,0,.1-.1.2-.4.1-.6,0-.1-.5-.2-.6-.1-.1.1-.2.6,0,.7Z"/>
  <path class="st0" d="M77.1,84.6l-.4-.5-.2.7c0,.1.1.4.2.4.1,0,.3,0,.4-.1,0,0,0-.3,0-.4Z"/>
  <path class="st0" d="M13.8,110.8v-.7c-.2-.1-.6-.1-.7,0,0,.2,0,.5.2.6.1,0,.3.1.5.2Z"/>
  <path class="st0" d="M48.4,26l-.4.3c.2.3.6.4.8.3l.6-.4-1-.2Z"/>
  <path class="st0" d="M119.6,25.9h0c0,.2.3.6.5.7.1,0,.4-.2.5-.3-.4-.3-.6-.5-.9-.5h0s0-.4,0-.4c0,0-.2-.2-.3-.2-.2,0-.6.1-.9.1l1.1.5Z"/>
  <path class="st0" d="M49.3,16.5h.8c0,0,.4.1.3,0v-.3c0-.1-.6.2-.7,0l-.2-.3c0,0-.4.1-.3.2v.3Z"/>
  <path class="st0" d="M50.6,92.4c.1,0,.5.2.5,0,.1-.1.1-.5,0-.6,0-.1-.5-.1-.6,0-.1,0-.2.5,0,.6Z"/>
  <path class="st0" d="M25.6,107.4c-.1.1,0,.5,0,.6.1,0,.4.2.5,0,0-.1,0-.4,0-.6,0-.1-.5-.1-.6,0Z"/>
  <polygon class="st0" points="71.9 78.7 75.7 78.7 75.6 78.6 71.9 78.6 71.9 78.7"/>
  <path class="st0" d="M22.1,111.3c0,.2.6.3.6.1,0-.3,0-.6-.1-.6-.1,0-.4,0-.5.1,0,0,0,.3,0,.4Z"/>
  <path class="st0" d="M15.3,95.3v-.9c-.1,0-.5.8-.5.8.2.4.3.7.4,1.1v-1Z"/>
  <path class="st0" d="M51,76.9c-.1.2,0,.6,0,.7.1,0,.5,0,.6,0,0-.1,0-.5,0-.6,0-.1-.6-.1-.6,0Z"/>
  <path class="st0" d="M7.1,90.6v1.7s.1,1.9.1,1.9c0-.7,0-1.4,0-2.2v-1.4Z"/>
  <path class="st0" d="M111.4,39.5h-.5c-.1,0-.2.3-.2.4,0,.1.5.2.7.2.1,0,.2-.5,0-.6Z"/>
  <path class="st0" d="M40,96.2c.1,0,.2-.4.1-.6,0-.1-.3-.2-.4-.2-.1,0-.3.4-.2.5,0,.1.4.2.6.2Z"/>
  <path class="st0" d="M12.1,38.4l.2-.6h-.7c0,0-.1.4,0,.5s.5.3.5.1Z"/>
  <path class="st0" d="M41.1,76.6c.1-.1.2-.5,0-.6,0-.1-.5-.2-.6,0-.1.1-.2.5-.1.6.1,0,.5.2.6,0Z"/>
  <path class="st0" d="M52.4,39.8c0,0-.2.3-.2.5.2.3.9.2.9-.3,0-.2-.6-.3-.7-.2Z"/>
  <path class="st0" d="M12.6,105.8v-.7c-.1-.1-.5,0-.6,0-.1,0,0,.5,0,.6.1.1.4.2.5.2Z"/>
  <path class="st0" d="M26.3,112.5c0,.1,0,.5,0,.6.1,0,.4.1.5,0,0-.1,0-.4,0-.6,0-.1-.5-.1-.5,0Z"/>
  <path class="st0" d="M111.9,50.6c-.1.1-.2.4,0,.5.1,0,.5.2.5,0,0-.1,0-.5,0-.6,0-.1-.5-.1-.5,0Z"/>
  <path class="st0" d="M51.5,86.6c0-.1-.4-.1-.6,0-.1,0-.2.5-.1.6.1.1.4.1.6,0s.2-.4.1-.6Z"/>
  <path class="st0" d="M44.9,97.1h.7s0-.5,0-.5c0-.1-.4-.2-.5-.1-.1,0-.2.4-.2.7Z"/>
  <path class="st0" d="M43.5,56.4c.1,0,.2-.4.2-.5,0-.1-.5-.3-.6-.2-.2.2-.3.5-.2.6.2,0,.5.2.6.1Z"/>
  <path class="st0" d="M99.8,28.3l-.3.6,1.4-.4c-.6-.2-.6-.2-1.1-.2Z"/>
  <path class="st0" d="M12.6,113.5v-.6c0-.1-.2-.3-.4-.3-.3.2-.2.8.4.9Z"/>
  <path class="st0" d="M57,76.4c.1-.1.1-.4,0-.6,0-.1-.4-.1-.6,0-.2,0-.2.5-.1.6,0,.1.5.2.6,0Z"/>
  <path class="st0" d="M73.9,81.9c0-.2,0-.4,0-.5,0,0-.6,0-.6,0,0,.2,0,.6.2.6.1,0,.4,0,.4-.1Z"/>
  <path class="st0" d="M42.8,89.8v-1.1c0,.3-.2.7-.2.9v2.8s.1-.2.1-.2v-2.5Z"/>
  <path class="st0" d="M29.6,139.4c0,0-.1,0-.1.1,0,0,.1.2.2.3l1.5.9-1.3-1.2s-.2-.1-.2-.2Z"/>
  <path class="st0" d="M71,41.4c0,.1.4.3.6.2.1,0,.2-.3.2-.5,0-.1-.3-.2-.5-.2-.2,0-.3.3-.3.5Z"/>
  <path class="st0" d="M15.3,115.5l-.2-.8c0-.1-.4-.1-.5,0,0,.4.3.8.7.9Z"/>
  <path class="st0" d="M78.6,53.5c-.2,0-.3.5-.2.6.1.1.4.2.5.1.1,0,.3-.3.2-.5,0-.1-.4-.3-.5-.2Z"/>
  <path class="st0" d="M62.4,104c0,.1,0,.5,0,.6.1,0,.5,0,.5,0v-.6c0-.1-.5,0-.5,0Z"/>
  <path class="st0" d="M95.4,54.8h.5c.1.1.2-.2.2-.4,0-.1-.3-.2-.5-.2-.1,0-.3.5-.1.6Z"/>
  <path class="st0" d="M74.8,40.7c-.2,0-.3,0-.4.2,0,0,0,.4,0,.4,0,0,.3,0,.4,0,.1,0,.4-.3.3-.4,0-.1-.3-.3-.4-.3Z"/>
  <path class="st0" d="M58,41.1c0,.1.4.3.6.2.1,0,.3-.4.3-.5,0,0-.3-.2-.5-.2-.2,0-.4.3-.4.4Z"/>
  <path class="st0" d="M57.6,58.2c0-.1-.5-.4-.6-.2-.1.1-.2.4-.1.6,0,.1.4.3.5.3.2,0,.3-.4.2-.6Z"/>
  <path class="st0" d="M9.1,42.8c.2-.1.4-.2.4-.4,0-.1,0-.3,0-.5-.3-.1-.6,0-.7.3l.3.4c0,.1,0,.2,0,.2Z"/>
  <path class="st0" d="M120.4,27.8c.1,0,.4.2.6.3v-.8s-.5-.1-.5-.1c0,.3-.2.6,0,.7Z"/>
  <path class="st0" d="M43.6,27.4c.2,0,.5.2.7.2.2,0,.4-.3.5-.4l-.8-.2c-.1,0-.3.2-.4.4Z"/>
  <path class="st0" d="M44.9,51.7c.2,0,.5,0,.6,0,.1-.1.1-.5,0-.5-.1,0-.5,0-.6,0-.1.1-.2.5,0,.6Z"/>
  <path class="st0" d="M21.2,100.3c-.1,0-.5,0-.5.2,0,.2,0,.4.2.5,0,0,.5,0,.5-.2,0-.2,0-.5-.2-.6Z"/>
  <path class="st0" d="M120.6,29.2c.1.2.5.3.7,0l-.4-.9c-.3.3-.4.6-.3.8Z"/>
  <path class="st0" d="M97.2,51.9c.1,0,.2-.3.2-.5,0-.1-.4-.3-.5-.2-.2.2-.3.5-.2.6.2.1.4.2.5.1Z"/>
  <path class="st0" d="M85.9,42.5c0,0,.3.3.4.3.2,0,.5,0,.5-.2v-.4c-.1,0-.5,0-.5,0,0,0-.3.3-.3.4Z"/>
  <path class="st0" d="M96.8,26.1v.5s1.2-.5,1.2-.5c-.4-.2-.9-.2-1.2,0Z"/>
  <path class="st0" d="M85,50.5c-.1,0-.2.5-.1.6.1.1.4.1.6,0,.1,0,.2-.4,0-.5s-.4-.2-.5-.1Z"/>
  <path class="st0" d="M25.5,77.1c0-.1-.3-.2-.5-.1-.1,0-.2.6,0,.7.1,0,.3,0,.5,0,.2,0,.2-.5.1-.6Z"/>
  <path class="st0" d="M15.5,75.9c.1,0,.4.1.5,0,0-.1.1-.4,0-.5,0-.1-.4-.2-.5-.1-.2.2-.2.6,0,.7Z"/>
  <path class="st0" d="M78.5,75.6h.6c.1,0,.2-.4.1-.5,0-.1-.3-.2-.5-.1-.2,0-.3.6-.2.6Z"/>
  <path class="st0" d="M17.3,99.3c.3-.2.2-.8-.1-.8-.2,0-.4.3-.4.5,0,.1.4.4.5.3Z"/>
  <path class="st0" d="M29.6,73c0,.1,0,.6,0,.6.1,0,.4.1.5,0,0-.2.1-.5,0-.6,0-.1-.6-.1-.6,0Z"/>
  <path class="st0" d="M138.3,54.4c-.3.2,0,.8.2.8.2,0,.3-.4.2-.6,0-.1-.3-.2-.4-.2Z"/>
  <path class="st0" d="M32.7,62.5c0-.1-.5-.2-.6,0-.1.2-.2.6,0,.6.1,0,.5.1.5,0,0-.1.1-.5,0-.6Z"/>
  <path class="st0" d="M56.4,98.7c.1,0,.4,0,.4-.1,0-.1,0-.4,0-.5,0,0-.5,0-.6,0-.1.2,0,.6.2.6Z"/>
  <path class="st0" d="M93.7,49.2c-.1,0-.3.2-.3.3,0,0,.2.3.3.4.1,0,.5,0,.5,0,0-.1,0-.4,0-.5,0,0-.4-.1-.5-.1Z"/>
  <path class="st0" d="M37.2,86.9c0,0,0,.4,0,.5l.2,1.4.2-1.4c0-.2,0-.4,0-.5,0,0-.3,0-.4,0Z"/>
  <path class="st0" d="M45.8,24l.4.4h-.1c0,.1,0,.3,0,.2h.3c0-.1.2-.3.2-.3h.4c-.3-.3-.7-.5-1.2-.4Z"/>
  <path class="st0" d="M92.1,70.8c-.2.1-.3.5-.1.6.2.1.3.2.4.1.2-.1.4-.4.3-.5,0,0-.5-.2-.6-.2Z"/>
  <path class="st0" d="M118.9,35.2c.2,0,0-.6-.2-.7-.1,0-.5,0-.5.3,0,.3.4.5.7.4Z"/>
  <path class="st0" d="M51,98.1c.1,0,.2-.3.2-.5,0-.1-.2-.2-.5-.2-.2,0-.3.5-.2.6,0,0,.4.1.5.1Z"/>
  <path class="st0" d="M25.3,97.2c0-.2,0-.7-.2-.7-.1,0-.5,0-.5.2,0,.2,0,.5.1.6,0,.1.5,0,.5,0Z"/>
  <path class="st0" d="M62,62.8c0,.2,0,.6.1.6.2,0,.5,0,.5-.2,0-.1,0-.4,0-.5,0-.1-.6,0-.7,0Z"/>
  <path class="st0" d="M98.3,48.6c0-.1-.3-.2-.5-.1-.1,0-.4.4-.2.5.1.1.4.2.6.2.1,0,.2-.4.2-.6Z"/>
  <path class="st0" d="M108.1,40.9c0,0,.2.2.3.3.1,0,.5,0,.5-.1l-.2-.5c0,0-.3,0-.4,0,0,0-.3.3-.2.3Z"/>
  <path class="st0" d="M27.4,117.5c0,.1,0,.5.1.6,0,0,.4,0,.4,0,0-.2,0-.6,0-.6-.1,0-.4,0-.5,0Z"/>
  <path class="st0" d="M48.4,35.7c-.1,0-.3.3-.3.4.2.4.9.2.9-.2,0-.2-.5-.3-.6-.2Z"/>
  <path class="st0" d="M98.8,36.5c.3,0,.6-.2.5-.3,0-.1-.3-.3-.4-.3-.2,0-.4.2-.5.3,0,.1.2.3.4.3Z"/>
  <path class="st0" d="M50.3,22.7l-.7-.7-.5.3c.4.3.8.5,1.2.4Z"/>
  <path class="st0" d="M72.5,68.7c-.2,0-.3.4-.2.5,0,.2.4.3.6.2.1,0,.2-.5.2-.6,0-.1-.4-.2-.5-.2Z"/>
  <path class="st0" d="M71.3,19.2c-.1,0-.3.4-.2.5,0,.1.4.3.5.2.1,0,.2-.4.2-.6,0-.1-.3-.2-.5-.2Z"/>
  <path class="st0" d="M132.2,37.2l-.5-.2-.6-.5v.2s1.1,1.1,1.1,1.1c.1,0,.1-.6,0-.6Z"/>
  <path class="st0" d="M81.5,39.9c-.1,0-.5.2-.5.3,0,.2.2.4.6.4.1,0,.4-.4.3-.5,0,0-.3-.2-.4-.2Z"/>
  <path class="st0" d="M25.1,114.8c0,0,0-.2,0-.3l-.4-1.5v1.4c0,0-.2.4,0,.4s.3,0,.4,0Z"/>
  <path class="st0" d="M137.2,56.8l.3.2c0,0,.3-.2.3-.2,0-.2,0-.5-.2-.6-.1,0-.4,0-.4.1,0,0,0,.4,0,.4Z"/>
  <path class="st0" d="M105.3,46.7c-.1,0-.2.5-.1.6.1.1.4.1.6,0,.1,0,0-.4,0-.5,0-.1-.3-.2-.5-.1Z"/>
  <path class="st0" d="M47.5,46.7c-.1,0-.3.4-.3.5,0,.1.4.2.5.2.1,0,.3-.4.2-.5,0-.1-.3-.2-.5-.2Z"/>
  <path class="st0" d="M52.2,17.7c.1,0,.3-.4.2-.5,0-.1-.4-.2-.5-.2-.2,0-.3.4-.3.5,0,.1.4.3.5.2Z"/>
  <path class="st0" d="M23,65.6c.1,0,.3.1.5,0,.1,0,.2-.5.2-.6,0-.1-.4-.2-.5-.1-.1,0-.2.6,0,.6Z"/>
  <polygon class="st0" points="15.2 111.7 14.5 109.4 14.3 109.4 15.1 112 15.2 111.7"/>
  <path class="st0" d="M62.5,93.7c.2,0,.3-.4.3-.5,0-.1-.2-.3-.5-.3-.2,0-.3.5-.2.6,0,.1.3.2.4.2Z"/>
  <path class="st0" d="M71.9,39.1c0-.2-.3-.3-.5-.3-.1,0-.3.3-.3.4,0,.1.2.3.4.3.1,0,.4-.3.4-.4Z"/>
  <path class="st0" d="M91.9,45.7c.2,0,.4-.3.3-.5,0-.1-.3-.3-.4-.3-.2,0-.4.3-.4.4,0,.2.3.3.4.3Z"/>
  <path class="st0" d="M10.6,108.1c0,.3.2.8.7.6l-.2-.8c0-.1-.5,0-.5.1Z"/>
  <path class="st0" d="M95.3,44.8c.2,0,.6.1.6,0,0-.1,0-.4,0-.6,0,0-.5,0-.6,0-.1.1-.1.5,0,.5Z"/>
  <path class="st0" d="M112.2,44.5c0,0-.3,0-.4,0v.4c-.2,0,0,.3.2.3.1,0,.4-.1.4-.2,0-.2-.1-.5-.2-.6Z"/>
  <path class="st0" d="M35,79.1c-.1,0-.2.5-.1.6,0,.1.4.2.6,0,.1,0,.2-.4.1-.6,0-.1-.4-.2-.6-.2Z"/>
  <path class="st0" d="M87.9,39.5c.1,0,.4-.2.4-.3,0-.1-.4-.3-.5-.3-.1,0-.4.2-.4.3,0,.1.4.3.5.3Z"/>
  <path class="st0" d="M129.5,35.1l.5.5v-1.1c-.1,0-.3-.3-.3-.3,0,0-.3,0-.3,0v.4c.1,0,.2.2.2.2l-.2.2Z"/>
  <path class="st0" d="M66.1,39.1c0-.1-.3-.2-.5-.2-.1,0-.4.2-.4.4,0,.2.2.4.5.3.2,0,.4-.3.4-.5Z"/>
  <path class="st0" d="M15.5,107.1c0,0-.3,0-.4,0-.2,0-.2.5,0,.6l.5.2v-.7Z"/>
  <path class="st0" d="M4.9,81.7l.2,2.3v-2c.1,0,.1-.5.1-.5,0,0-.3,0-.3.2Z"/>
  <path class="st0" d="M74.7,65.9c.1.1.3.3.5.3.1,0,.4-.4.3-.5l-.4-.4c-.2.2-.5.5-.4.6Z"/>
  <path class="st0" d="M16.6,93.6c.1,0,.4.1.5.1.1,0,.2-.4.2-.5,0-.1-.3-.2-.5-.2-.1,0-.3.5-.2.6Z"/>
  <path class="st0" d="M5.4,100.9c0,.4,0,.7.4.8v-1.4c-.3.1-.4.4-.4.6Z"/>
  <path class="st0" d="M18.7,109.7c0,0,.3-.1.3-.2,0-.3-.1-.6-.2-.5h-.4c0,0,0,.3,0,.4,0,.1.2.3.3.3Z"/>
  <path class="st0" d="M74.1,38.8c0,0,0,.4,0,.4h.5c0,0,.2-.3.2-.4,0,0-.2-.2-.3-.2-.2,0-.5,0-.5.2Z"/>
  <path class="st0" d="M80.5,51.6c.2,0,.5,0,.5-.1,0-.1,0-.4,0-.5-.1,0-.6,0-.6.1,0,.1,0,.5.2.5Z"/>
  <path class="st0" d="M40.7,28.7l-.3.2.4.3c0,0,.4-.2.6-.3l-.8-.5c-.2,0-.3.2,0,.1.1,0,.2.1.1.2Z"/>
  <path class="st0" d="M51.7,58.4c.2.1.6-.1.6-.3,0-.2-.2-.5-.3-.5-.4,0-.6.6-.3.8Z"/>
  <path class="st0" d="M83.8,46.2c-.1,0-.3.2-.3.3,0,.1.2.3.3.4.5,0,.6-.3.5-.5,0-.1-.3-.2-.5-.2Z"/>
  <path class="st0" d="M60.1,39.1c.2,0,.4-.3.3-.5-.2-.3-.8-.2-.8.1,0,.2.3.4.5.4Z"/>
  <path class="st0" d="M104.2,27c-.1,0,0,.5.2.5s.4,0,.5-.2c0-.2,0-.3,0-.4l.3-.2-1.1.3Z"/>
  <path class="st0" d="M90.2,41.7c0-.1-.4-.2-.5-.2-.1,0-.3.3-.3.4,0,0,.2.3.3.3,0,0,.5,0,.5-.1v-.4Z"/>
  <path class="st0" d="M40.7,27.1v.3c.1,0,.4-.8.4-.8h-.8s0,.4,0,.4c.1,0,.4,0,.4.2Z"/>
  <path class="st0" d="M67.2,44.6c0,0,.5,0,.6,0,.1,0,.1-.6,0-.6h-.5c-.1,0-.1.4,0,.6Z"/>
  <path class="st0" d="M76.4,79c.1,0,.3-.3.3-.5,0-.1-.3-.4-.4-.3-.2,0-.4.4-.3.5.1.1.3.3.5.3Z"/>
  <path class="st0" d="M34.4,100.2c.1,0,.5.2.5,0v-.6c0-.1-.5-.1-.5,0,0,.2,0,.5,0,.6Z"/>
  <path class="st0" d="M101.7,38.6c0,.1.2.3.4.3.1,0,.4-.1.4-.2,0-.1,0-.3-.2-.4-.3-.1-.6,0-.7.3Z"/>
  <path class="st0" d="M142.5,62.3l-.2-.8c-.4.2-.5.3-.4.7,0,.1.4.2.6.2Z"/>
  <path class="st0" d="M62.3,52.3h-.6c-.1.2-.2.6,0,.6.2,0,.4,0,.6,0,.1,0,.2-.6,0-.6Z"/>
  <path class="st0" d="M20.8,84.4c0,.2.3.5.4.4.3-.1.3-.7.1-.8-.3-.1-.5.2-.5.4Z"/>
  <path class="st0" d="M16.3,111.9c-.1,0-.1.5,0,.6,0,.1.5.1.6,0v-.6c-.1,0-.5,0-.5,0Z"/>
  <path class="st0" d="M57,38.4c0,.2.4.4.5.3.1,0,.3-.3.3-.4-.1-.3-.8-.3-.8.1Z"/>
  <path class="st0" d="M98,30.6c.2,0,.6,0,.8,0l1-.3h-1.2c0,0-.6.4-.6.4Z"/>
  <path class="st0" d="M120.9,30.3c-.2,0-.4.4-.2.5.1,0,.3.1.7.2,0-.4-.1-.7-.4-.7Z"/>
  <path class="st0" d="M64.5,41.7h.6c.1,0,.2-.4.1-.5,0,0-.2-.2-.3-.2-.2,0-.4,0-.5.2,0,.1,0,.4,0,.4Z"/>
  <path class="st0" d="M141,58.2c.2-.6.2-1.2-.1-1.7v.7c-.1.3-.3.7.1,1Z"/>
  <polygon class="st0" points="100.6 18.8 101.4 18.6 101 19.2 101.8 19.1 101.5 18.4 100.5 18.7 100.6 18.8"/>
  <path class="st0" d="M34.5,74.8l.4.2c.1,0,.3-.3.4-.4,0-.1-.1-.5-.2-.5,0,0-.3,0-.4.1,0,0-.3.4-.1.5Z"/>
  <path class="st0" d="M21.4,105.8c-.1,0-.2.5,0,.6,0,.1.4.2.5.1s.1-.4.1-.6c0-.1-.4-.2-.6,0Z"/>
  <path class="st0" d="M83.7,37.6c0,0-.2,0-.3,0l-.4.2c0,0,0,.4,0,.4h.4c0,0,.3,0,.4-.2,0,0,0-.3-.1-.3Z"/>
  <path class="st0" d="M105.1,37.7c0-.2-.3-.4-.4-.4-.1,0-.4.2-.5.3,0,.2.3.4.5.4.1,0,.4-.2.4-.3Z"/>
  <path class="st0" d="M136.1,49.3c-.2,0-.3.5-.2.6,0,.1.5.1.6,0,.1-.3-.1-.7-.4-.6Z"/>
  <path class="st0" d="M68.7,54.7c.2.1.4.3.6.2.1,0,.2-.4.2-.6,0-.1-.3-.2-.4-.2-.2,0-.4.4-.3.5Z"/>
  <path class="st0" d="M78.8,31.5c-.2,0-.6.4-.4.6.1.1.6.2.6.1,0-.1.1-.3.1-.5,0,0-.2-.2-.3-.2Z"/>
  <path class="st0" d="M121,44c0-.1-.5-.2-.5,0,0,0,0,.4.1.5l.6.4-.2-.8Z"/>
  <path class="st0" d="M13.3,86c0,.2,0,.4.2.5.1,0,.5,0,.5-.2,0-.4-.2-.6-.4-.6-.1,0-.3.2-.3.3Z"/>
  <path class="st0" d="M11.5,100c-.3-.2-.6.2-.5.5,0,.1.3.3.5.3v-.8Z"/>
  <path class="st0" d="M21.1,90c0-.2.1-.4.1-.5,0-.1-.5-.2-.6,0-.1.1-.2.5,0,.6,0,.1.5.2.5,0Z"/>
  <path class="st0" d="M99.1,20v-.6c-.1,0-.5,0-.7.2l.2.5c0,.1.6,0,.6,0Z"/>
  <path class="st0" d="M62.1,20.2c.1.1.4.2.5.2.1,0,.3-.4.2-.5,0,0-.4-.2-.5-.2-.2,0-.3.4-.2.5Z"/>
  <path class="st0" d="M55.9,40.5c0-.1-.4-.2-.5-.2-.1,0-.2.3-.2.4,0,.1.4.2.6.2.1,0,.3-.3.2-.4Z"/>
  <path class="st0" d="M13.9,102.4c0,.2.6.4.6.3,0-.3,0-.6,0-.7,0,0-.3,0-.4,0,0,0-.1.3-.1.4Z"/>
  <path class="st0" d="M83.4,21.8l.2-.3s.1,0,.1,0v.3c.1,0,.4.2.5.1,0,0,0-.2,0-.3l-.4-.6-.5.2c-.1,0,0,.4,0,.5Z"/>
  <path class="st0" d="M13.2,72c-.1,0-.3.3-.4.4,0,.2.2.5.4.4.5-.2.3-.8,0-.8Z"/>
  <path class="st0" d="M66.8,62.6c0,.2,0,.6.2.6.2,0,.5,0,.5-.1,0-.2,0-.5,0-.5-.1,0-.6,0-.6,0Z"/>
  <path class="st0" d="M98.8,43.9c.2,0,.4.1.5,0,.1,0,.2-.5,0-.6,0,0-.4-.1-.5,0-.1,0-.2.5,0,.5Z"/>
  <path class="st0" d="M97.5,70.1c-.2,0-.3.5-.2.5.1,0,.4.2.5.1.1-.1.3-.3.2-.4,0-.1-.4-.3-.5-.2Z"/>
  <path class="st0" d="M58.6,24.4c-.2.2-.3.4-.3.5s.2.3.3.3h.4c0-.1.3,0,.3,0l-.7-.8Z"/>
  <path class="st0" d="M117.7,36.2c0-.2-.3-.4-.4-.4-.1,0-.4.2-.4.3,0,.3.8.5.8.1Z"/>
  <polygon class="st0" points="16.3 115.9 17 118 17.2 118 16.4 115.7 16.3 115.9"/>
  <path class="st0" d="M120,34c.2,0,.2-.5,0-.6-.1-.1-.6,0-.6.2,0,.3.4.5.6.4Z"/>
  <path class="st0" d="M43,88l-.2-1.1v1c-.3.2-.4.3-.3.5.1.2.4.2.5,0,0,0,0-.3,0-.5Z"/>
  <path class="st0" d="M67.8,87.4c0,.2,0,.6.1.6.1,0,.5,0,.5-.2,0-.1,0-.4,0-.5,0-.1-.6-.1-.6,0Z"/>
  <path class="st0" d="M21.6,119.2c0-.5-.3-.8-.6-.7-.2,0,0,.6,0,.6.1,0,.5.1.5,0Z"/>
  <path class="st0" d="M107.5,55c-.1,0-.1.4,0,.5.1,0,.4.2.5,0,0-.1.2-.4,0-.5,0,0-.4-.1-.5-.1Z"/>
  <path class="st0" d="M109,35.3c0,0-.3.2-.3.3,0,.1.3.3.4.4.1,0,.4-.2.4-.4,0-.2-.4-.3-.5-.3Z"/>
  <path class="st0" d="M55.8,55.2l-.3-.2c-.1,0-.4,0-.5.2,0,.1,0,.4.1.5,0,0,.4,0,.5-.1,0,0,.2-.4.1-.4Z"/>
  <path class="st0" d="M71.8,15.5c-.1,0-.3.3-.3.4,0,0,.3.2.4.2.1,0,.5,0,.5-.2v-.4c-.1,0-.5,0-.6,0Z"/>
  <path class="st0" d="M75.3,24.3c.1,0,.2-.5,0-.5,0,0-.4-.1-.5,0-.1,0-.2.5,0,.6.1,0,.4.1.5,0Z"/>
  <path class="st0" d="M29.7,104.2c.1,0,.4.1.5,0,.1,0,.1-.4,0-.6,0-.1-.3-.2-.5-.2-.2,0-.3.5-.1.6Z"/>
  <path class="st0" d="M113.7,23c0,.1.1.3.3.4.1,0,.4-.2.5-.4,0-.1-.2-.4-.3-.4-.1,0-.4.2-.4.4Z"/>
  <path class="st0" d="M9.9,103.8c.1-.3-.1-.8-.3-.7-.2,0-.3.4-.2.6.1.2.5.3.6.1Z"/>
  <path class="st0" d="M52.7,37.1c0,0-.3,0-.4,0-.1,0-.3.4-.2.5,0,0,.3.1.5.2.1,0,.4-.2.4-.3,0-.1-.1-.3-.2-.3Z"/>
  <path class="st0" d="M104.7,23.9v-.5c-.1,0-.7-.1-.7-.1l-.2.5c.2.2.7.2.9.1Z"/>
  <path class="st0" d="M73,24.3c.1,0,.4,0,.5-.1,0-.1,0-.4,0-.5,0,0-.6,0-.6,0,0,.2,0,.6.2.6Z"/>
  <path class="st0" d="M100.5,35.4c0,0,.3.2.5.2,0,0,.3-.1.4-.2,0,0,0-.4-.1-.4h-.4c-.1,0-.4.2-.3.3Z"/>
  <path class="st0" d="M75.1,43.5c-.1,0-.3.3-.3.4,0,.1.2.2.4.2.2,0,.4-.3.4-.5,0-.1-.3-.2-.5-.2Z"/>
  <path class="st0" d="M19.6,63.9c.1,0,.5.1.5,0,0-.1,0-.4,0-.5,0-.1-.5-.2-.5-.1-.1.2-.2.6,0,.6Z"/>
  <polygon class="st0" points="124.1 33.9 126 35.2 125.9 35 124.3 33.7 124.1 33.9"/>
  <path class="st0" d="M50.7,103.5c.2,0,.4,0,.6,0,.1,0,.2-.6,0-.6h-.6c0,.2-.1.5,0,.6Z"/>
  <path class="st0" d="M17.3,87.7c0-.1-.2-.2-.5-.2v.7c-.1,0,.5,0,.5,0v-.6Z"/>
  <path class="st0" d="M95.8,24.4s.2.1.3.1c.3,0,.7-.2.8-.6h-1c0,.1,0,.5,0,.5Z"/>
  <path class="st0" d="M60,24.9c0-.3-.1-.5-.2-.6,0,0-.4,0-.4,0,0,.2,0,.5.1.6,0,.1.5,0,.5,0Z"/>
  <path class="st0" d="M22,70.9c0-.2.1-.4.1-.5,0-.1-.5-.2-.6,0,0,.1-.1.5,0,.6,0,.1.5.2.5,0Z"/>
  <path class="st0" d="M93,40.8c-.1,0-.4.3-.3.4,0,0,.3.2.4.2.1,0,.5-.1.5-.2v-.3c-.2,0-.5,0-.6,0Z"/>
  <path class="st0" d="M64.6,60.3c.1,0,.4-.3.4-.4,0-.2-.3-.4-.4-.4-.1,0-.4.3-.3.4l.4.4Z"/>
  <path class="st0" d="M92.2,21.9l-.3-.4-.8.3.7.4c0,0,.5-.1.5-.2Z"/>
  <path class="st0" d="M56.3,44.1c0,.2.2.4.5.3.1,0,.4-.4.3-.5,0,0-.2-.1-.4-.2-.1,0-.4.2-.4.3Z"/>
  <path class="st0" d="M104.6,56l2.6-.6c-1,0-1.8.2-2.6.6Z"/>
  <path class="st0" d="M75.9,20.3c0,.2.4.3.6.2.2,0,.3-.4.2-.5-.4-.2-.8,0-.7.3Z"/>
  <path class="st0" d="M91.3,64.7c0-.1-.3-.4-.4-.5l-.3.4c0,.1.2.3.4.5l.3-.5Z"/>
  <path class="st0" d="M53.7,43.5l-.3-.2c-.1,0-.4,0-.4.2,0,.1,0,.4,0,.4,0,0,.3,0,.5,0,.1,0,.3-.4.2-.5Z"/>
  <path class="st0" d="M115.7,37.1c-.2,0-.4,0-.6.2,0,.4.5.5.8.4.1,0,0-.6-.1-.6Z"/>
  <path class="st0" d="M24.9,86.1c0,.1.4.3.5.2.1,0,.2-.4.2-.5,0-.1-.3-.2-.4-.2-.1,0-.3.4-.3.5Z"/>
  <polygon class="st0" points="85.4 65.2 85.8 65.7 86.2 65.1 85.7 64.7 85.4 65.2"/>
  <polygon class="st0" points="57.4 90.1 56.4 89.9 54.5 89.8 56 90.1 57.4 90.1"/>
  <path class="st0" d="M57.3,25.3c.1,0,.4-.1.5-.3,0-.1-.3-.5-.4-.4-.2,0-.3.2-.4.3,0,0,.2.3.3.4Z"/>
  <path class="st0" d="M83.4,90.2c0-.1-.4-.4-.5-.3-.1.1-.3.4-.2.4l.3.3c.1.1.4-.3.3-.5Z"/>
  <path class="st0" d="M90,18.7c0-.1,0-.5,0-.6-.3.1-.6.4-.7.6.5.2.7.2.8,0Z"/>
  <path class="st0" d="M75.7,47c-.1,0-.3.1-.4.3,0,0,0,.5.2.4h.6c0-.4-.1-.7-.3-.7Z"/>
  <path class="st0" d="M76.7,31.4c0,.1.4.2.5.2.1,0,.3-.3.2-.5,0-.1-.4-.3-.5-.2-.1,0-.3.4-.3.5Z"/>
  <path class="st0" d="M83.9,53.4c0-.1-.4-.3-.5-.2-.2.1-.3.5-.2.5.2,0,.4.2.5.1.1,0,.2-.3.2-.5Z"/>
  <path class="st0" d="M75.9,31.2v-.4c0,0-.2,0-.3,0-.1,0-.2-.1-.2,0l-.3.3v-.3c0,0-.2,0-.3,0v.4c0,0,.7,0,.7,0,0,0,.3,0,.4,0Z"/>
  <path class="st0" d="M115.3,25.7c0,.1.3.4.4.3l.5-.6-.9-.2.2.2s-.1.2-.2.2Z"/>
  <path class="st0" d="M93,25.6v.2c.2,0,.1.2,0,.3l1-.4c0,0,0-.2,0-.2h-.3s-.9,0-.9,0Z"/>
  <path class="st0" d="M54.8,37.6c-.1,0-.4.3-.4.4,0,.1.3.3.5.3s.4-.2.4-.3c0-.2-.4-.4-.5-.3Z"/>
  <path class="st0" d="M84.2,39.8c0,.2.3.4.5.3.2,0,.4-.3.3-.5-.2-.3-.8-.2-.8.2Z"/>
  <path class="st0" d="M60.2,38.1l-.9-.3c-.1.6-.3.7-.7,1.2.5,0,.5-.8,1.6-.8Z"/>
  <path class="st0" d="M79.4,43.3c0-.1-.3-.2-.5-.2,0,0-.3.2-.3.3,0,0,.2.4.3.4.3,0,.5-.3.4-.5Z"/>
  <path class="st0" d="M61.6,57.8c.1,0,.5,0,.6,0,0-.1,0-.4,0-.6,0-.1-.4-.1-.6,0-.1,0-.1.6,0,.6Z"/>
  <path class="st0" d="M89.3,26.4l.8-.5h-.9c0,0-.3.2-.4.3,0,0,.4.3.4.3Z"/>
  <path class="st0" d="M7,50.5l-.6.3c.1.2.4.6.6.5.2-.2.2-.6,0-.8Z"/>
  <path class="st0" d="M108.7,26.4c0,.1.5,0,.6,0,.1,0,0-.5,0-.5h-.6s0,.4,0,.5Z"/>
  <path class="st0" d="M67.8,41.1c-.1,0-.2.5,0,.6.1,0,.4,0,.6,0,.1,0,.1-.4,0-.5,0-.1-.4-.1-.6,0Z"/>
  <path class="st0" d="M97.1,17.9c0,0,.4,0,.4,0v-.4c0-.1-.2-.5-.3-.4l-.3.2c0,0,0,.3,0,.3v.3Z"/>
  <path class="st0" d="M89.7,58.8c.1-.1.2-.3.2-.5,0-.1-.4-.3-.5-.3-.2.1-.3.4-.2.5,0,0,.4.3.5.2Z"/>
  <path class="st0" d="M82.3,43.1c0,.1.4.2.5.2.1,0,.3-.3.3-.4,0,0-.3-.2-.5-.2-.1,0-.4.3-.3.5Z"/>
  <path class="st0" d="M60.3,44.7c.1,0,.3-.4.2-.5,0-.1-.3-.2-.5-.2-.1,0-.3.4-.2.5,0,.1.4.2.5.2Z"/>
  <path class="st0" d="M71.1,52.2c.1,0,.3,0,.5,0,.1,0,.2-.3.2-.5,0-.1-.3-.2-.5-.2-.1,0-.3.5-.2.6Z"/>
  <polygon class="st0" points="10.4 108.8 9.6 106.3 9.5 106.5 10.2 108.8 10.4 108.8"/>
  <path class="st0" d="M79.3,29.6c.1,0,.4.1.5.1.1,0,.3-.4.2-.5,0,0-.4-.2-.5-.2-.2,0-.3.5-.2.6Z"/>
  <path class="st0" d="M100.4,27s0,.1,0,.1v.2c.2,0,.4,0,.5,0v-.2c.4,0,.5,0,.5-.2,0,0,0-.2,0-.2h-.3c0,0-.3,0-.3,0v.3c0,0-.2,0-.2,0Z"/>
  <path class="st0" d="M27.2,67c.1-.1.2-.4.1-.5,0-.1-.4-.1-.5,0-.1,0-.2.5-.1.6.1,0,.4.2.5,0Z"/>
  <polygon class="st0" points="10.1 110.1 9.7 111 10.5 111.1 10.1 110.1"/>
  <path class="st0" d="M119,38.3h-.5c0,.1,0,.4,0,.5l.8.5c-.2-.4-.3-.6-.4-1Z"/>
  <path class="st0" d="M63.9,44.1c-.2,0-.4.2-.5.3,0,.1.2.4.4.4.3,0,.5-.3.5-.4,0-.1-.3-.4-.4-.3Z"/>
  <path class="st0" d="M29.9,93.4c.1,0,.1-.3.1-.5,0-.1-.3-.2-.5-.2-.2,0-.3.5-.2.6,0,.1.4.1.5,0Z"/>
  <path class="st0" d="M58.1,16.8c0,0,.2,0,.3,0,0,0,0-.4,0-.5l-.4-.4-.2.5c0,.1.1.4.2.4Z"/>
  <path class="st0" d="M21.7,78.8c0,.2,0,.6.1.6.1,0,.5,0,.5,0v-.6c0-.1-.5-.1-.6,0Z"/>
  <path class="st0" d="M117.4,42.1c-.1,0-.3.4-.2.5.1,0,.4.2.5.2.1,0,.2-.4.1-.5,0,0-.3-.2-.4-.2Z"/>
  <path class="st0" d="M63.1,39.3c.1,0,.1-.5,0-.5-.2,0-.4,0-.6,0-.1,0-.1.4,0,.5,0,0,.5.1.6,0Z"/>
  <path class="st0" d="M25.4,80.5c-.2.1-.2.5,0,.6.1,0,.5,0,.6,0,.1,0,.1-.4,0-.5s-.4-.2-.6,0Z"/>
  <path class="st0" d="M142,81.1c.1,0,.3-.3.3-.4,0-.1-.2-.4-.3-.4-.3,0-.4.7,0,.8Z"/>
  <path class="st0" d="M68.5,38.9c-.1,0-.4.2-.4.3,0,.2.2.4.5.3.1,0,.4-.4.3-.5,0,0-.2-.2-.4-.2Z"/>
  <path class="st0" d="M14.1,80.3c0,.2,0,.4,0,.5,0,0,.5,0,.5,0,0-.2,0-.7-.2-.7-.1,0-.4.1-.4.2Z"/>
  <path class="st0" d="M34.4,94.8c.2,0,.5,0,.5,0,0-.1.1-.4,0-.5,0-.1-.5-.1-.6,0-.1.1-.2.5,0,.6Z"/>
  <path class="st0" d="M21,28.5l.2-.6c0,0-.3-.3-.4-.3-.2,0-.4.4-.3.5,0,.1.3.3.5.3Z"/>
  <path class="st0" d="M87,72c.1,0,.3-.3.3-.4,0-.1-.3-.3-.5-.3-.1,0-.3.4-.2.5,0,.1.3.3.4.2Z"/>
  <path class="st0" d="M86.8,55.6c0-.1-.3-.2-.5-.1-.2,0-.3.5-.1.6.1,0,.4,0,.5,0,.1,0,.2-.4.2-.5Z"/>
  <path class="st0" d="M7.4,101c-.1,0-.2.5,0,.5l.4.3c.2-.5,0-.9-.3-.8Z"/>
  <path class="st0" d="M12.8,51.9c0-.1.1-.3.1-.5,0-.1-.4-.2-.5-.2-.1,0-.2.4-.1.6,0,.1.4.2.5,0Z"/>
  <path class="st0" d="M30,98.4c0-.1-.3-.2-.5-.1-.2,0-.3.5-.1.6.1,0,.4,0,.5,0,.1,0,.2-.4.1-.5Z"/>
  <path class="st0" d="M72.3,27.6c0,0,.4.2.5,0,.1,0,.2-.4.1-.5,0-.1-.4-.2-.5-.1-.1,0-.2.5,0,.6Z"/>
  <path class="st0" d="M17.8,82.9v-.5c.1-.1-.3-.3-.4-.2-.1.1-.2.5,0,.6,0,0,.5.2.5.1Z"/>
  <path class="st0" d="M142.6,82.2v2.2c.1,0,.2-1.9.2-1.9,0-.1.2-.4.1-.3h-.4Z"/>
  <path class="st0" d="M98,26.8c-.2,0-.8-.2-1.1,0-.1,0,0,.5.1.6l1-.5Z"/>
  <path class="st0" d="M3.5,61.2v-.5c.1-.1-.2-.2-.4-.3v.8s.3.1.4,0Z"/>
  <polygon class="st0" points="6.1 98.2 6.7 100.6 6.8 100.2 6.2 98.2 6.1 98.2"/>
  <path class="st0" d="M9,98.8v-.6c0,0-.2-.3-.3-.2,0,0-.2.2-.2.3-.1.2.2.7.5.6Z"/>
  <path class="st0" d="M13.6,96.6c-.2,0-.3.5-.1.6.1,0,.5.2.5,0v-.6c0,0-.3-.1-.4-.1Z"/>
  <path class="st0" d="M58.8,27.3l.3-.4c0,0-.1-.4-.2-.4h-.7c0,0,.6.8.6.8Z"/>
  <path class="st0" d="M89.6,27c.3,0,.7-.2,1-.5h-1c0,0,0,.5,0,.5Z"/>
  <path class="st0" d="M61,15.9c.1,0,0-.5,0-.5-.1,0-.4,0-.5,0-.1,0,0,.5.1.6.1,0,.3,0,.5,0Z"/>
  <path class="st0" d="M75.7,15.5c-.2-.4-1-.1-.9.2.1.3,1,.1.9-.2Z"/>
  <path class="st0" d="M25.3,60.4c.1,0,.2-.4.2-.5,0-.1-.4-.2-.5-.2-.2.1-.3.5-.2.6.1,0,.4.2.5.2Z"/>
  <path class="st0" d="M11.8,78.7c0-.1.1-.4.2-.5,0-.1-.4-.3-.5-.2-.1.1-.3.4-.2.6,0,0,.4.3.5.2Z"/>
  <path class="st0" d="M28.8,61.7c0-.1.1-.4.2-.5,0-.1-.4-.2-.5-.1-.1,0-.2.5-.1.6,0,.1.4.2.5,0Z"/>
  <path class="st0" d="M44.1,104.9l2.7.5h0c0-.1-2.5-.6-2.5-.6,0,0-.2,0-.3.1Z"/>
  <path class="st0" d="M25.4,72.4c.1,0,.4,0,.4,0,0-.1,0-.4,0-.5,0-.1-.5-.1-.6,0-.1.1,0,.6,0,.6Z"/>
  <path class="st0" d="M48.9,52.3c-.1,0-.3.4-.2.5,0,.1.4.2.5.2.1,0,.3-.4.2-.5,0-.1-.4-.2-.5-.2Z"/>
  <path class="st0" d="M141.4,61.3v-.7c-.7-.2-.2-.9-.7-1.4.1.8.4,1.4.7,2.1Z"/>
  <path class="st0" d="M22,58.8c.1,0,.2-.3.2-.5,0-.1-.3-.2-.5-.2-.1,0-.3.4-.3.5,0,.1.4.2.5.2Z"/>
  <polygon class="st0" points="20.7 125.6 19.7 123.6 19.6 123.7 20.7 125.9 20.7 125.6"/>
  <path class="st0" d="M8.7,105.7c-.2,0-.3.4-.1.5.1.1.4.3.5.3,0-.5,0-.8-.3-.8Z"/>
  <path class="st0" d="M35.9,53.4c.1,0,.4.1.5,0,.1,0,.2-.4.1-.5,0,0-.4-.2-.5-.1-.1,0-.3.5-.1.6Z"/>
  <path class="st0" d="M101.1,31.2c0,.1.5.3.6.2,0-.1,0-.3.1-.6.2-.2.2-.3,0-.2l-.7.6Z"/>
  <path class="st0" d="M99.3,39.2c-.1,0-.4.2-.4.3,0,.1.3.3.4.3.1,0,.4-.1.4-.3,0-.3-.3-.4-.5-.4Z"/>
  <path class="st0" d="M45,30.7c-.1,0-.4.1-.4.2,0,0,.3.3.4.3l1-.2-1-.3Z"/>
  <path class="st0" d="M49.9,39.1c-.1,0-.3.3-.3.4,0,.1.3.2.5.2.2,0,.4-.4.3-.5,0,0-.3-.2-.5-.1Z"/>
  <path class="st0" d="M102.3,45.7c.2,0,.5-.2.5-.4,0-.1-.2-.3-.4-.3-.1,0-.3.1-.4.3,0,.1,0,.1.3.4Z"/>
  <path class="st0" d="M41.2,31.2c.1.2.7.4.8.1,0-.1-.2-.5-.4-.5-.2,0-.5.2-.4.3Z"/>
  <path class="st0" d="M6.5,66.4l-.3.5c0,0,.2.4.4.4.1,0,.3-.4.3-.5,0,0-.2-.3-.3-.4Z"/>
  <path class="st0" d="M103.8,16.9c0-.1-.2-.3-.4-.3l-.8.3.7.3c.1,0,.4-.1.5-.3Z"/>
  <path class="st0" d="M113.5,38.3c-.1,0-.4.2-.4.3,0,0,.3.3.4.3.2,0,.5,0,.5-.1v-.3c0,0-.4-.2-.5-.2Z"/>
  <path class="st0" d="M141.6,91.9c.4-.2.5-.8.1-1-.2.2-.3.8-.1,1Z"/>
  <path class="st0" d="M90.8,38.3c-.2,0-.4.2-.5.3,0,0,.3.3.4.3.2,0,.5-.2.5-.3,0-.1-.3-.3-.4-.3Z"/>
  <path class="st0" d="M77.5,38.9c.1,0,.3-.4.3-.5,0-.1-.3-.2-.5-.2-.1,0-.3.3-.3.4,0,.1.3.2.5.2Z"/>
  <path class="st0" d="M26.8,25.2c0,0,0-.4,0-.4h-.4c-.1.4-.3.8-.2,1.2l.6-.8Z"/>
  <path class="st0" d="M39.5,54.2c-.2,0-.2.6,0,.6.1,0,.5,0,.6,0,.1,0,.2-.4,0-.5,0-.1-.4-.2-.6-.1Z"/>
  <path class="st0" d="M79.5,46.7c-.1.2,0,.6.1.6s.4,0,.5-.2c0,0,0-.3,0-.4,0-.1-.5,0-.6,0Z"/>
  <path class="st0" d="M120.2,32c0,.3.3.6.7.3.1,0,0-.4-.2-.5-.1,0-.5,0-.6.2Z"/>
  <path class="st0" d="M142.3,86.3c0-.2,0-.5-.4-.5v1c.2-.2.4-.3.4-.5Z"/>
  <path class="st0" d="M132.8,49.4l.3,1.1c.3-.2.3-.6.2-.8s-.3-.2-.6-.3Z"/>
  <path class="st0" d="M94,37.6c0,0-.2-.1-.3-.1-.1,0-.3.2-.4.3,0,0,.2.3.3.3.2,0,.6,0,.5-.2v-.3Z"/>
  <path class="st0" d="M35.4,47.2c-.1,0-.2.5,0,.6.1,0,.5,0,.5,0,0,0,.1-.3,0-.5,0-.1-.4-.1-.5,0Z"/>
  <path class="st0" d="M51.1,47.2c-.1,0-.3.3-.4.4,0,.1.2.3.4.3.2,0,.5-.3.4-.4,0,0-.4-.2-.5-.2Z"/>
  <path class="st0" d="M71.6,47.4c-.1,0-.4,0-.5,0s0,.3,0,.5h.5c.2,0,.2-.5,0-.5Z"/>
  <path class="st0" d="M10.7,89.9v-.7c-.3,0-.6.1-.6.3v.5c.1.1.6,0,.6,0Z"/>
  <path class="st0" d="M91,54.9c-.1.1-.1.5,0,.6,0,0,.5.1.5,0,0-.1,0-.3,0-.5,0-.1-.5-.2-.6,0Z"/>
  <path class="st0" d="M17.7,119.3c.3.9.6,1.6,1,2.2-.2-.9-.6-1.6-1-2.2Z"/>
  <path class="st0" d="M115.1,24.7c0,0,.2-.3.2-.4,0-.2,0-.4-.1-.4h-.4c0,0,0,.2,0,.4,0,.1.3.4.4.3Z"/>
  <path class="st0" d="M78.3,49.6c.1-.1.2-.4.1-.5,0,0-.4-.2-.5-.1-.1,0-.2.5,0,.6,0,.1.4.2.5,0Z"/>
  <path class="st0" d="M96.2,36.8c-.1,0-.4.3-.3.4,0,0,.3.2.4.2.1,0,.5,0,.5-.2,0,0,0-.3-.1-.3,0,0-.3,0-.4,0Z"/>
  <path class="st0" d="M8,87.2c-.2,0-.4.3-.4.5,0,.1.3.4.4.3.3-.1.3-.7,0-.8Z"/>
  <path class="st0" d="M18.5,69.2c0-.2,0-.5,0-.6,0,0-.4-.1-.4,0,0,.2-.1.4,0,.6,0,.1.5.2.6,0Z"/>
  <path class="st0" d="M95.3,70.7l-2.2.3v.2c0,0,2.5-.3,2.5-.3,0,0-.2-.1-.3-.1Z"/>
  <path class="st0" d="M59.2,47.9c0-.1-.4-.1-.6,0-.1,0-.2.5,0,.5.1,0,.5,0,.5,0,0-.1,0-.4,0-.5Z"/>
  <path class="st0" d="M103.6,56.6c.2-.2.3-.5.2-.5l-.5-.3c-.1,0-.3.4-.2.5,0,.1.4.3.5.3Z"/>
  <path class="st0" d="M26.8,49.1c0,.1.4.2.5.1s.2-.3.2-.5c0-.1-.3-.2-.5-.2-.1,0-.3.4-.2.5Z"/>
  <path class="st0" d="M107,36.9h.5c.1,0,0-.5,0-.5h-.4c-.1-.1-.3.1-.4.2,0,0,.3.3.3.3Z"/>
  <path class="st0" d="M50.2,36.4c-.1,0-.3.4-.2.5.1,0,.3.1.5.2.1,0,.4-.4.3-.5-.1,0-.4-.2-.5-.1Z"/>
  <path class="st0" d="M30,88c.1,0,.3-.3.2-.5,0-.1-.2-.3-.4-.3-.2,0-.4.4-.3.5,0,0,.3.2.5.2Z"/>
  <path class="st0" d="M48.4,22.3l-.6.5c.4.2.7.3,1,.3l-.4-.8Z"/>
  <path class="st0" d="M63.2,47.9c-.1,0-.5,0-.5,0-.1.2,0,.6.2.6.1,0,.4,0,.5-.1.1,0,0-.5,0-.6Z"/>
  <path class="st0" d="M100.1,29.4h-.8c-.2-.1-.4.3-.4.4.5,0,.8,0,1.2-.4Z"/>
  <path class="st0" d="M13.8,117.3c0,.2.4.4.7.5l-.3-.8h-.3c0,.1,0,.3,0,.4Z"/>
  <path class="st0" d="M108.4,23.3l-.5-.3c0,0-.3.2-.3.2,0,.2.2.5.3.4h.6c0,0,0-.2-.1-.3Z"/>
  <path class="st0" d="M27.6,80.4l.3.4c.2-.3.3-.5.2-.6,0-.1-.3-.3-.4-.2-.1,0-.2.4-.1.5Z"/>
  <path class="st0" d="M32.4,22.5c0,.2,0,.5.2.5v-.3c.1,0,.4-.2.4-.2,0,0,0-.4,0-.5-.3,0-.5.2-.6.5Z"/>
  <path class="st0" d="M88.7,36.4c-.1,0-.4.2-.4.3,0,0,.2.3.5.3.2,0,.4-.3.3-.4,0,0-.3-.2-.4-.2Z"/>
  <path class="st0" d="M95.2,34.5c0,.1.3.3.5.4.1,0,.5-.2.4-.3,0-.3-.7-.3-.9,0Z"/>
  <path class="st0" d="M10.4,70.8c0,.1.4.2.5,0,0-.2,0-.6,0-.7-.1,0-.3,0-.4,0,0,.1-.1.4,0,.6Z"/>
  <path class="st0" d="M42.3,23.5l-.5.3,1,.2c-.2-.4-.4-.6-.5-.5Z"/>
  <path class="st0" d="M51.5,22c-.1-.4-.4-.5-.6-.5,0,.2-.1.5,0,.6.1.1.7,0,.6,0Z"/>
  <path class="st0" d="M111.3,34.7c0,0,0-.4,0-.4h-.4c-.1-.1-.3.1-.4.2,0,0,.3.3.8.2Z"/>
  <path class="st0" d="M46,22c.2,0,.5,0,.6,0-.2-.4-.6-.6-.9-.5,0,.2,0,.5.3.5Z"/>
  <path class="st0" d="M32.6,21.7s-.2-.2-.2-.2l-1.3.3c.5,0,.7,0,1.1.2l.3-.2Z"/>
  <path class="st0" d="M67.6,68.8c-.1,0-.5,0-.6,0-.2.2,0,.7.2.6.2,0,.4,0,.5-.1.1,0,0-.5,0-.6Z"/>
  <path class="st0" d="M43,37.2h.4c.1,0,.3-.4.3-.4,0,0-.4-.2-.5-.2-.1,0-.3.2-.3.3,0,0,0,.3.1.3Z"/>
  <path class="st0" d="M59,21c0-.1-.1-.4-.3-.4-.2,0-.6.3-.5.4l.4.4c0,0,.4-.2.4-.3Z"/>
  <path class="st0" d="M34.5,88.8c0,.1,0,.5,0,.6,0,.1.6,0,.6,0v-.6c0-.1-.5,0-.6,0Z"/>
  <path class="st0" d="M73.4,34.1c0,.1-.1.6,0,.7,0,0,.6,0,.5-.2v-.5c-.2,0-.5,0-.5,0Z"/>
  <path class="st0" d="M112,47.4v.6c0,0,.3.2.4.2l.3-.4-.7-.4Z"/>
  <path class="st0" d="M30.3,56.7h.5c.1,0,.2-.4.1-.5s-.3-.2-.5-.1c-.2,0-.3.6-.1.6Z"/>
  <path class="st0" d="M52.2,34.1h-1.1s.8.4.8.4c0,0,.4,0,.4,0,0,0,0-.3-.2-.3Z"/>
  <path class="st0" d="M109.1,49.2c0-.2,0-.4,0-.5,0-.1-.4-.2-.5,0-.1.1,0,.5,0,.5.1,0,.4.2.4,0Z"/>
  <path class="st0" d="M108.2,24c-.1,0,0,.6.2.6h1s-.7-.5-.7-.5c0,0-.3-.1-.5-.1Z"/>
  <path class="st0" d="M27,54.7c-.1,0-.1.5,0,.6.2,0,.5,0,.5,0,0-.1,0-.5,0-.5-.1,0-.4,0-.5,0Z"/>
  <path class="st0" d="M50.6,33.5c0,0,0,.1,0,.2,0,0,.2.2.3.2l.9-.2-.8-.3c0,0-.3,0-.4,0Z"/>
  <path class="st0" d="M52.4,19l.5.2c0,.3,0,.4.2.6,0,0,.4-.2.4-.3-.2-.5-.7-.6-1-.5Z"/>
  <path class="st0" d="M16.2,55.3c.1,0,.4.1.5,0s.2-.4.2-.5c0-.1-.4-.2-.5-.1-.1,0-.3.5-.1.6Z"/>
  <path class="st0" d="M31.2,68.3c0-.1.1-.4.1-.5,0-.1-.4-.3-.5-.2-.1.2-.2.6,0,.6.1,0,.4.2.5,0Z"/>
  <path class="st0" d="M104.3,24.1v.6c-.1,0,.8,0,.8,0-.1-.3-.2-.4-.3-.4h-.3s-.2-.1-.2-.1Z"/>
  <polygon class="st0" points="15.5 121.6 14.5 120.1 14.3 120.1 15.4 121.9 15.5 121.6"/>
  <path class="st0" d="M42.4,32v.8c.4.1.6,0,.5-.4,0-.2-.2-.3-.5-.4Z"/>
  <path class="st0" d="M66.5,56.9c0,.1,0,.6.2.6.1,0,.5,0,.5-.1v-.6c0-.1-.6,0-.6.1Z"/>
  <path class="st0" d="M123.2,31.4l.4.6,1.1.5-1-.9c-.1-.1-.3-.2-.5-.3Z"/>
  <path class="st0" d="M6.3,91.6c.1-.4.1-.8-.1-1-.2,0-.4.4-.3.5l.4.5Z"/>
  <path class="st0" d="M47.9,31.5c0,0,.3.2.4.2l.5-.2-.9-.4v.5Z"/>
  <path class="st0" d="M39.7,18.4c.1,0,.3-.3.3-.4-.1-.2-.3-.4-.4-.4,0,0-.2.2-.3.4,0,.2.2.4.4.4Z"/>
  <path class="st0" d="M74.9,17.9c.1,0,.4-.4.3-.5,0,0-.3-.1-.4-.2-.1,0-.4.2-.4.3,0,.1.2.3.5.3Z"/>
  <path class="st0" d="M108.8,24.9h-.5c0,.1.1.4.2.5,0,.1.5,0,.6-.1,0-.1-.2-.4-.3-.4Z"/>
  <path class="st0" d="M142.8,73.5c-.2,0-.2.9,0,.9.4,0,.3-.8,0-.9Z"/>
  <path class="st0" d="M11.2,50.2c.3-.1.5-.6.2-.7-.1,0-.5.1-.5.3,0,.2.2.5.3.4Z"/>
  <path class="st0" d="M140.7,55.8l-.2-.6c-.2,0-.6.1-.6.2v.4c.1,0,.6-.1.6-.1,0,.5.2.2.2.1Z"/>
  <path class="st0" d="M141.7,75c-.2.2-.2.6,0,.9.2-.2.3-.4.4-.6,0-.1-.3-.4-.4-.3Z"/>
  <path class="st0" d="M115.3,46.4c0,.1,0,.4,0,.5,0,0,.3.2.4.1l.2-.5h-.7Z"/>
  <path class="st0" d="M105.3,50.3l.2-.4c0,0-.3-.3-.4-.3-.2,0-.4.4-.4.5.3.1.5.3.6.2Z"/>
  <path class="st0" d="M104.6,25.1c-.1,0-.4.4-.4.5h1c-.3-.4-.5-.6-.6-.5Z"/>
  <path class="st0" d="M32.6,45.9c-.1.1-.2.5,0,.6.1,0,.5,0,.6,0,0-.1.1-.3,0-.4s-.4-.2-.5-.1Z"/>
  <path class="st0" d="M139.3,55c-.1-.9-.4-1.5-.7-2.1.1.8.4,1.5.7,2.1Z"/>
  <path class="st0" d="M39.4,39.7l.4-.2c0,0,0-.4-.1-.4h-.4c-.1,0-.3.3-.3.4,0,.1.3.3.4.2Z"/>
  <path class="st0" d="M40.6,29.8c-.1.1.2,0,.2.1v.3c0,0,.3,0,.3,0l.5-.5-.8-.2-.2.2Z"/>
  <path class="st0" d="M29.6,50.7c.1,0,.4,0,.5,0,0-.1.1-.3,0-.5,0-.1-.5-.1-.6,0-.1.1-.2.5,0,.6Z"/>
  <path class="st0" d="M81.1,25.7c-.1,0-.2.5-.1.6,0,.1.3,0,.5,0,.1,0,.2-.3,0-.4,0,0-.4-.2-.5-.2Z"/>
  <polygon class="st0" points="94.9 30.7 95.9 30.2 94.7 30.1 94.9 30.7"/>
  <path class="st0" d="M82.1,31c.2,0,.5-.4.4-.5l-.3-.4-.4.5c0,0,.1.4.3.4Z"/>
  <path class="st0" d="M9.5,44.5c0-.1,0-.4,0-.5-.4,0-.8.5-.8.9l.3-.3c.3,0,.5,0,.6,0Z"/>
  <path class="st0" d="M12.5,65.5c0-.2.1-.5,0-.6,0,0-.3-.1-.4,0-.1.1-.2.5-.1.6,0,.1.5.2.5,0Z"/>
  <path class="st0" d="M102.7,30c-.2,0-.3.2-.4.4l1,.2c0-.3-.3-.6-.5-.5Z"/>
  <path class="st0" d="M85,58.8c0-.1-.4-.4-.5-.2-.1.1-.3.4-.2.4l.3.3c.1.1.4-.3.4-.5Z"/>
  <path class="st0" d="M96.8,40.5c0-.2-.1-.4-.5-.4-.1,0-.4.3-.3.4l.4.2c0,0,.5-.1.5-.2Z"/>
  <path class="st0" d="M140,59c-.2.2-.1.7.3.7.1,0,.3-.4.2-.5,0-.2-.4-.3-.5-.2Z"/>
  <path class="st0" d="M80.2,30.1h.5c.1,0,.2-.3.1-.4,0-.1-.2-.3-.3-.2l-.4.3c0,0,0,.4,0,.4Z"/>
  <path class="st0" d="M67,52c-.1,0-.5,0-.5.1-.1.1,0,.6.1.6.2,0,.4,0,.5-.1.1,0,0-.5,0-.6Z"/>
  <path class="st0" d="M96.4,64c0-.1-.3-.5-.4-.4,0,0-.3.3-.3.4l.4.4c0,0,.2-.3.3-.5Z"/>
  <path class="st0" d="M81.8,15.6c-.2-.3-.8-.2-.8,0,0,.2.3.4.5.3.2,0,.4-.3.3-.4Z"/>
  <path class="st0" d="M14,60.4c0,0,.4,0,.5-.2,0-.4,0-.6-.3-.5-.1,0-.3.2-.4.3,0,.1,0,.4.2.5Z"/>
  <path class="st0" d="M135.9,43.5c-.2,0-.6.1-.5.2l.2.3c.2-.2.4-.3.4-.2l.3.5c0-.3-.1-.8-.4-.9Z"/>
  <path class="st0" d="M92.9,52.2l-.4-.3-.2.5c0,.1.3.2.5.3,0,0,.2-.5.1-.5Z"/>
  <path class="st0" d="M101,50.5c-.1.1,0,.5,0,.6,0,0,.3,0,.4,0,.1-.1.2-.4,0-.5,0,0-.4-.2-.5-.1Z"/>
  <path class="st0" d="M75.8,51.4c0,.2,0,.6.2.6.1,0,.5,0,.5-.1v-.6c0-.1-.6,0-.6,0Z"/>
  <path class="st0" d="M32.8,51.4c-.1,0-.3.5-.2.5.1,0,.4.1.5.1.1,0,.2-.4.2-.5,0-.1-.4-.2-.5-.2Z"/>
  <path class="st0" d="M23.1,99l-.3-.8-.4.7.3.4c0,0,.3-.2.3-.3Z"/>
  <path class="st0" d="M8.1,81.5c-.2,0-.3.6-.1.7.3.2.5,0,.5-.2,0-.2-.2-.5-.4-.4Z"/>
  <path class="st0" d="M44.9,41.5v-.3c-.2,0-.5,0-.6,0l-.2.4c0,0,.3.2.4.2.1,0,.4-.2.4-.3Z"/>
  <path class="st0" d="M10.8,83.6c-.1,0-.4.2-.4.3,0,.2.2.5.4.4.3,0,.3-.7,0-.7Z"/>
  <path class="st0" d="M49.6,125l-.5-.9-.7.4c.1.2.3.4.5.5.1.1.6,0,.7,0Z"/>
  <path class="st0" d="M47,122.5c-.2,0-.4.4-.4.5,0,.2.3.3.5.3.2,0,.3-.3.3-.5,0-.1-.3-.3-.4-.3Z"/>
</svg>