<?xml version="1.0" encoding="UTF-8"?>
<svg id="Layer_1" xmlns="http://www.w3.org/2000/svg" version="1.1" viewBox="0 0 151.3 128.1">
  <!-- Generator: Adobe Illustrator 30.5.1, SVG Export Plug-In . SVG Version: 2.1.4 Build 3)  -->
  <defs>
    <style>
      .st0 {
        fill: #0c6d2f;
      }
    </style>
  </defs>
  <path class="st0" d="M123.2,10c.9,1.2,3.1,2,5,2-1.2-.9-3.2-1.8-5-2Z"/>
  <path class="st0" d="M115.2,6.8c2.2,1.9,4.9,2.8,8,3.2-2.6-2-5.5-3.2-8-3.2Z"/>
  <path class="st0" d="M29.2,10c2.8-.9,5.6-1.4,7.9-3.4-2.9.2-5.3,1.9-7.9,3.4Z"/>
  <path class="st0" d="M147.5,48.7l1.4,10.1c-2.8-3.3-21-18.5-19.9-23.5-2.4,6-11.9-8.4-14.7-9.6,0,0-1.8.4-1.8.4,11.1,9.9,17.2,12.8,4.4,25,12.8-19.2,21.3,1.9,32.6,11,0,0-41.2.2-41.2.2.6-1.1,7.9-7.2,6.3-8.7-15.3,23-4.1-26.9-7.5-30.1,3.3-5.3,22.9-5.3,28-6.7.2.8-6.4,15.8-3.9,15.6,1.8-1.2,3.4-18.9,7.6-10.7.5-6.9-5.1-8.8-10.5-9.5,16.2,6.5-19.9,4.9-20.8,7,.8-3.7-11.6-21.1.5-15.9-25.7-12.1,12.8,13.2-13.3,23.4,21.1-18.8,7.5,26.9,11.3,34.2-5.3-3.1-11.2-9-16.3-12.2,2.2,4.1,8,7.3,11.1,10.6,12.7,6.4-24.1,1.6-24.1,3,2.4-10.7-7.9-31.1,10.5-15.4-4.2-6.4-14.2-7.8-3.5-13.8-13.4,8.9-5.1-13.4-7.3-18.9,1.8-2.4,16-9.3,18.7-10.8-17.3,5.6-29.9,12.3-48.7,14.9,6.4-18.9.2-16,17.3-12.2-5-2.1-14.3-9.7-19-2.9,10.4-4.9-1.3,13.1-.4,15.8,0,0-25.4-3.3-25.4-3.3l10.3-5.6c-10.8,1.8-20.1,7.8-18.4,19.9,2.8-4.2,2.6-17.1,7.3-5.2-8.5-15.3,19.4-2.7,24.3-4.7,0,0-6.7,8.1-6.7,8.1,18-19.9,4.8,16.1,8.8,21.6.5,17.9-3.7,4.8-11.1.1,1.2,2.3,8.6,10.1,9,12.3-5-2.6-46.8,7.2-40.1-7.9-7.5,12.7,5.1,24,9,35.7-1.7-7.1-6.3-15-8.4-21.9-.4-1.5,3.1.2,3.5,0,0,0-3.7-4.4-3.7-4.4,7.3,2.6,48.5-8.2,41.4,10.9,0,6.7,0,20.4,0,27-1.1-.6-8.9-9.5-10.4-7.8,7.4,8.3,13.4,9.9-2.3,10.4-9.6.9-13.3,2.9-10.2-8.8-3.7,13.6-4.6,3.6-8.5-3.1,1.4,30.6,30.9-2,36.3,22.9,1.9,7.3,7.3,11.9-3.2,7.4,2.4,1.9,7,4.6,9.9,5.5-2-6.6-16.1-26.4-.8-20.4-16.5-8-.3-3.1-.9-9.2-16,15-5-25.6-8.2-29.8,0-6.2,4.5.3,8.1,1.5-14.3-10.9,12.8-5.9,20.8-6.3,0,0-.1,22.6-.1,22.6-.1-.5-4.9-3-5.4-3.2,8.1,4,4.8,25.1,5.6,32.3-4.7-1.6-12.9-5.2-17.6-6.4,6.8,5.4,24.9,6.5,7.6,12.6,1.9,2.6,11-5.6,13.8-2.6.8-5,9.1-5.5,12.7-9l-15,5.4c2.5-4.8-6.5-32.9,7.5-23.1-9.8-3.9-7.7-17.3-7.6-28.4,0,0,27.3,0,27.3,0l-16.6,14.3c.1,3.4,18-13.5,18.6-13.2-.9,12,6.1,40.8-11.7,43.9,15.4-6.3,9-.6,6.8,9.8l6.5-14.1c.9,1.6,29.2-2,21.1,4.6,8.3-.5,11.5-20.4,14.3-25.7l-9.4,19.8c-.9-5.3-8.3-20.2-.6-23.5-16.2,2.9,1.9,14.1-2,25-6.7-1.5-19,1-23.6-5.1,3.4-6.5-8-50,9.6-25.5,3.1-.4-8.1-10-8-10.7,0,0,40.4,0,40.4,0-4.3,2.7-.8,5.5-1.5,9.6,6.1-6.5,3.4-17.7-.2-24.7ZM73.6,35.4c-5.3-3.1-10.4-6.9-16.7-8.6,7,6,23.7,8,10.3,17.8,15.2-14.6,4.6,12,7.7,17.4,0,0-28.9,0-28.9,0V21.4c1.9,1.1,6.9,3.2,9,4-.8-1.2-8.1-5.3-5.9-6,20.9-4.3,31-13.8,24.5,16Z"/>
  <path class="st0" d="M115.2,6.8c-1.9-1.7-5.1-3.4-7.2-3.6.8,2,4.4,3.2,7.2,3.6Z"/>
  <path class="st0" d="M44.7,3.2c-2.5.3-5.5,1.7-7.6,3.5,2.6-.2,6-1.4,7.6-3.5Z"/>
  <path class="st0" d="M98.8,122.3c-1.9,4.3-4.8,2.6-8.1,2.4,4.4,4.2,9.8,2.8,14.1-.8-1.5,0-5.6.8-6-1.5Z"/>
  <path class="st0" d="M146,42.6l-4.9-14.8c-3.1-.6,4.8,17.1,4.4,17.7l.5-3Z"/>
  <path class="st0" d="M26.9,112l12.8,7.4c2.2-1.2-13-10.1-12.8-7.4Z"/>
  <path class="st0" d="M9.7,34.1c-1.9-3.8-4.6,13.1-5.3,13,1.9,3.8,4.6-13.1,5.3-13Z"/>
  <path class="st0" d="M81.5,120.8l7.2,3.1c1.8-1.7-7.1-5-7.2-3.1Z"/>
  <path class="st0" d="M145.4,75.9c-.4.9-2.5,4.8-.8,5,.4-.9,2.5-4.9.8-5Z"/>
  <path class="st0" d="M92.5,27.7c-3,.9-5.5,2.3-7.9,4.2,3.3-.2,5.7-1.4,7.9-4.2Z"/>
  <path class="st0" d="M18.7,43.3l-8.3,8.7c1.5,1,11.1-7.6,8.3-8.7Z"/>
  <path class="st0" d="M23.1,82.8c.5,3.6,3.8,6.1,7,7.2-2-3.2-3.8-5.4-7-7.2Z"/>
  <path class="st0" d="M18.9,79c-.9,0-7.9-9.5-8.6-6.1.8-.3,9,11,8.6,6.1Z"/>
  <path class="st0" d="M139.5,75.2c0-.9,7-5.6,2.7-5.2,0,1-8.7,7-2.7,5.2Z"/>
  <path class="st0" d="M65.9,45.9c-1.7-1.6-4.4,3.1-5.4,3.9,1.7,1.6,4.4-3.1,5.4-3.9Z"/>
  <path class="st0" d="M53.9,55.1c1.1,1.9,3.1-1.6,3.8-2.3.2-.7-3.6.7-3.8,2.3Z"/>
  <path class="st0" d="M83.3,83.4l2.2-2.8c.2-1.4-6.8,3-2.2,2.8Z"/>
  <path class="st0" d="M55.8,72.6l4,3.3c-.4-2.6-1.9-3.7-4-3.3Z"/>
  <path class="st0" d="M62.5,78.1l4,3.3c-.4-2.6-1.9-3.7-4-3.3Z"/>
  <path class="st0" d="M24.7,41.7l5.4,4.9c.9-1.5-5.7-8.9-5.4-4.9Z"/>
  <path class="st0" d="M40.9,66.7c.3.9-17.4,15-13.3,15.6-.3-.9,17.4-15,13.3-15.6Z"/>
  <path class="st0" d="M32,29.9l-6.1,6.5c1.3,1,10.2-6.8,6.1-6.5Z"/>
  <path class="st0" d="M112.2,100.2c-.5-.6,14.5-12.2,8.9-11.2.5.6-14.5,12.2-8.9,11.2Z"/>
</svg>