<?xml version="1.0" encoding="UTF-8"?>
<svg id="Layer_1" xmlns="http://www.w3.org/2000/svg" version="1.1" viewBox="0 0 156.8 166.2">
  <!-- Generator: Adobe Illustrator 30.5.1, SVG Export Plug-In . SVG Version: 2.1.4 Build 3)  -->
  <defs>
    <style>
      .st0 {
        fill: #0c6d2f;
      }

      .st0, .st1 {
        stroke: #0c6d2f;
        stroke-miterlimit: 10;
      }

      .st1 {
        fill: none;
      }
    </style>
  </defs>
  <path class="st0" d="M20,123c-.1,0-.2.2-.3.3-2.8,2.8-2.8,7.2,0,10s7.2,2.8,10,0c.1-.1.2-.2.3-.3-3.7-2.9-7.1-6.3-10-10Z"/>
  <path class="st0" d="M31.7,127.9c-1.4-.5-2.7-1.5-3.3-2.9-.4-1-.5-2-.4-3-2.6-1.4-5.8-1.1-8,.9,2.9,3.7,6.3,7.1,10,10,1.3-1.4,1.8-3.2,1.8-5Z"/>
  <path class="st0" d="M39.9,139.2c-.4-.2-.7-.4-1.1-.6,0,0,0,.1-.1.2-.9,2.2-.2,4.6,1.5,6.1-.9-1.8-1-3.9-.2-5.7Z"/>
  <path class="st0" d="M41.4,136.9c.1-.1.3-.3.4-.4-.1-.2-.3-.3-.4-.5-1.1.5-2.1,1.4-2.6,2.6.4.2.7.4,1.1.6.3-.8.8-1.6,1.5-2.3Z"/>
  <path class="st0" d="M73,29.1c0-.1,0-.3,0-.4,0-3.9-3.2-7.1-7.1-7.1s-7.1,3.2-7.1,7.1,0,.3,0,.4c2.3-.3,4.7-.4,7.1-.4s4.7.2,7.1.4Z"/>
  <path class="st0" d="M65.9,35.7c3.8,0,6.8-2.9,7.1-6.6-2.3-.3-4.7-.4-7.1-.4s-4.7.2-7.1.4c.2,3.7,3.3,6.6,7.1,6.6Z"/>
  <path class="st0" d="M14.1,59.7c-2.7-1.1-5.8.2-7,2.9-1.1,2.7.2,5.8,2.9,7,0,0,.2,0,.2,0,1.1-3.4,2.4-6.7,4.1-9.8,0,0-.1,0-.2-.1Z"/>
  <path class="st0" d="M16.9,66.7c1.1-2.6,0-5.6-2.7-6.8-1.6,3.1-3,6.4-4.1,9.8,2.7,1,5.6-.3,6.7-3Z"/>
  <path class="st0" d="M10,104.4c-2.7,1.1-4,4.2-2.9,7,1.1,2.7,4.2,4,7,2.9,0,0,.1,0,.2-.1-1.6-3.1-3-6.4-4.1-9.8,0,0-.2,0-.2,0Z"/>
  <path class="st0" d="M16.9,107.3c-1.1-2.6-4.1-3.9-6.7-3,1.1,3.4,2.4,6.7,4.1,9.8,2.6-1.2,3.7-4.2,2.7-6.8Z"/>
  <path class="st0" d="M8,79.9c-.1,0-.3,0-.4,0-3.9,0-7.1,3.2-7.1,7.1s3.2,7.1,7.1,7.1.3,0,.4,0c-.3-2.3-.4-4.7-.4-7.1s.2-4.7.4-7.1Z"/>
  <path class="st0" d="M14.7,87c0-3.8-2.9-6.8-6.6-7.1-.3,2.3-.4,4.7-.4,7.1s.2,4.7.4,7.1c3.7-.2,6.6-3.3,6.6-7.1Z"/>
  <path class="st0" d="M48.5,31c-1.1-2.7-4.2-4-7-2.9-2.7,1.1-4,4.2-2.9,7,0,0,0,.1.1.2,3.1-1.6,6.4-3,9.8-4.1,0,0,0-.2,0-.2Z"/>
  <path class="st0" d="M45.6,38c2.6-1.1,3.9-4.1,3-6.7-3.4,1.1-6.7,2.4-9.8,4.1,1.2,2.6,4.2,3.7,6.8,2.7Z"/>
  <path class="st0" d="M106.5,44.4c0,0,0-.1,0-.2,1-2.3,3.4-3.7,5.9-3.3,0,0-.1-.2-.2-.2-2.8-2.8-7.2-2.8-10,0s-.2.2-.3.3c1.3,1,2.5,2.1,3.7,3.2.3,0,.6.1.8.2Z"/>
  <path class="st0" d="M105.6,44.2c-1.2-1.1-2.4-2.2-3.7-3.2-.5.6-.9,1.3-1.2,2,1.7.3,3.3.7,5,1.2Z"/>
  <path class="st0" d="M93.2,35.1c1.1-2.7-.2-5.8-2.9-7-2.7-1.1-5.8.2-7,2.9,0,0,0,.2,0,.2,3.4,1.1,6.7,2.4,9.8,4.1,0,0,0-.1.1-.2Z"/>
  <path class="st0" d="M84.2,36.4c1.3-1,2.9-1.6,4.7-1.6s2.8.4,3.9,1.1c.1-.2.2-.4.3-.6-3.1-1.6-6.4-3-9.8-4.1-.7,1.8-.3,3.8.9,5.2Z"/>
  <path class="st0" d="M30,41c0-.1-.2-.2-.3-.3-2.8-2.8-7.2-2.8-10,0-2.8,2.8-2.8,7.2,0,10,.1.1.2.2.3.3,2.9-3.7,6.3-7.1,10-10Z"/>
  <path class="st0" d="M29.7,50.7c2.7-2.7,2.8-6.9.3-9.7-3.7,2.9-7.1,6.3-10,10,2.8,2.5,7,2.4,9.7-.3Z"/>
  <path class="st0" d="M117.8,114.3c2.7,1.1,5.8-.2,7-2.9,1.1-2.7-.2-5.8-2.9-7,0,0-.2,0-.2,0-1.1,3.4-2.4,6.7-4.1,9.8,0,0,.1,0,.2.1Z"/>
  <path class="st0" d="M115,107.3c-1.1,2.6,0,5.6,2.7,6.8,1.6-3.1,3-6.4,4.1-9.8-2.7-1-5.6.3-6.7,3Z"/>
  <path class="st0" d="M121.9,69.6c2.7-1.1,4-4.2,2.9-7-1.1-2.7-4.2-4-7-2.9,0,0-.1,0-.2.1,1.6,3.1,3,6.4,4.1,9.8,0,0,.2,0,.2,0Z"/>
  <path class="st0" d="M115,66.7c1.1,2.6,4.1,3.9,6.7,3-1.1-3.4-2.4-6.7-4.1-9.8-2.6,1.2-3.7,4.2-2.7,6.8Z"/>
  <path class="st0" d="M101.9,132.9c0,.1.2.2.3.3,2.8,2.8,7.2,2.8,10,0,2.8-2.8,2.8-7.2,0-10-.1-.1-.2-.2-.3-.3-2.9,3.7-6.3,7.1-10,10Z"/>
  <path class="st0" d="M102.2,123.3c-2.7,2.7-2.8,6.9-.3,9.7,3.7-2.9,7.1-6.3,10-10-2.8-2.5-7-2.4-9.7.3Z"/>
  <path class="st0" d="M83.4,143c1.1,2.7,4.2,4,7,2.9,2.7-1.1,4-4.2,2.9-7,0,0,0-.1-.1-.2-3.1,1.6-6.4,3-9.8,4.1,0,0,0,.2,0,.2Z"/>
  <path class="st0" d="M86.3,136c-2.6,1.1-3.9,4.1-3,6.7,3.4-1.1,6.7-2.4,9.8-4.1-1.2-2.6-4.2-3.7-6.8-2.7Z"/>
  <path class="st0" d="M41.4,136.1c.1.2.3.3.4.5.4-.4.8-.7,1.3-.9-.6,0-1.2.2-1.7.4Z"/>
  <path class="st0" d="M58.9,144.9c0,.1,0,.3,0,.4,0,2.3,1.1,4.4,2.9,5.7,1.5-1.9,4-2.6,6.4-1.7.9.3,1.6.9,2.2,1.5,1.6-1.3,2.7-3.3,2.7-5.5s0-.3,0-.4c-2.3.3-4.7.4-7.1.4s-4.7-.2-7.1-.4Z"/>
  <path class="st0" d="M65.9,138.3c-3.8,0-6.8,2.9-7.1,6.6,2.3.3,4.7.4,7.1.4s4.7-.2,7.1-.4c-.2-3.7-3.3-6.6-7.1-6.6Z"/>
  <path class="st0" d="M106.5,44.4c-.3,0-.6-.2-.8-.2.2.2.5.4.7.7,0-.1,0-.3.1-.4Z"/>
  <path class="st0" d="M102.2,50.7c2.5,2.5,6.3,2.7,9.1.8-.6,0-1.1-.2-1.7-.4-2.6-1-4-3.7-3.3-6.3-.2-.2-.5-.4-.7-.7-1.6-.5-3.3-.9-5-1.2-1.1,2.6-.5,5.6,1.5,7.7Z"/>
  <path class="st0" d="M123.9,94.1c.1,0,.3,0,.4,0,3.9,0,7.1-3.2,7.1-7.1s-3.2-7.1-7.1-7.1-.3,0-.4,0c.3,2.3.4,4.7.4,7.1s-.2,4.7-.4,7.1Z"/>
  <path class="st0" d="M117.2,87c0,3.8,2.9,6.8,6.6,7.1.3-2.3.4-4.7.4-7.1s-.2-4.7-.4-7.1c-3.7.2-6.6,3.3-6.6,7.1Z"/>
  <path class="st0" d="M142.1,127.8c2.8,1.2,6,0,7.2-2.8,1.2-2.7,0-5.8-2.9-7,0,0-.2,0-.3,0-1.1,3.4-2.5,6.7-4.2,9.8,0,0,.1,0,.2,0Z"/>
  <path class="st0" d="M139.3,120.8c-1.2,2.6,0,5.7,2.7,6.9,1.7-3.1,3.1-6.4,4.2-9.8-2.7-1-5.8.3-6.9,2.9Z"/>
  <path class="st0" d="M146.5,82.5c2.8-1.2,4.1-4.3,2.9-7-1.2-2.7-4.4-3.9-7.2-2.8,0,0-.1,0-.2,0,1.7,3.1,3.1,6.4,4.2,9.8,0,0,.2,0,.3,0Z"/>
  <path class="st0" d="M139.3,79.7c1.2,2.6,4.2,3.8,6.9,2.9-1.1-3.4-2.5-6.7-4.2-9.8-2.7,1.2-3.9,4.3-2.7,6.9Z"/>
  <path class="st0" d="M125.6,146.5c0,0,.1.2.2.3,2.8,2.8,7.4,2.9,10.3.2,2.9-2.7,3-7.2.2-10-.1-.1-.3-.3-.4-.4-3,3.7-6.5,7-10.3,9.9Z"/>
  <path class="st0" d="M126,136.7c-2.8,2.6-3,6.9-.4,9.8,3.8-2.9,7.3-6.2,10.3-9.9-2.8-2.4-7.1-2.4-9.9.1Z"/>
  <path class="st0" d="M106.5,156.3c1.1,2.7,4.3,4.1,7.1,3,2.8-1.1,4.2-4.2,3.1-6.9,0,0,0-.2-.1-.3-3.2,1.6-6.6,3-10.1,4,0,0,0,.1,0,.2Z"/>
  <path class="st0" d="M109.6,149.3c-2.8,1.1-4.1,4-3.1,6.7,3.5-1,6.9-2.4,10.1-4-1.2-2.5-4.3-3.7-7-2.7Z"/>
  <path class="st0" d="M41.6,145.8c-.5-.2-1-.5-1.4-.9.4.7.9,1.4,1.5,2,2.9,2.7,7.5,2.6,10.3-.2,0,0,.2-.2.2-.3-1.3-1-2.6-2-3.8-3.1-1.3,2.5-4.2,3.6-6.8,2.5Z"/>
  <path class="st0" d="M48.3,143.3c-.4-.4-.8-.7-1.2-1.1-2.5-.8-4.9-1.9-7.3-3-.8,1.8-.7,3.9.2,5.7.4.4.9.7,1.4.9,2.6,1.1,5.5,0,6.8-2.5Z"/>
  <path class="st0" d="M41.8,136.6c-.1.1-.3.2-.4.4-.7.7-1.2,1.5-1.5,2.3,2.3,1.2,4.8,2.2,7.3,3-1.9-1.8-3.7-3.7-5.3-5.7Z"/>
  <path class="st0" d="M48.6,142.7c0,0,0,.2,0,.2,0,.1-.1.2-.2.4,1.2,1.1,2.5,2.1,3.8,3.1.7-.7,1.1-1.6,1.4-2.4-1.7-.4-3.4-.8-5-1.3Z"/>
  <path class="st0" d="M51.7,136.7c-2.4-2.2-5.9-2.5-8.6-1.1.8,0,1.7,0,2.5.4,2.6,1.1,3.9,4.1,3,6.7,1.6.5,3.3.9,5,1.3.9-2.5.2-5.4-1.9-7.3Z"/>
  <path class="st0" d="M48.3,143.3c0-.1.1-.2.2-.4,0,0,0-.2,0-.2-.5-.2-1-.3-1.4-.5.4.4.8.7,1.2,1.1Z"/>
  <path class="st0" d="M45.6,136c-.8-.3-1.7-.4-2.5-.4-.5.2-.9.6-1.3.9,1.6,2,3.4,3.9,5.3,5.7.5.2,1,.3,1.4.5,1-2.7-.3-5.6-3-6.7Z"/>
  <path class="st0" d="M61,152.3c-1.1,2.7.3,5.8,3.1,6.9,2.8,1.1,6-.3,7.1-3,0,0,0-.1,0-.2-3.5-1-6.9-2.4-10.1-4,0,0,0,.2-.1.3Z"/>
  <path class="st0" d="M70.4,150.9c-1.2,1-2.7,1.5-4.4,1.5s-3-.5-4.2-1.4c-.2.3-.4.6-.6,1,3.2,1.6,6.6,3,10.1,4,.7-1.8.3-3.8-.9-5.2Z"/>
  <path class="st0" d="M68.2,149.3c-2.3-.9-4.9-.1-6.4,1.7,1.2.9,2.6,1.4,4.2,1.4s3.2-.6,4.4-1.5c-.6-.7-1.3-1.2-2.2-1.5Z"/>
  <path class="st0" d="M96.1,42.3c0-.1,0-.3,0-.4,0-2.5-1.4-4.7-3.4-6-1.4,2.1-4.1,3.1-6.5,2.1-.8-.3-1.5-.9-2-1.5-1.6,1.3-2.6,3.3-2.6,5.4s0,.3,0,.4c2.4-.3,4.8-.4,7.3-.4s4.9.2,7.3.4Z"/>
  <path class="st0" d="M86.3,38c2.4,1,5.2,0,6.5-2.1-1.1-.7-2.5-1.1-3.9-1.1s-3.4.6-4.7,1.6c.5.6,1.2,1.2,2,1.5Z"/>
  <path class="st0" d="M88.9,49c3.9,0,7-2.9,7.3-6.6-2.4-.3-4.8-.4-7.3-.4s-4.9.2-7.3.4c.2,3.7,3.4,6.6,7.3,6.6Z"/>
  <path class="st0" d="M81.6,158.2c0,.1,0,.3,0,.4,0,3.9,3.3,7.1,7.3,7.1s7.3-3.2,7.3-7.1,0-.3,0-.4c-2.4.3-4.8.4-7.3.4s-4.9-.2-7.3-.4Z"/>
  <path class="st0" d="M88.9,151.5c-3.9,0-7,2.9-7.3,6.6,2.4.3,4.8.4,7.3.4s4.9-.2,7.3-.4c-.2-3.7-3.4-6.6-7.3-6.6Z"/>
  <path class="st0" d="M35.6,72.7c-2.8-1.2-6,0-7.2,2.8-1.2,2.7,0,5.8,2.9,7,0,0,.2,0,.3,0,1.1-3.4,2.5-6.7,4.2-9.8,0,0-.1,0-.2,0Z"/>
  <path class="st0" d="M38.5,79.7c1.2-2.6,0-5.7-2.7-6.9-1.7,3.1-3.1,6.4-4.2,9.8,2.7,1,5.8-.3,6.9-2.9Z"/>
  <path class="st0" d="M31.3,118c-1.8.7-2.9,2.3-3.2,4,.6.3,1.2.7,1.7,1.2,1.3,1.3,2,3,2.1,4.7,1.2.4,2.6.4,3.9-.2,0,0,.1,0,.2,0-1.7-3.1-3.1-6.4-4.2-9.8,0,0-.2,0-.3,0Z"/>
  <path class="st0" d="M28,122c-.2,1,0,2,.4,3,.6,1.5,1.9,2.5,3.3,2.9,0-1.7-.8-3.4-2.1-4.7-.5-.5-1.1-.9-1.7-1.2Z"/>
  <path class="st0" d="M38.5,120.8c-1.2-2.6-4.2-3.8-6.9-2.9,1.1,3.4,2.5,6.7,4.2,9.8,2.7-1.2,3.9-4.3,2.7-6.9Z"/>
  <path class="st0" d="M29.2,93.2c-.2,0-.3,0-.5,0-4,0-7.3,3.2-7.3,7.1s3.3,7.1,7.3,7.1.3,0,.5,0c-.3-2.3-.5-4.7-.5-7.1s.2-4.7.5-7.1Z"/>
  <path class="st0" d="M36.1,100.3c0-3.8-3-6.8-6.8-7.1-.3,2.3-.5,4.7-.5,7.1s.2,4.7.5,7.1c3.8-.2,6.8-3.3,6.8-7.1Z"/>
  <path class="st0" d="M71.2,44.2c-1.1-2.7-4.3-4.1-7.1-3-2.8,1.1-4.2,4.2-3.1,6.9,0,0,0,.2.1.3,3.2-1.6,6.6-3,10.1-4,0,0,0-.1,0-.2Z"/>
  <path class="st0" d="M68.2,51.2c2.8-1.1,4.1-4,3.1-6.7-3.5,1-6.9,2.4-10.1,4,1.2,2.5,4.3,3.7,7,2.7Z"/>
  <path class="st0" d="M135.9,64c.1-.1.3-.2.4-.4,2.8-2.8,2.7-7.3-.2-10-2.9-2.7-7.5-2.6-10.3.2,0,0-.2.2-.2.3,3.8,2.9,7.3,6.2,10.3,9.9Z"/>
  <path class="st0" d="M126,63.8c2.8,2.6,7.1,2.6,9.9.1-3-3.7-6.5-7-10.3-9.9-2.5,2.8-2.4,7.1.4,9.8Z"/>
  <path class="st0" d="M114.1,47.3c.8.4,1.7.8,2.5,1.2,0,0,0-.2.1-.3,1.1-2.7-.3-5.8-3.1-6.9-.4-.2-.8-.3-1.2-.3,1.6,1.8,2.2,4.1,1.7,6.3Z"/>
  <path class="st0" d="M106.5,44.2c0,0,0,.1,0,.2,2.6.8,5.2,1.7,7.7,2.9.5-2.2,0-4.6-1.7-6.3-2.5-.4-5,1-5.9,3.3Z"/>
  <path class="st0" d="M112.2,50.7c-.1.1-.2.2-.3.3.1.2.3.3.4.5,1.8-.2,3.5-1.3,4.3-3-.8-.4-1.6-.8-2.5-1.2-.3,1.3-.9,2.5-1.9,3.4Z"/>
  <path class="st0" d="M111.3,51.5c.3,0,.7,0,1,0-.1-.2-.2-.3-.4-.5-.2.2-.4.3-.6.5Z"/>
  <path class="st0" d="M111.9,51c.1,0,.2-.2.3-.3,1-1,1.6-2.2,1.9-3.4-2.5-1.1-5-2.1-7.7-2.9,0,.1-.1.3-.1.4,2,1.9,3.9,4,5.6,6.2Z"/>
  <path class="st0" d="M106.3,44.9c-.7,2.6.7,5.3,3.3,6.3.5.2,1.1.3,1.7.4.2-.2.4-.3.6-.5-1.7-2.2-3.6-4.2-5.6-6.2Z"/>
  <path class="st0" d="M148.5,107.3c.2,0,.3,0,.5,0,4,0,7.3-3.2,7.3-7.1s-3.3-7.1-7.3-7.1-.3,0-.5,0c.3,2.3.5,4.7.5,7.1s-.2,4.7-.5,7.1Z"/>
  <path class="st0" d="M141.7,100.3c0,3.8,3,6.8,6.8,7.1.3-2.3.5-4.7.5-7.1s-.2-4.7-.5-7.1c-3.8.2-6.8,3.3-6.8,7.1Z"/>
  <path class="st0" d="M52.2,54.1c0,0-.1-.2-.2-.3-2.8-2.8-7.4-2.9-10.3-.2s-3,7.2-.2,10c.1.1.3.3.4.4,3-3.7,6.5-7,10.3-9.9Z"/>
  <path class="st0" d="M51.7,63.8c2.8-2.6,3-6.9.4-9.8-3.8,2.9-7.3,6.2-10.3,9.9,2.8,2.4,7.1,2.4,9.9-.1Z"/>
  <circle class="st1" cx="87.5" cy="8.5" r="8"/>
</svg>