<?xml version="1.0" encoding="UTF-8"?>
<svg id="Layer_1" xmlns="http://www.w3.org/2000/svg" version="1.1" viewBox="0 0 148.2 91.3">
  <!-- Generator: Adobe Illustrator 30.5.1, SVG Export Plug-In . SVG Version: 2.1.4 Build 3)  -->
  <defs>
    <style>
      .st0 {
        fill: #0c6d2f;
      }
    </style>
  </defs>
  <path class="st0" d="M122,82c2.1,1,4.4,3.2,3.9,5.4s-1.1,1.7-2.1,2c-2.5.6-4.9,1.1-7.5,1.1h-7.1s-3.9-.2-3.9-.2l-11-1.2-16.4-2.4-4.6-.7c-1.6-.2-3.1,0-4.8.2l-7.2,1.2c-7.9,1.3-15.6,3.1-23.6,3.7l-2.5.2h-7.3c-2.1,0-5-.9-5.3-2.7s.1-2.4.9-3c3.1-2.8,6.7-4.7,10.4-6.8s1.3-.9,1.4-1.5-.6-1.6-1.2-1.9l-8.4-3c-6.9-2.5-13.6-5.2-20-8.7S-.6,59.6,0,57.4c1-3.2,9.3-3.1,13.6-2.7l3.6.3,15.9,2.1c.6,0,1.6-.5,1.9-.9s.4-1.6.3-2.2l-.7-5.7c-.2-1.5,0-2.9,0-4.5.6-8.1,3.8-15.6,8.9-21.9s.7-1.6.6-2.3-.9-1.3-1.7-1.6c-3.5-1.3-5.9-4.2-6.1-8s.5-5,2.3-7c3.3-3.7,8.9-4,12.9-.9s2.8,7,4.1,8.5,1.5.7,2.1.5c3.6-1.3,7.2-2.5,11.1-2.7l3.6-.2,3,.2c4.9.3,9.3,1.7,13.7,3.7.6.3,1.5.5,2,.3s1.3-1.1,1.2-1.7c-.2-2.9.6-5.7,2.6-7.7,3.2-3.4,8.7-3.8,12.4-1s4.3,6.2,3.2,10c-1,3.5-3.9,6-7.8,6.7s-1.3.8-1.5,1.2.1,1.5.5,1.9c1.9,2.7,3.8,5.1,5.2,8.2,2.8,6.2,4.4,12.9,3.6,19.6l-.4,3.6c0,.8.2,2,.7,2.4.8.7,1.8.6,2.8.5l11.7-1.5,2.8-.3,3.3-.2h11.2c1.7,0,3.5.7,4.7,1.6,2.7,2.1-2.3,6.1-6,7.9l-4.3,2.1c-7.8,3.4-15.8,6.1-23.9,8.7s-1.6,1-1.6,1.8.9,1.3,1.4,1.6l9.1,4.5ZM53.5,9.1c0-4.5-4.5-8.5-9.2-7.6-3.2.6-5.9,3.3-6.4,6.6-.6,4.1,1.9,8,5.9,8.8s9.6-2.7,9.7-7.7ZM101.8,17c4.2.3,7.7-3.5,7.9-7.4s-3-7.8-7.1-8.2c-4.2-.4-7.9,2.6-8.6,6.8s3.1,8.5,7.9,8.8ZM69.7,26.5c10.9-.9,20.3,7,21.3,18.2.3,5-1.3,9.6-4.2,13.6,0,.5-.2,1.4,0,1.8s1.1.7,1.5.6l13.1-2.7c3.6-.7,6.8-.9,7.5-5.4,1.6-10.5-.9-21.8-8.1-29.9-3.1-3.5-6.9-6.3-10.9-8.7-5.9-3.4-12.9-4.8-19.6-4.5s-10.9,2.1-15.7,5.1-5,3.4-7.2,5.6-2.1,1.8-2.9,2.9c-4.4,5.7-7.4,12.3-8.2,19.5s-.4,4.8,0,7.2l.5,3.6c.4,2.6,2.1,4.5,4.7,5l13.8,2.7c.4,0,1.5-.7,1.5-1.1.2-2-5.8-6.7-4.8-16.1,1-9.5,8.4-16.8,17.8-17.6ZM72.6,63.8c3.4,0,6-1.2,8.7-2.9,4.6-2.9,7.5-7.3,8.2-12.9,1.2-10-6.4-19.3-16.6-20.2-11.4-1-21.1,9.1-19.6,20.4.4,3.3,1.7,6.4,3.8,9s8.6,6.6,13.1,6.6h2.4ZM106.5,74.2c4-.6,7.5-1.8,11.3-3.1,4.9-1.6,32.7-10.6,27.5-15-2-1.7-7.9-1.3-11.4-1.1l-3.8.2c-6.3.3-12.4,1.2-18.6,2.4-1.8.4-3,1.8-3.7,3.3-1.5,3.3-3.2,6.2-5.4,9s-1.2,2.1-.4,2.9c1,1.1,2.9,1.6,4.5,1.3ZM44.9,72.7c0-.4-.3-1.4-.6-1.7-2.4-2.8-4.3-5.7-6.1-8.9s-2.2-3.1-4.1-3.4c-5.5-1-10.9-1.9-16.4-2.3l-3.8-.3h-7.2s-2.8.5-2.8.5c-.6.1-1.4.9-1.6,1.4-.8,2,3.4,4.5,6.1,5.7l10.3,4.7c5.7,2.3,11.4,4.3,17.3,6.2,1.4.4,3,.7,4.4.8s4.6-1.1,4.5-2.6ZM95.4,71.5c1.7.5,3.5.2,4.8-1.2,2.5-2.5,7.1-8.9,5.4-10.8s-1.3-.7-1.9-.6c-5.9,1.1-11.6,2.1-17.3,3.8l-6.8,2c-.4.1-.9,1-.9,1.4s.7,1,1.1,1.1l15.5,4.4ZM63.4,67.5c.6-.2,1.2-1.1,1.1-1.5s-.8-1-1.2-1.2l-8.3-2.2-12-2.6c-1-.2-3.4.4-2.8,1.9,1.3,3.7,4,7.1,7,9.5s3.6.4,5,0l11.2-3.9ZM75,82.4c2.5,0,4.7-.6,7-1.2,4.2-1.2,7.9-3.1,11.6-5.3s1.4-1.2,1.2-2-.9-1.4-1.6-1.6l-13.6-3.8c-2.4-.7-5.2-1.2-7.6-1.4-4.5.4-8.7,1.9-12.8,3.4l-6.6,2.3c-.5.2-1,.9-1.1,1.3s0,1.6.5,1.9c4.7,3,10.7,6.4,16.3,6.4h6.8ZM49.2,77.1c0-1.4-2.4-2.1-3-.9s.6,1.4,1.1,1.5,1.9.3,1.9-.6ZM104.7,88.9l2.9.2h9.5s5.5-.9,5.5-.9c.5,0,1.1-1,1.2-1.5s-.2-1.5-.6-1.9l-1.3-1.2c-4.3-2.7-8.8-4.6-13.6-6.1s-3.7-.7-5.7-.1l-5.7,1.5c-3.4,1.2-6.7,1.9-10.2,2.8l-5.3,1.4c-.6.2-1.4.9-1.3,1.6.3.4,1.2,1.1,1.7,1.1l19.1,2.7,3.7.3ZM62.7,84.6c0-.5-1-1.2-1.5-1.3l-8.6-2.2-9.5-2.7c-1.9-.5-3.6-.3-5.4.4-4.3,1.7-8.3,3.9-12,6.8s-1.1,1.5-1.1,2,.7,1.6,1.3,1.8c3,1.1,6,.9,9.2.6,8.7-.8,17.1-2.1,25.7-3.9.7-.2,1.8-.8,1.9-1.5Z"/>
</svg>