<?xml version="1.0" encoding="UTF-8"?>
<svg id="Layer_1" xmlns="http://www.w3.org/2000/svg" version="1.1" viewBox="0 0 154.9 193">
  <!-- Generator: Adobe Illustrator 30.5.1, SVG Export Plug-In . SVG Version: 2.1.4 Build 3)  -->
  <defs>
    <style>
      .st0 {
        fill: #0c6d2f;
      }
    </style>
  </defs>
  <path class="st0" d="M123,167.1c-9.1,18-26.6,28.7-47,25.3l-8.7-1.8c-5.1.2-10,.2-15-.7-9.5-1.7-17.6-6.4-24.1-13.5-10.4-11.3-11.1-22.5-13.9-25.4l-6.3-6.5c-4.9-5.6-7.5-12.5-8-19.9-.5-8.4,1.8-16.4,6.8-23.2,1.6-2.2,1.9-4.9,1.2-7.4-2.6-10.3-1.2-20.9,4.9-29.6,2.6-3.6,5.7-6.5,9.2-9.2l6.7-10c11.9-16.1,32.1-22.9,50.9-15.1,4.5,1.9,8.4,4.4,12.1,7.5s3.3,1.1,4.6-.2c.9-1,1.4-2.1,2-3.4L113.8,1.2c.3-.7.9-1.2,1.7-1.2.2.6.2,1.5-.1,2.3l-15.7,33.7c-.4.8-.2,1.9.1,2.4s1.6,1,2.5.8l13-3,23.3-6.2,4.1-1.3c.7-.2,1.6.2,2.1.7,1.5,1.6-.5,4.2-1.6,6.2-2,3.5-4.3,6.4-7.5,8.7-.7.5-1.2,1.6-1.2,2.3s.5,1.8,1.2,2.5l7.1,7c12.7,15.2,15.2,36.2,8,54.5-1.2,3-1.3,5.9-.3,8.9,3.5,11.5,2,23.2-5.5,32.7-4.1,5.3-9.8,8.6-16.2,10.2-2.6.7-4.6,2.4-5.8,4.7ZM64.1,75.5c.7.9,2,.6,2.4-.1.6-.9,1.1-1.9,1.4-3,2.1-6.1,5.2-11.8,9.4-16.7,3.1-3.6,6.7-6.4,10.5-9.1l3.1-2.3c.7-.5,1.2-1.4,1.2-2.1s-.3-1.7-.9-2.2c-10.6-9.6-25.5-13.3-39.3-8.9-9.5,3.1-17.5,9.4-23,17.7-.5.8-.7,2.3-.2,3,.7.9,2.1,1,3.2.9,13.7-1.8,25.4,6.7,30.3,19.4.5,1.2.9,2.4,1.7,3.5ZM120.9,41.4l7.2,2.2c1.6.5,3.7,0,5.3-.8,3.9-1.9,9.2-7.5,6.9-9.5-.5-.4-1.6-.9-2.4-.6l-16.1,4.3c-1.8.5-4.2,1.5-4,2.5s1.8,1.5,3.2,1.9ZM149.6,108.1c7.7-19.1,2.7-41.5-12.7-55.2-2.7-2.4-5.6-4.4-9.2-5.1h-4.3c-6.7-.8-13.2-1.9-19.9-3.2-.8-.1-2,0-2.5.5-.9,1-.6,2.3,0,3.4,8.8,14.5,9.8,31.5,4.1,47.4-.6,1.7,0,4,1.4,4.9,2,1.4,4.4,1,6.5.2,7-2.8,14.5-2.7,21.3.4,4,1.8,7.2,4.5,10.2,7.8.7.8,1.9,1.1,2.9.9.7-.2,1.6-.9,2-1.9ZM68.4,78c-.8,3.7-.7,7-.9,10.5-.1,1.7.9,3.4,2.6,4,2,.7,4.2,1.5,6.4,1.5h8.2c4.8.1,9.3,1.3,13.8,2.8s4.7-.6,5.5-2.8c5.2-14,4.1-28.5-2.7-41.6s-1.7-3.1-2.9-4.3-2.8-.8-3.7.3c-1.7,2.1-2.7,4.3-3.8,6.7l-10.5,22.6c-.3.7-1,1.2-1.7,1.2-.3-.5-.2-1.5,0-2.1l10.2-21.8,1.1-3.2c.1-.4-.2-1.3-.6-1.6-1.1-.8-3.3.5-4.8,1.7-8.1,6.6-13.9,15.7-16,26.2ZM48.3,93.2c3.1-.8,6.1-1.3,9.3-1.6,1.2-.1,2.7-.6,3.5-1.5.9-1,1.1-2.6,1.1-3.9.1-3.1.3-6.2-.4-9.3-2.8-12.7-14-22.6-27-22.1-8.2.3-11.2,3.4-12.9,11.1-1.6,6.8-1.5,13.7-.1,20.5s2.8,4.2,5.5,4.1c4.4-.1,8.5.6,12.7,2.3,2.8,1.1,5.4,1.2,8.3.4ZM17.8,92.7c1.8-1,2.8-3.2,2.4-5.1-1.3-7.1-1.4-14.1-.2-21.2.2-1.2.2-2.5-.7-3.3-2-1.6-5.6,3.8-7.1,6.7-3.6,7-4.6,15.1-2.4,22.6.6,2,2.7,3.2,4.5,2.2l3.6-1.9ZM32.5,101.6l4.7-3.5c.6-.5.9-1.6.8-2.3-.4-2.4-6.2-3.1-9.4-3-2,0-3.7,1.6-3.2,3.7.4,1.7,1.3,3.4,2.4,4.8,1.2,1.4,3.3,1.4,4.8.3ZM56.2,102.6l3.1-4.6c.5-.7.4-1.8,0-2.5-.3-.5-1.2-1.2-2.1-1.2-2.9,0-7.7.5-8.5,2.5s-.2,1.7.2,2.3l3.3,4.1c.4.5,1.6.8,2.1.7.5,0,1.5-.6,1.9-1.2ZM25.9,107.7c.8-1.5.7-3.4,0-4.8l-2.5-5c-.6-1.2-1.7-2.3-2.7-2.6-2.4-.8-6,1.3-6.7,3.5s-.2,2.8.6,4c1.6,2.3,3.5,4.2,5.8,5.8,1.7,1.2,4.3,1.1,5.4-.9ZM96.8,106.5c.9-.9,1.6-2,2.1-3.1.8-1.8-.3-3.8-2.1-4.5-3.3-1.3-11-3.3-12.3-1.2-.5.8,0,1.9.7,2.5l6.7,6.3c1.4,1.3,3.4,1.4,4.9,0ZM89.6,114.1c1.9-1.6,2.3-4.4.6-6.1l-4-4c-3.1-2.6-6.5-4.8-10.5-5.7s-3.7.2-5.1,1c-1.6.9-2.1,3-1.6,4.7,1.4,4.8,3.4,9.4,6.4,13.5,1.6,2.3,4.5,2.7,6.9,1.5,2.6-1.4,5-2.9,7.4-4.9ZM45.1,111.6l3.7-2.1c1.7-1,2.5-3.1,1.6-4.9-.7-1.4-1.8-2.5-2.9-3.7-2.1-2.2-5-3-7.8-1.5-2,1.1-4,2.4-5.7,3.9s-2.2,4.2-.5,6,2.8,2.6,4.5,3.2c2.3.8,5,.2,7.1-1ZM131.8,130.3c4.8-3.1,8.9-6.9,12-11.5s1.5-4.2.6-6.1c-1.7-3.4-5.5-6.3-8.9-8.1-6.1-3.3-13.1-4.1-19.6-1.9-1,.3-2,1.2-2.2,1.9-.2,1,0,2.2.7,3,5.6,6,9.6,13.1,11.9,21,.3,1.1,1.3,2,2.1,2.3,1.1.5,2.3.2,3.4-.5ZM63.1,123.3c2.8,0,5.4-.1,8-.7,1-.2,2-1.1,2.2-1.9.4-1,.1-2.2-.4-3.1-2.4-4-4.2-7.9-5.6-12.4s-.9-1.9-1.7-2.5-2.1-.6-3,0l-5,3.5c-1.5,1-1.8,3.2-1.5,5l1.4,7.5c.5,2.8,2.6,4.5,5.5,4.5ZM14.9,140.1c.1-8.2,2-16,5.6-23.3,1-1.9.9-4.3-.8-5.9-2.4-2.2-4.7-4.3-6.8-7s-1.8-1.4-2.9-1.4-1.9.6-2.6,1.5c-6.5,9.1-7.6,20.9-3,31,1.5,3.4,5.7,10.2,8.5,9.5.6-.1,1.5-.9,1.5-1.6l.3-3.1ZM100.3,111.2l3.2-3.5c1.4-1.6,2.2-3.3.9-4.1-1.4-.9-3.2.6-4.3,2.4l-2.1,3.5c-.4.6-.4,1.9.2,2.4.7.5,1.6,0,2.2-.6ZM104,132.5c.6,2.5,2.7,4.2,5.1,4.2,4.2.1,8.3-.4,12.3-1.7,2.2-.7,3.8-3.1,3.2-5.6-2.1-7.9-6.4-15.2-12.3-20.8-2-2-4.8-1.7-6.8.1-3.1,3-5.9,6.6-4.8,10.8l1,3.9,2.3,9ZM29.1,110.7c-.2,0,0,1,.2,1s.7,0,.9-.1.1-.8-.1-.9-.8,0-1,0ZM51.1,121.2c1.1.3,2.1.3,3.1-.2,2-1.2,1.5-4.5.4-7-.2-.6-1.2-1.1-1.7-1.2-1.5-.1-3.7,2.5-4.4,4.2-.8,1.9.8,3.7,2.6,4.2ZM38.7,142.5c0-6.3,1.3-12.2,3.4-18.1.6-1.7.4-3.8-1-5s-3.2-2.1-5-2.5l-7.6-1.6c-2.9-.6-5.3.6-6.5,3.2-3.3,6.9-5.2,14.2-5.4,21.9,0,4.5.7,8.8,4.9,10.4,4.1,1.5,8.6,1.6,12.9.6,4-.9,4.3-4.8,4.3-8.7ZM90.1,131.4c.9.5,2.1.5,2.9,0s1.4-1.3,1.5-2.2l1.4-10.6c.2-1.2-.3-2.7-1.2-3.3-1.2-.8-2.6-.2-3.7.5l-7.7,5.2c-.8.5-1.5,1.4-1.6,2.2s.2,2,.8,2.6c2.3,2.2,4.8,4,7.6,5.6ZM127,156.1c-.2,1.1.5,2.4,1.2,2.8.9.6,2,.7,3,.3,14.9-5.1,22.3-21.3,18.4-36.1-.3-1.2-1-2.2-2-2.7-1.1-.4-2.3.3-3.1,1.2-3.7,4.6-7.8,8.4-12.9,11.6s-3.5,4.1-3.4,6.8c.2,5.5-.1,10.6-1.3,16.1ZM45,145.8c5.3-4.2,8.7-10.1,10.1-16.6.8-3.5-3.2-5.8-7-6.3-1.9-.3-3.8.8-4.4,2.7-2.3,5.9-3.5,12.2-3.3,18.5,0,1.1.9,2.1,1.6,2.3,1,.4,2.1.2,3.1-.6ZM70.8,186.3c2.8-.6,5.1-1.4,7.6-2.8,10.6-5.7,18.6-15.6,22-27.2.7-2.4,0-4.5-.8-6.6l-3.9-9.4c-1.1-2.6-2.6-4.5-5.1-5.9-4-2.2-7.5-4.9-10.9-8-1.9-1.7-4.3-2.1-6.7-1.7-3.7.7-7.2,1.1-11,1-2.6,0-4.6,1.6-5.1,4.1-1.7,8-6.1,14.7-12.6,19.6-1.8,1.4-3,3.8-2.5,6,2.2,9.7,7.4,18.4,14.8,24.9,2.6,2.3,5.2,4,8.4,5.3,1.9.8,3.7,1.1,5.9.6ZM102,132.3c-.3-2.9-1.3-7.2-3.2-7.4s-3.4,5.1-1.1,8.5c.6.8,1.6,1.3,2.5,1.1.9-.2,1.5-1.1,1.8-2.2ZM118.8,159.9c2.9.6,5.2-1.1,6.1-3.7,1.1-3.4,1.4-6.9,1.7-10.4v-4.9c0-1.1-.7-2.4-1.5-2.9s-2.2-.9-3.3-.6c-4.3,1.2-8.5,1.8-13,1.8-2.3,0-4.3,1.9-4.3,4.2v5c0,2.6,1.2,4.8,3.2,6.4,3.2,2.5,6.9,4.3,11.1,5.1ZM102.3,143.3c.6-1.7-.3-3.5-1.8-4.2-1-.5-2,.4-2.1,1.5-.2,2,1.5,4.3,2.9,3.8.3,0,.8-.6,1-1.1ZM58.7,187c.5-.7,0-1.9-.6-2.3l-4-3.6c-6.9-6.6-11.6-15-13.9-24.3-.6-2.3-2.6-3.8-4.9-3.3-4.4.9-8.7.9-13.1,0-.8-.2-1.9.3-2.4.7s-.9,1.8-.7,2.6c1.9,6.4,5.3,12.1,9.7,17.2,6.8,7.7,17,13.4,27.4,14,.8,0,2-.3,2.5-1ZM79,190.4c17.2,2.3,33.5-7.9,41.6-22.8.6-1.1.8-2.2.3-3.3s-1.3-1.6-2.2-1.8c-4.4-1-8.2-2.7-11.8-5.4-.9-.7-2.1-.9-3.1-.6-.8.3-1.5,1.2-1.9,2.1l-3.3,7.4c-4.6,8.7-11.5,15.7-20.2,20.2-.9.5-1.9,1.4-1.8,2.4s1.4,1.6,2.6,1.8Z"/>
</svg>