<?xml version="1.0" encoding="UTF-8"?>
<svg id="Layer_1" xmlns="http://www.w3.org/2000/svg" version="1.1" viewBox="0 0 158.5 134.7">
  <!-- Generator: Adobe Illustrator 30.5.1, SVG Export Plug-In . SVG Version: 2.1.4 Build 3)  -->
  <defs>
    <style>
      .st0 {
        fill: none;
        stroke: #0a6c2f;
        stroke-miterlimit: 10;
      }
    </style>
  </defs>
  <path class="st0" d="M48,117.7l.6-2c0-1.8-1.4-2.8-2.7-3.7-.2-.2-.6-.7-.9-.7s-3-1.9-3-1.9c-1.4-.6-2.4-1.4-3.3-2.5-.6-.3-1.9-.5-2.6-.4-1.3.8-1.6,2.5-1.5,4l-.7-.3c-.2,0-.4.4-.5.7l-1.8.5c-.7-.6-1.4-1-2.3-1.3,0,0-1.1.7-1.1.9,0,.5-.4-.2-.4-.2l-1.9-.8c-2.9-3,.9-4.7.5-6s-.8-.8-1.2-.7c-.9.3-2.7.3-3.3-1s-.5-2.3,0-2.9c0,0,2.1-1.6,2.4-1.6s1.4-.4,1.4-.4c.1,0,.5-.4.6-.5,1-.6,1.3-1.5,1.4-2.6v-.9c.1-.2-.4-.5-.6-.5l-2.9-.6c-.5.7-1.2,1.5-1.9,2.1.6,1.1.9,2.5-.3,3.5-.6.5-1.8.2-2.4-.2l-1.6-.2-1.9-3.3c.3-1.7,1.8-2.8,3.5-2.5.2-.3.2-1.1,0-1.5-1.1-1.5-.4-3.2,1.1-4.1,0,0,2.3,0,3.3,2l5,.7c.1,0,.6.6.5.7s.7.3,1,.3h1.1s.6,0,.6,0c.2,0,.8-.4.8-.4-.3-.4,3.1-.7,3.3-1.9l1-4.2.5-3.8-5-3.9-1.3,1.8-2.5,2.3c-1.5,1.4-4,0-5.3-.9-1.2.3-2.4.4-3.6.4-.7,1.5-2,2.7-3.7,2.2l.2,2.1c.6.2,1.5.6,1.9,1.3.7,1.4.7,3.4-.2,4.3s-1.8,1.5-2.8.7c-1.4.2-2.7-.6-2.9-2.2-1.9-1.1-2.6-4.1-.8-5.6.5-.4,1.1-.8,1.4-1.2-1.2-.3-2.2-.6-2.7-1.5l-1.3-2.8,1.5-2c-.5-1.2-.6-2.7,1-3.3l-.4-2.4c.2-.2.5-.7.6-1l.3-1c0-.2.7,0,.9,0,.5-.1,1.2-.2,1.9-.2s1-1.5.5-2.2-1.1-1.3-1.8-.8c-.2.5-.6,1.2-1.2,1.4l-4.1,1.3c-1.1.4-2-1.3-2-2.1-.1-1.3.6-1.8,1.6-2.6l1.8-1.6c1.3-1.1,5,1.1,7.8,0l.5-.8c1.7.5,3.2-1.6,5.3-.6.7.3,1.4,1.2,2.1,2s3.3.3,3.5-1.1l1.5-1.2c-3.4-1.9-1.4-6.6,2.3-6.2,1.2,0,2.2-.2,2.7,1,.7,1.7-1.7,4.9-3.5,5.2.6.9.8,1.7.7,2.7,0,0-3.2,4.7-4.1,4.5l-3.5-.7c0-1.2-5-1.9-5.6-1.3l.4,1.6c1.3,1.3,1.3,6.3,1.2,6.5-.7,1.1-2.2,1-3.2.2h-1.2c0,0-1.6.1-2.1,0l.6,4,1.8.2c.6-1,1.9-.6,2.6-.8,1.4-.5,2.5-.9,3.9.1h3.1c0,0,1.9-1.4,1.9-1.4.2-.1.7-.6.5-.8l-.6-.9-.7-1.2c-.7-.8-1-1.5-.7-2.7s1.1-1.5,2-1.6c1.1-.2,1.7.5,2.4,1.3l2.1,2.5,1.2,1.6c.8,1.1,2.2,1.9,3.3,2.8,1.7,1.4,3.1-.2,4.2,1.6s0,1.6-.3,2.5c-1,2.6-1.6,8.6-.8,9.4l6.1,5.9c1.6,1.5.5,2.7,1.3,3.3s1.2.3,1.4,0l2.8-2.9c.6-.6,2.1-1.2,2.3-2.2.4-2.6-.3-5.1-.5-7.6l-.3-4-2.4-.8c-1.4-.4-2.1-1.3-2.2-2.9-.6,1.2-1.4,2.1-2.6,2.2-1.3.2-2.3-.5-3-1.6s-.8-2.7.2-3.9,2.8-1.4,4-.3c.7.7,1.1,1.8,1.5,3,.9-1.5,2.3-1.7,3.9-1.2s1.7.8,2.2,1.7c.8-1,1.5-1.8,2.5-2.5s1.9-2.4,2.6-3.6l-1.7-1.1c-1.1.6-2.4.7-3.3,0-1.2-.8-1.5-2-1.1-3.5-1.1-1.1-1.3-2.6-.7-3.9,1.6-2.6,4.4-.7,5.8-1.4l8.2-3.7,9.1-4.1c.2-.1.6-.6.6-.8,0-.9-1.3-1.3-1.1-3.1-2-.3-4.6-.4-6.6.5s-1.7.5-2.8.4-2.6.2-3.3-1.1l-2.3-4.1-1.3-2.5c-.6-1.2-1.7-1.6-2.9-1.9l-2.8-.7-.4,1.9c.8.8,1.3,1.7,1.2,2.7,0,1.5-1.7,2.7-3.6,2.9.6.6,1.1,1.7.9,2.5s-1.1,1.9-2.1,2.2c-1.7.6-2.7-.2-3.6-1.5-.9,0-2.4,0-2.7-1.3s0-2,.8-2.6,2.1-.1,2.8.7l2.4-.9c-1.3-1.7-.8-4.3,1.3-5.3,0-1.6,0-3.2-.3-4.8l-1.5-7.5c-1.4-1-2.7-1.9-4.3-2.7s-1.8.4-2.4.5l-2.2.4-14.7,4.1c-1.2.3-2.4.2-3.6.8s-2.3.9-3.3.5c-1-.4-1.6-1.6-2.2-2.4l-.8-1.2-1.8-.9h-.5c0,.1-1.7,0-1.7,0-.5-.6-1.7-1-2.3-.8l-.5,2.1c2.3,2.2.6,3.5.7,4.3s.6.8,1.1.9,1.5,1,2.1,1.3c1,.4,2.6,1.3,2.6,1.3.2,0,.6.3.8.3l1.9.3c.6,1.1,1.7,1.7,2.8,1.5l1.1,1.5,4.2-3.3,1.4-1.1c1.2-.9,2.7-1.7,3.5-3.1s1.7-2.1,3-2.2,1.6.6,1.7,1l1.5,6.4c.5,2.7,1.6,7.2,3.2,7.6.9.2,1.8.2,2.2.8s.4,1.7,0,2.3-1.4.5-2.2.7l-3,.7c-.8.2-1.9-.5-2.3-1.1s-.1-1.7,0-2.6c0-2.1-.7-4.3-1.3-6.4l-.8-3.2-2.6,1.8-5.7,4.8c-1,.8-2.4.7-3.3-.2-1.4.1-2.5-.3-3.7-.9-1.1,1.4-1.5,3.2-1.5,5s-1,2.2-2.1,2.3l-3.5.3-.3,2.9c-.3,2.6-2,2.8-4.7,3.1l.9,2c.3.6.1,1.9-.4,2.2-1.5,1-3.7,0-4-1.4s0-1.5.3-2.3c-.8-.3-1.9-.8-2.2-1.5s-.2-2.2.4-2.9,1.9-.9,2.8-.4,1.2.3,1.9,0l1.1-.5c.3-.1,0-1.3-.3-1.3-.9,0-2.5.7-3.5.8-1.6.3-3.3-1.9-3.4-3.3s.9-2.3,1.7-3l2.6.6c1.3,2.2,3.6-.3,6.6,1.5.8-.1,1.9-.7,2.6-1.2l.2-1.5c.6-.9,1.1-1.9,1.1-3.1-2.4-1.5-5.5-3.2-5.9-1.4,0,0-2.9,2-4.5,1.9s-2.1.2-2.7-.8-.3-.4-.3-.4c0,0-.7-2.4-.4-3.8s2.7-1.4,3.6-.8,2.1.1,2.1.1c.1-.3,1-.1,1.5-.1,0-.2,0-.8-.1-1-.7-1.4-1.8,1.1-4.5-.7l-.7-.4c-.2-.2,0-2.5,1.4-3.6s1.7-.6,3.1-.6l-.6-.8c-.6-1.1-.6-3.2.3-4.1s2-.6,2.9-.7c-.8-1.1-1.2-2.4-.4-3.5s1.2-1.4,1.7-1.5c.9-.2,1.8,0,2.6.6l1.6-1.7c1.4-.4,2.7.5,2.9,1.9l.7,6h.5s.6,1.3,1.4,2.5l2.7-.6c-.2-.8-1-1.6-1.6-2.1l-1-4c0-.2,0-.9-.2-1l-1-.4c-.9-.3-1.4-1.7-1.1-2.7.7-2.4,3.9-1.7,4.3-2.4s0-.7-.1-.7h-1c.1-2.3-.9-4.1,2-5.6.1-1.2.9-2.3,2.2-2.2,1.2.2,1.4,1.5,1.4,2.5.9.3,1.7.8,2.2,1.5,1.2,1.7,3.3,2,5.2,1.9.3-.9.6-2.5,0-3l-2.8-2.7c-.6.9-1.4,1.6-2.1,1.6-1.1,0-1.8-.7-2.1-1.4-.3-1.1.2-2,.9-2.7s2-1.4,3.3-.9c.3-1,1-2.1,1.9-2.3,1.3-.3,2.2.3,2.8,1.7.8-1.3,1.6-2.1,2.7-2.7s2.6-.4,3.4.9c.6-.6,1.4-1,2.2-.8s2.4,2.6,1.8,4.4.2,1.1.4,1.2c.6.3,2-.6,2.6-2.2s1.1-1.2,1.8-1.2,1.4.8,1.7,1.5c.4-.6,1-1.3,1.6-1.3,1.1,0,3.4,2,3.3,3.3s-1,1.8-2,1.9l-.5,3.1c.5.8,1.3,2.1,1,3s-1.6,1.7-2.9,1.8l-2.9.3c-1,.1-1.9.9-2.5,1.7l-1.8,2.7c-.3.5-.3,1.2.3,1.6l5.1,3.5c.6.4,1.6.7,1.8,1.3.4.8.1,1.5,0,2.4s.5,2.3.8,3.4,0,2.1.6,2.4c2.8,1.4,5.8,1.2,7,3.2l2.8,4.9c.5.9,1.3,2.1,2.3,2.3,1.2-.6,2.3-.9,3.6-.9l6-.2c-1.2-2.1-.4-3.3-1-3.7s-3,1.2-4.2-.9-.6-2.6.7-3.5c1-.7,2.2-.5,3.5.2.6-.7,1.4-1.2,2.2-1.2s1.6.5,2.3,1.1c1.3-.9,3-1,4,.2s1.1,2.7-.3,3.8c-.8.7-2.1.4-3.1-.1,0,1.4-.2,2.5-.7,4.2l8.3.7c.4,0,1.5.7,1.8.4l4.2-7.2c.3-.5,1.3-1.1,1.9-1.3l5-1.6,1.1-3.7c.2-.6.7-1.7.5-2.2-.4-1.1-.6-1.7-.2-2.7s1.2-.9,1.9-1.3c2-1.2,3.8-2.6,5.7-4.1l-1.8-2.8c-.6-.9-1.3-2.1-2.4-2.3l-3.6-.5c-.9-.1-1.9-.5-2.3-1.1-.6-.9-.5-1.9,0-2.8s-.4-2.1.4-4.3c-1-.3-2.1-.9-2.4-1.8-.6-1.9,1.8-3.7,3.4-3.5.5,0,1.2.8,1.5,1.2.4-.3,1.3-.9,1.8-.9,1.3,0,1.6,1.8,3.5,3.1.4.1,1.2-.7,1.1-1.1-.6-2,.7-4.1,1.9-4.4s1.6.3,2.3.9c.6-.9,1.5-1.5,2.4-1.3s1.8,1,1.8,2.1v1.3c.1,0,2.1,0,2.1,0,.1-1.2.8-1.9,1.8-2,.9,0,1.7.8,1.9,1.7.6-.3,1.5-.7,2-.5s1,1,1.4,1.6,1.4,1.1,1.7,1.7c.4,1,0,2-.6,2.5-1.6,1.5-3.3-.2-5.7-.3-.4.5-.9,1.4-.9,2v3.1c4.1,0,5-2.1,7.6-3.7,0-.5,0-1.7.5-2.3s1.3-.7,2-.4c1.4.5.8,2.3,1.7,2.8.7.4,1.4,1.1,1.5,1.9.2,2.1-1.7,2.4-1.5,3.3s.7.7,1,.6c1.3-.3,2.1.6,2.7,1.7l1.1,2c0-1,1.2-2,2.4-1.7s1.9,1.2,1.7,2.7c.1,0,.4.2.4.2.7-.9,1.2-1.2,2-1.2,1.3,0,3,1.6,3.1,2.9s-.4,1.5-.8,2.2c.9,0,1.8.1,2.6.5s.8,1.4,1,2.1c.4,1.4.1,2.1-1.1,3.3,2-.4,3.6-.2,4.4,1.5.4.8.2,2.1-.4,2.7-1.6,1.7-3.6,0-3.9.4l-1,1,2.6,1.9c.5-1.3,1.3-2,2.3-2,1.3,0,2.3.8,2.3,2.3,0,.8-.1,2.2-.4,2.9-.6,1.5-2.2,1.3-3.4,1.2s-2.3,0-2.9-1-1.3-2.1-2.6-1.7-3.1,1.3-4,2.4c-.4,1.6.2,3.9,1.6,4.7l1.8,1c2.3-1.8,4.1.1,5.6-1,.5-.9,1.4-1.6,2.4-1.6,1.3,0,1.8.8,2.4,1.9s.6,2.6-.3,3.7c-.8,1-2.4,1.4-3.6.4s-1.9-.9-2.7-.4c0,4.2,3.4.2,5.5,2.4s.7,2.1.4,3.1-1.1,1.2-1.9,1.4c.4,1.3.2,2.5-.7,3.6-.6.8-1.5,1.1-2.4.8s-1.5-1.5-1-2.5l1.2-2.5c-1.1,0-2.5-.2-3.5-.8-1.7-1-1-3.2-1.6-5.1-1-.5-2-.5-3-.4-3.5.4-2.1-4.6-4-7.2-1.1.9-2.2.8-3.4.6-.5.4-1.3,1-1.8,1-.8,0-1.5-.5-2.1-1l-7.9-6.7-2.5,9.2c.6,1.1.5,2.4,0,3.2-.8,1.1-2.1,1-3.3.9s-2.7-.5-3.3-2c-.3.7-.6,1.2-1,1.5s-1.6.4-2.3.2c-.8,2.4-4.5,2.4-5.5,1.7s-.9-1.4-.7-2l.8-2.5c-1.6.3-2.8-.4-3.5-1.6-.7-1.2-.4-2.6.9-3.6l-.5-2.5c-1.7.6-3.2.7-4.6,1.6-2.1,1.3-2.9,5.8-5.3,8.5-.4.5-1.8.2-2.4.4-1.4.3-2.6.2-3.7-.8-1.5-.5-3.7-.2-5.3-.3v2.9c0,0,4.9,2.9,4.9,2.9l9.7,5.1c1.3.7,2.3,1,3.8.8,1.2-.2,2.8.2,3.4,1.4s.7,2.4.4,3.2l-.9,2.7c-.3.8-1,1.7-1.7,2-1.1.4-2,0-2.9-.6l-1.6,1.3c.9,1.3,1.6,2.8,2.7,3.8l2.4,2.1c1.2-1.2,3-2.1,4.3-1.7s1.3,1,1.8,1.7c.3-.7.7-1.7,1.2-2.4.9-1.4,3-1.5,4.1-.4,1.2,1.2,1,3-.2,4.2s-1.6,1.3-2.5,1.3c-1.1,0-1.8-.8-2.5-1.9-1,3.5-2.6,2.2-4.3,3l-.5,5c-.3,2.4-.7,4.7-.7,7.1.9.7,1.9,1.2,2.5,1.9.9,1.1,1.9,2.2,2.9,3,1.3,0,1.4-1.3,1.9-1.9l6.8-7.2c.7-1.2.8-2.4.2-3.7.3-1.9.5-4.1-.7-5.7s-1.1-1.9-.4-3.1,1.8-1.1,3-.6l2.9-2.2c1.3-2.2,2.9-3.8,4.7-5.6s1.7-1.5,2.8-.9c1,.5,1.2,1.7,1,2.8s-.2,2.4-1.8,3.2c.7.8,1.4,1.4,2.4,1.9l2.1,1.2c1.6-1.8,3.8-1.8,5.5-.3.8.7,2.5-.7,4.2-.8v-2.2c.1-.6,0-1.6-.1-2h-2.3c-.6.8-1.7,1.4-2.6,1.2-1.4-.4-1.6-1.4-1.7-2.7-.2-3.7,3.1-3.1,2.7-5.9-2.1-1.1-4.1-.6-5.8.4l-2.1,1.2c-.5.3-1.5.6-2.3.5s-1.2-.8-1.8-1.4c-1.5-1.5-2.2-3.6-.7-5.4-1.4-.6-1.6-1.8-2.2-2.8s-1.4-2-.8-3.1,1.9-1.3,3.2-.9c1.5.5,2.7,1.2,3.1,2.6s0,3.1-1.3,3.9l1.5,2,1.7.6c1,.4,1.8-.4,2.2-1.4s1.8-1.6,2.8-1.2l2.5.8c.8.3,1.4.6,2.3.7s1.7.5,2.3,1.2c.9-1.2,2.4-1.4,3.9-1.2,1.1.2,2.1,1.4,3,2.4.5.6,1.2,1.1,1.2,1.7s-.4,1.8-.9,2c-.8.3-1.8-.1-2.6-.3-.7-.1-1.6-.2-2.1-.4s-.9-1.2-.9-2l-1.5-.8c-.6,1.2-.8,2.5-.4,3.9,1.8,0,3.2.4,3.9,2.1s-.2,1.8-.4,2.4c1.5.9,1.4,1.7,1,3.3,1.2,1.1,1.1,2.3.4,3.7s-.4,2.1-1.2,2.5c-2.1,1.1-3.6-.8-3.9-.5l-.7,1,1.8.6c.9-.5,1.7-.5,2.6,0s1,1.4.9,2.4-.6,1.7-.9,2.5c-1.1,2.2-2.3,3.6-4.8,3.3s-1.9-1.1-2.7-2l-.7,1.9.6,2c.9.2,2,.6,2.3,1.3.6,1.1,0,2-.5,2.9-.6,1-1.2,1.4-2.3,1.9-1.1.5-2.2.9-3.1,0-.9-.8-1-2.3,0-3.2v-.4c-2.5-.7-1.3-4.1-1.9-3.4-.9,1-.9,2.3-3.4,1.7-.1,3.6.9,3.5,1.7,4.5s1.2,1.4,1.8,1.5c1.2,0,2.2.4,2.7,1.3s.3,2.2-.3,2.9c-.8.9-2.1.9-3.2.3l-1.5,1.1c1.1.8,1.9,2,2,3.4s-.6,2.5-1.6,3c-1,.6-2.3.4-3.4,0-.6.2-1.6.7-2.2.6-1.5-.3-2.9-2.5-3.7-4.5-.6,0-2.2,0-2.7.5l-2.4,1.7c-.5,1.8-2.2,2.7-4,2.2-.2,1.4-1,2.6-2.8,2.5l-1.3,3.1c1.5,1.5,3.3,2.9,5.5,3.4l3.8.8,1.1-.8c-1.3-.6-1.9-1.6-1.8-3s1.2-2.3,2.7-2.4,2.4.8,2.8,2.2-.4,2.5-1.6,3.3c1,1,1.4,2.1,1.1,3.3s-1.6,1.9-3,2c.2,1.3,0,3.1-1.8,3.7-.9.3-2.1-.3-2.6-.9-.8-1.1-.5-2,.3-3.2-.2-.5-1.1-1-1.8-1-.2.5-.2,1.4.2,1.9.6.9.4,1.8.3,2.8s-.2,2.1-.9,3c-1,1.3-2.1.6-3.5.8l-2.6.3c-.5.5-1.2,1.3-1.8,1.4s-1.8-.5-2.4-1.1l-.6-.6c-.6-.6-1.2,1.7-2.5,1.9-.7.1-1.8-.2-2.5-.6-1.3-.8-2-1.9-1.6-3.3.7-2.6,3.5-1.7,4.2-2s.4-.8.3-1.1l-.7-1.8c-1.3,0-1.6,2-4.1,2.8.2,1.5-.4,2.8-1.8,3-1.2.2-2.3-.6-2.6-2.3-.7,1.2-1.6,2.1-2.8,1.9-1.4-.1-2.3-1.1-2.4-2.6-1.6-.9-2.5-2.5-1.7-4.4,0-.5-1-1.3-1.5-1.2-1.1.5-2.1.7-2.9,0s-1.1-1.7-.8-2.7,1.6-1.4,2.7-1.5c1.1-1.7,2.6-1.5,2.4-2.9s-.9-.7-1.2-.6c-3.1.6-4.3-.9-5.9-.1l-1.4,1.5,1.8,1.9c.5.6.5,2.1.1,2.7s-1.6,1.1-2.8,1h-.7c-.5,0,1,1.1.5,2.6s-1.1,1.1-1.7,1.5c0,2.1-2.1,4.5-3.7,4.6s-1.8-.7-2.9-1.9c-.4,1.6-1.3,2.7-2.8,2.5-1.9-.3-2.8-2.1-2.3-3.9-1.3-.5-2.2-.9-3.4-1.7-.5.7-.9,1.9-.5,2.8,1.8-.5,3.2,0,3.9,1.6s0,2.9-1.5,3.8-1.5.7-2.5.5-1.2-.9-1.7-1.7c-1.5-.1-2.1,2.3-4.1,1.6s-1.3-1-1.8-2.1c-1.3,1-2.7,1.4-4.2.7s-2.1-1.8-2-3.4l-.8-1.7c-.6.9-1.3,1.6-2.1,1.7s-2-.4-2.6-1.3-.6-2-.2-2.9c-2,.2-3.8-1.5-3.5-3.2s.7-1.3,1.4-1.9c-1.1-.4-1.9-1.5-1.7-2.8l.4-2.8c1,.2,1.4.2,2,0h1.3c.3,0,.8,0,1.1.1s1.3,2.6.8,3.9-1,1.1-2,1.6l1.3,1c1.6-1.2,3.3-1.2,5.2-1,1,0,2.8-1.1,3.1-2.1ZM116.2,17c.9-.9,2.3-1.5,2.8-2.6s.5-2.9.2-4-.5-2-.4-3.2c.2-1.9-1.4-1.5-3.4-3.7-.1,0-.5.9-.5,1.3v2.1c0,1,.1,1.9-.5,2.8l-1.5,2c-.4.5-1.1,1.7-.9,2.4l1.7,5.4,2.5-2.5ZM46.1,15.9l.2-3.5c-.8-1.9-2.5-2.6-2-4.7l-.6-2c-.2-.8-.5-1.1-1.3-1h-2c-.1,1.3-.2,3.1-.5,4.3-.6,2.5,5.1,10.1,5.1,10.1.5-.9,1-2.2,1.1-3.1ZM53.1,11.8v-2.7c-.1-.2-.2-.5-.3-.7s-.6,0-.8,0l-2.4,1.5c-.6,1.2-.2,2.8.9,3.5l2.6-1.7ZM109.4,10.1l-2.1-1.4c-.6-.4-1.4-.6-1.8-.2v3.2c.3,1.1,2,1.6,3.2,1.7l.7-3.3ZM32.1,26.5l2.8-1.1c1.8-.2,3.7-.5,5.5-1.1l2.5-.8c-1.2-2.3-3.1-3.4-5.1-4.6l-6.5-2.7-2.1-.5v2.6s-2.6,1-2.6,1l-.5,1.8c.5.7.5,1.3.1,2.2,1.6.5,2.3,1.8,2.5,3.3,1,.6,3.5,0,3.5,0ZM131.8,23.5l1.4-.6-.6-3.9c-1,0-2.1,0-2.7-.7s-.4-1.7-.1-2.7l-4.6,1.2c-1.5.4-3.1,1.5-4.6,2.3-1.9,1-3.4,2.4-4.7,4.2l12.2,3.6c.5.1,1.2.2,1.5,0,1.2-.6,0-2.4,2.1-3.4ZM134.7,28.4l2.7.5c.6-1.1,1.3-2.1,1.5-3.1l1-3.5-.7-2.4c-.1,1-.9,1.6-1.9,1.8l-1.1,2.2-.2,2.1-1.4,2.4ZM144.5,23.2l-.4-.8c0-.1-.7,0-.7.2l-.2,2.2,1.4-.4c.3,0,0-.9,0-1.2ZM15.3,24.7c.6-.3.5-1.5-.3-1.7s-1.4-.2-1.5.8,1.1,1.2,1.8.9ZM138.5,39.6c.8-1.4,2.1-1.9,3.7-1.5l4.5-2.9c.3-.2,1.4-.2,1.5-.5s0-1-.3-1.3c-.9-1.3-.3-2.7.9-3.4l-.3-2.4-2.5.5c-1.3.3-2.3.4-3.8.2l-1.5,3c-.9,1.7-2.5,2.2-4.2,1.4s-3.6-.7-5.4-1.2l-5.2-1.4-9.6-2.8c-1.1-.3-3.1-.9-4-.4l-3.9,2.4-1.9,10,.3,2.7c1.8,1.1,2.2,3.2,1.5,4.9l3,1.1c.5-.6,1.3-1.5,2.3-1.4s1.5.8,2,1.6c.5-1.3,1.6-2.2,2.9-2.7,1.4-4.1,2.3-8.3,3.2-12.6s2.1-1.8,3.2-1,1,1.4,1.3,1.9l7.5,6,2.4,2.3c0-1.3.9-2.4,2.4-2.6ZM81.5,81.3c1-.4,1.9-1.8,2.5-2.6l5.8-6.6c1.9-2.2,4.1-4,6.6-5.6.5-.3,1.1-1,1.4-1.5l-10.7-5.5-6.3-3.4-6.3,3-12.8,5.6c0,.8.5,1.3,1.2,1.8,5.2,3.1,8.8,9,12.7,13.8s2.1,1.6,3.1,2.3l2.8-1.3ZM77.6,95l2.1-.4c.1-.1,0-1-.1-1.1l-.7-.3c-.4,1.1-1.6,1.6-2.5,1s-.8-2.1-.3-2.9,1.8-.9,2.9-.8c.6-.1,1.6-.4,2.2-.2,1.2.4.9,2,2.3,2.4,1.2.3,2,1.3,2,2.5s-.5,2.3-1.7,2.6-2.2,0-3-.8c-.6.6-1.3,1-2.2,1.1-1.7.2-.5,2.3-1,4.2l1.6,1.3c1.2-.7,2-.8,3.3-.8,1.4-.9,3-1,4.6-.4,3.4-.4,6-2.2,8.5-4.2l2.7-2.2c-1-1.9,0-3,.5-4.6s.7-3.2.7-4.7v-5.2c0-1.3-1.4-2.7-2.2-3.7l-3.5-4.7-4.8,6c-.4.5-1,1.2-1.1,1.8-.3,1.2-1.6,1.1-2.2,1.6l-3.5,3c-.5.4-1,1.6-1.7,1.8-1.6.5-3.7,0-4.7-1.3-.8-1-1.6-2.1-2.4-2.9-.8.2-1.8.3-2.3,0s-.7-1.2-.9-2.1c-.8-3-3.3-5.4-5.6-7.7-2,3-4,5.5-6,8,0,3.6.3,7.2.6,10.7,1.2,1.3,1.5,3.2.7,4.6-1.2,1.5-2.7,2.5-4.6,1.8-2,1.1-1.6,3.3-3.9,3.9,0,1,2.3,2.3.7,4.1l-1.8,2c-.3.3-.8.9-.6,1.2l.7,1.1c0,.2,3.1,4.5,5.8,4.7s3.6,1.1,4.2,2.9-.2,2.1,0,3.1c.1,1.8,4,1.3,5,4h2.5s1.5-1.9,1.5-1.9c.8-1,1.5-1.8,2.7-2.6v-2.6c0-.5-.2-1.7.1-2.1s.9-.7,1.3-.9c-.6-.5-1.1-1.3-1.1-1.9s.4-1.6.9-1.8l1.5-.8,2-1.1c.9-.5,1.6-2.2.5-3-2.3-1.6-3.9-1.8-4.2-5.7s.4-1.3.5-1.7l.7-2.9c.2-.7.7-1.4,1.2-1.7s1.6.3,2.1.2ZM139.3,87.1c0-1.4.7-2.4,1.5-3.4l.8-2.4c-1.4.6-2-.9-2.9-1.4-1-.5-2.6.2-3.4-1.3-.7.3-1.5.6-2,.9-1.8,1.3-3.3.7-4.6-.7s-1.8-1.8-2.6-3.2l-4.7,3.4c-.3,2,.4,3.8.7,5.7l.5,3,3,1.4c.9.4,3,.5,4,.3,1.4-.3,2.3-.5,3.7-.5,1.9-1.1,2-3,3.9-3.1.9,0,1.8.6,2.2,1.3ZM41,103.7l1.8,2.4c1.1.1,2,.9,2.7,1.5,1.8.3,2.7-4,2.6-4.3-.3-.8-2.2-1-2.4-2.9s.4-1.6.9-2.2c-1.6-.3-2.7-1.4-3.8-2.5l-3.9-3.7c-.8-.7-1.6-.7-2.4-.2l-4.1,2.4c-2.3,1.3-.6,3.3-2,5.7l-2,1.6c.2,1,0,1.6-.2,2.3.8.5,1.4,1.4,1.8,2.4.3.2,1.3.3,1.7.2.4-1.2,1.4-1.6,2.1-2.5s1-1.8,1.7-2.1c1.8-.7,4.1,0,5.6,1.9ZM120.5,101.8c2.3-1,3.6,0,4.7,1.6l2.3,2.6c.4.4,1.7.1,1.9-.3.4-.8.9-1.2,1.7-1.7-1.9-1.4.1-2.8-1.2-3.4s-2.6-2.6-2-4.4l-.8-2.3c-3.4-.2-5.6-3.3-6.7-2.3l-3.6,3.3-3.9,3.6c1.2,3.6-2.8,6-2,6.9s1.4.6,2.5,2,1.2.4,1.4,0l.7-1.1,2.5-2.6c.7-.8,1.5-1.5,2.5-1.9ZM98.8,121.7l-.3-1.8c-.3-1.4-.2-2.8,1.1-3.6,2.9-1.9,5.9.1,7.2-3.6.6-1.7,2.2-1.7,2.3-2.8s-.4-.9-.7-1c-1-.5-1.4-1.6-1.6-2.8s-1.2-2.1-.2-3.3.6-.8.6-1.1-.5-.8-.7-1l-2.8-1.8-2.6-1.2-2,2.5c-2.1,2.3-4.9,3.6-7.7,5.1l-.3,3.3v3c0,1.7-1.4,2.7-2.4,3.9-.7.8-.8,2.5-.7,3.6v2.5c1,.3,1.8,1,2.2,2l1,2h2.5c1.1-2.1,3.3-2.1,5.1-3.8ZM86.7,108.2c-.6-1.9-2.3-2-2.3-2-.6-.2-1.9.5-2.4.9s-.7,1.7-.5,2.2,1.4,1.3,1.9,1.3c.9,0,3.8-.6,3.2-2.5ZM52.3,129c.4-1,1.2-1.8,1.6-2.8l1.4-3.7c.4-1,1-2.1.5-3.2l-3.4-1-3,3.7-1.2,2c-1.8,3.1,1.8,2.8,2.8,5.9.4-.1,1.1-.6,1.3-1ZM110.2,127.3c-.2-3.1,1.6-4.3-1-6s-2.2-1.7-3.1-2.8l-3.4.5c-.2,1.7.3,2.6,1.2,3.8l.9,3.3,1.2,2.4c.2.3.4.9.7,1,.8.4,3.5-.5,3.4-2.2ZM43.8,126.5c.2-.3.7-.9.7-1.2s-.3-1-.5-1.2l-1.3,1.3,1.1,1.2Z"/>
  <path class="st0" d="M90.4,8.7c2.6-.2,2.7,1.9,3.6,2.2s.8-3.2,3.4-2.8,2.6,1.4,2,2.8l-1.9,4.2c-.5,1.2-.7,1.9-1.4,3.1s-1.4,3.2-1.3,4.6c.1,2.3,2.1,4.5,4.1,5.4.8.3,1.7.8,1.9,1.4.4.9,0,1.9-.6,2.5s-1.5.3-2.5.2c-3.6-.5-7.3-.6-11-.3s-.6,2.1-3.1,3.4c-.8.4-2-.2-2.7-.2-1.3.2-2.3.2-3.4-.2-.7.5-1.9,1.3-2.8.8-1.1-.5-1.5-1.6-1.3-3-.3-.5-1.4-.9-2.2-.9l-7.4.2c-1.4,0-2.8,1.3-4.4.5-.6-.3-1.4-1.2-1.4-1.9s.7-1.7,1.5-2.1c2.3-1.1,4-3.3,4.6-5.8l-1.4-4.1-1.1-2.9-.8-2.4-.9-2.4c-.5-1.3,0-2.5,1.1-2.9,1.4-.6,2.4.3,2.9,1.5,1.2,2.8-.2,2.7-.1,3.4s.4.6.5.5l.5-.6c-.1-1.7,1.7-4,3.6-4,1.1,0,2,.6,2.5,1.7.6-.4,1.5-.9,2-.7.7.3,1.1,1.1,1.5,1.7l1,1.3c.3.4-.2,1.3-.2,1.8,0,1.1-.1,2.3-.8,2.9s-.4.7-.3.8l.6.7c1.5-2.6,3.5,0,4.1-2.1-1.4-1-1.7-2.5-1-3.9s2.1-1.7,3.6-1.3c1.1.3,1.7,1.5,1.7,2.6s-.7,2-1.6,2.7c0,1.6,2.1.1,3.6,2l.6-1.2c-.8-.7-.9-1.9-.9-2.7-1-1.5-1.1-3,.2-4.5s1-.9,1.5-1,1.2.4,1.8.9c.5-1.1,1.3-1.8,2.4-1.9ZM70,19c1-1.2-.4-2.9.8-4.7.3-.4-.1-1.5-.5-1.4-.8.4-1.4.8-2.2.9s-2.5.5-2.2,1.7,1.1,3.1,1.7,4.5l2.4-1.1ZM91.4,20.4l1.9-4.3-2.5-1.8-2-1.5-.8,1.2c-.2.3.4.9.5,1.2.4,1.5.4,2.8.5,4.4l2.3.9ZM71.2,28.2c2.1,0,1-4.3,4.6-4.7-.2-.6-.7-1.3-1.4-1.7-.8,1.6-1.6,1.7-3,1.9l-3.6.5-1.8,3.8h5.2ZM87.4,28.2h5.6s-1.8-3.9-1.8-3.9l-3.4-.4c-1.2-.2-2.4-.7-3.2-1.4l-1.9,1.3,1.8,1.2c.8.6,1.5,1,1.7,2.1s.7,1.1,1.3,1.1ZM80.4,31.8l1.4-1c-.1-1,0-1.9.2-2.7-.5-.4-1.3-1-1.6-1.5s0-1.6.3-2.3c0-.3-.7-.9-1.1-1s-1.2.7-1.1,1c.5,1.4,0,3.2-1.7,3.5.4,1.1.5,1.9,0,2.9l1.1.5c.6.3,1.9,1,2.4.7Z"/>
  <path class="st0" d="M58.3,56c.8,1.7.3,3.4-1.1,4.1-1.4.7-3,0-3.9-1.3s-.9-1.7-.7-2.5.8-1.6,1.5-1.9c1.6-.7,3.5,0,4.2,1.6Z"/>
  <path class="st0" d="M103.3,60.6c-1.5.2-2.5-.8-2.8-1.9-.7-2.1,1.9-4.6,3.2-4.7,1.1,0,2,.6,2.3,1.4s0,2-.6,2.9-.9,2.1-2.1,2.3Z"/>
</svg>