<?xml version="1.0" encoding="UTF-8"?>
<svg id="Layer_1" xmlns="http://www.w3.org/2000/svg" version="1.1" viewBox="0 0 143.3 132.3">
  <!-- Generator: Adobe Illustrator 30.5.1, SVG Export Plug-In . SVG Version: 2.1.4 Build 3)  -->
  <defs>
    <style>
      .st0 {
        fill: #0c6d2f;
      }
    </style>
  </defs>
  <path class="st0" d="M106.7,109.4c-5.5,2.5-10.9,2.7-16.4,1.6-4.3-.9-6.3,2.1-12,3-5.6.9-2.2,7.5-7.6,13.9-2.3,2.7-5.2,4.4-8.8,4.4-2.8,0-5.6-.3-8.2-1.3-12.2-4.9-22.5-17.1-29.7-28.2C10,80.9-1.6,50.4.2,24.3c.4-6.2,1.9-11.9,4.5-17.3C7.6,1.1,13.7-1.4,20,.8c9.6,3.4,11.4,10.5,16.4,9.3,10.7-2.7,17.1-3.2,28.1.4,11.6,3.8,22.2,9.7,31.6,17.5l7.6,7.7c.8.8,1.8,1.9,2.8,2.1,2.9.6,8.4-6.6,19.1-8.1,6.1-.8,11.5,2,14.2,7.6,2.8,5.7,3.7,12.1,3.4,18.8-1,23.1-15.3,43.9-36.6,53.4ZM57.7,102c-9.9-11-20.4-25.4-23.9-39.5-.9-3.7-.7-7.1-.4-10.9.3-3.9-8.8-8.2-11.1-20.2-1.3-6.6.6-13.1,6-17.1.9-.7,1.8-1.9,1.8-2.9s-.9-2.3-1.7-3C21.9,3,13.6-1.4,8,5.8c-1.5,1.9-2.6,4.4-3.4,6.8-4.2,12.8-2.8,27.8.5,41,4.6,18.2,12.1,35.4,22.6,50.9,4.2,6.2,8.7,11.6,14.2,16.4,7.4,6.5,19.7,13.8,26.8,6.1,3.3-3.6,6-12.2,1.8-14.5s-8.8-6.2-12.7-10.6ZM86.9,55.9c1.6,1.1,3.4-.1,4.3-1.2,3.3-4.1,6.7-7.8,10.5-11.4s1.6-2.1,1.7-3.3c0-3.2-8.8-10.8-13-13.8-9.3-6.7-19.4-11.8-30.5-14.8s-13.8-1.8-20.7.3c-.7.2-1.8.9-2.1,1.4s-.2,2.1.3,2.7c6.2,8.3,11.4,16.9,16,26.1,1.2,2.5,3,4.1,5.8,4.6l8.1,1.4c7.2,1.3,13.6,4,19.8,8.1ZM39.1,47.3c6.9-3.1,13.2.3,12.2-5.1-4.8-9-9.7-17.5-15.8-25.5-.9-.9-2-1.7-3.1-1.8s-2.3.6-3,1.3c-4.7,3.8-6.2,9.7-4.9,15.6,1.3,5.5,4.5,10,8.2,14.1,1.8,2,3.8,2.6,6.5,1.4ZM90.8,106.1c-.3,1.8.6,3,2.1,3.2,4.5.6,9,0,13.2-1.9,8.2-3.9,15.6-9.1,21.4-16.2,8.2-9.9,13.1-22,13.8-34.8.3-6.5-.5-12.6-3.2-18.2-2.5-5.1-7.5-7.4-13-6.4-5.2,1-9.7,3.6-14,6.6-2,1.3-3,3.4-2.2,5.9,2.2,6.3,0,12.6-5.4,16.4l-5.8,3.3c-1.4.8-2.7,2.2-2.2,4,3.4,11.5,2.6,28-4.6,38.2ZM106.6,45.1c-.6-1.2-2.6-1.1-3.6-.2-4.1,3.9-7.8,7.9-11.1,12.5-.7,1-.3,3.2.4,3.9.7.7,2.4,1.3,3.5.9,7.7-2.6,14.4-9.7,10.8-17.1ZM59.1,59.4l-3.1-7.1c-.6-1.5-2.1-3.6-3.7-4-4.9-1.4-12.8.1-13,2.3s.3,1.4.6,2.2c5.1,4,10.6,7,16.8,9.3.8-.1,1.6-.2,2-.5s.6-1.7.4-2.2ZM80,65.6c2.7-.2,4.6-1.6,5.8-3.6,1.1-1.8.7-3.8-1.1-5-4-2.7-8.2-5.1-13-6l-11.4-2.3c-.7-.1-1.8.5-2,1s-.3,1.6-.2,2.1l4,9.2c.7,1.7,2.3,3.1,4,3.5,4.4,1.1,9,1.4,13.8,1.1ZM64.7,74.2c-2.4-7-2.3-7.8-8.8-10.2-6.3-2.4-11.8-5.3-17.1-9.4-.6-.5-2.3-.6-2.8-.1-2.7,2.3,1.2,13.1,3.6,18,6.5,13.1,15.5,24.6,26.1,34.5l3.8,2.6c.5.3,2.1.2,2.5-.3,2.7-2.9-4.8-27.6-7.3-35.1ZM89.6,104c6.1-9.4,7-24,4.1-34.3s-3.1-3.7-5.5-2.9c-1.7.6-3.3,1.6-4.2,3.2-3.5,6.1-4.8,12.7-4.6,19.7.2,5.3,1.1,10.3,4.4,14.5.7.9,2.1,1.8,3.2,1.7s2.1-1,2.7-2ZM82.6,110.3c1.2-.8,1.3-2.4.5-3.3-3.3-3.8-5-8.1-5.6-13.1-.9-8,0-15.8,3.5-23.1,0-.8-.2-1.9-.5-2.3s-1.2-.6-1.7-.6l-10.8-.7c-.6,0-1.7.1-2,.5s-.5,1.5-.5,2.2c2.8,8,5.1,15.8,7.1,24l2.4,14.7c.2,1.3,1.3,2.9,2.7,3.1s3.5-.4,5-1.3Z"/>
</svg>