<?xml version="1.0" encoding="UTF-8"?>
<svg id="Layer_1" xmlns="http://www.w3.org/2000/svg" version="1.1" viewBox="0 0 156.3 156.8">
  <!-- Generator: Adobe Illustrator 30.5.1, SVG Export Plug-In . SVG Version: 2.1.4 Build 3)  -->
  <defs>
    <style>
      .st0 {
        fill: #0c6d2f;
        stroke: #0c6d2f;
        stroke-miterlimit: 10;
      }
    </style>
  </defs>
  <path class="st0" d="M100.8,152.4c-3.5,2.7-10-.3-14.2-2.8-.4,2.3-.9,4.3-2,6.3-.4.6-2.2,0-2.5-.7-1.6-3.8-3.1-7.3-3.2-11.4,2.2,3.6,1.6,8.6,5,12l1.8-6.9-4.7-3.9c-.7-.6-1.8-1.5-2.6-1.1-2.8,5.5-7.4,13-12.5,11.5-1.8-.5-3.2-2.4-4.3-4.2-4.7.4-10.1,1.5-14.3-1.8,4.5,1.2,8.8,1.8,13.8.9l-1.4-4h-5.6c-5,0-9.3-1.3-14.4-2.5l6.5,5.2c-3.6-.4-5.2-3.8-8-5.5-4.9-3.1-10.8-4.7-14.3-9.8,4.2,2.9,7.6,5.9,12.6,7.8l-3.9-7.9c-6.7-3.8-12.5-8.4-18-13.9,1.6,4.6,4.4,8,7.1,11.9-4.8-3.8-7.1-9.4-9.5-14.9-4.4-6.3-8.9-12.8-9.7-20.7,2.4,6.4,4.5,12.6,8.9,18-1.6-6.4-2.1-12.4-1.6-18.9-3.6-7.5-6-14.9-6.9-23.4-1.3,4.7-1.3,9.6-1.2,14.6v6.3c-2.2-8.3-.7-16.6,1.2-24.6.1-7.5.7-14.9,4.5-21.7-.4,2.7-1.4,5.1-2.1,7.8-1.1,3.8-1.4,7.7-1.6,11.4,3.1-8.6,7.8-15.8,13.4-22.5.5-4.9,2-9.1,3.8-13.7-5.4,3.8-8.2,9.1-12.1,14.4,2.6-6.9,8.2-12.2,13.7-17.1,2.2-3.4,4.5-6.6,7.5-9.2l4.4-3.1c3.8-2.7,8.4-3.8,12.8-5,2.3-1.6,4.1-4.8,7.4-4.6-2.2,1.5-3.9,2.6-5.7,4.3,7.3-.4,13.3,0,19.8,2,.2-.9.5-2,.5-2.5s-1.4-1.2-2-1.5c-4-2.1-7.9-2.8-12.7-2.3,4.8-2.2,9.8-.2,14.6,2.6l1.5-5.2c3.2-4.6,5.6,4.8,7,11.4,2.6-4.9,6.8-12.6,11.4-12.1s4.1,2.4,5.4,4.5c4.8-.7,9.9-1.4,14.2,1.5-4.9-1-9.3-1.9-14-.5l1.8,3.8h5.6c4.8-.1,9,1.2,13.9,2.2-2.2-2.1-4.3-3.6-6.7-5.2,3.6.6,5.9,3.5,8.4,6,5.5,2.5,11.1,5,14.9,10-4.4-3.4-8.5-6.4-13.7-8.6l4,8c6.7,3.6,12.5,8.2,18.1,13.7-1.2-4.4-4.1-7.3-6.6-11.3,4.3,3.6,6.8,8.9,9,14.3,4.7,6.4,9.1,13.2,10.2,21.3-2.6-6.6-4.6-13-9.3-18.8,1.5,6.1,2.5,12.4,1.9,19.2,3.7,7.2,6,14.6,7.1,23.1,2.1-6.7,1-13.5,1-20.4,2.4,8.2,1.1,16.5-1,24.5.2,5.2-.3,10.2-1.5,15.3-.7,2.2-1.5,4.4-2.9,6,2.3-6.6,3.9-12.5,3.6-18.7-2.9,8.4-7.2,15.3-12.6,21.9-1,1.2-1.6,9.2-4.5,14.7,2.8-2.2,5.2-4.6,7.2-7.5l5.4-7.8c-2.6,7.3-8.3,12.1-13.4,17.5-3.3,3.5-5.2,8.4-10,10.7,2.8-3,5.4-5.5,7.4-8.9-6.3,4.1-12.4,7.3-19.3,9.2l-2.9,5.8c4.9-.6,9.1-2.8,13.7-5.2-1.9,2.4-4.6,3.6-7.5,4.4l-7.2,2.1c-2.2,1.7-3.9,4.4-7,4.8l5.5-4.5h-8c-4.2.2-7.7-1-12.1-2.1l-.6,3,5.6,2.7c2.7,1.3,5.6,1.1,8.6.8ZM76.8,12.2c-1.3-3.9-1.7-7.7-4.2-11.1-1.5,1.9-2.4,4.8-1.7,6.8l5.2,4.4c.1.1.3,1,.4,1.2s.7-.2.6-.3l-.3-1ZM78.8,12.8c5.1-3.1,9.2-5.5,14.4-6.9-.5-1.8-2-4-3.9-4.1-4.4-.2-8.4,6.7-10.5,11ZM95.2,10.4l-1.4-3.8c-5.2,1.6-9.4,3.4-13.8,6.6,5.1-1.5,9.5-2.2,15.3-2.8ZM75.3,12.7l-4.9-4.3v2.8c0,0,4.9,1.5,4.9,1.5ZM68.5,11.4c-7-1.9-13.4-2.6-20.4-1.7-1.3,1.7-2.3,3.8-3.1,5.6l6.8-1.4c9.7-2,18.7.2,16.8-2.6ZM27.3,23c5.1-3,10.3-5.4,16-7.1l3.1-5.9c-4.2,1.2-8.4,2.1-11.8,4.7-2.6,1.9-5.6,5.8-7.3,8.3ZM89.3,13.8l6.8.6-.9-3.3-6.3.9-7.5,1.6,8,.2ZM117.3,13.9c-4.3-1.2-8.5-2.3-13-2.5l-7.6-.5c.2,1.6.5,2.7,1.1,3.8,8.6.9,16,3.6,24,7.2-1.2-3.1-2.7-5.5-4.5-8ZM42.5,23.5c8.6-4.1,16.8-7.2,26-8.4-.4-.9-.7-1.4-1-1.4-8.2,0-15.5.7-23.2,2.6-.8,2.4-1.4,4.4-1.9,7.2ZM96.2,15l-7.7-.5c-2.1-.1-4.1-.3-6,0l14.3,4.1-.6-3.6ZM69.4,20.6l5.9-5.3-5.4,2.1-.5,3.1ZM41.3,35.3c8.6-7.6,17.3-13.5,27.2-18,0-.6,0-1.7-.3-1.6l-1.2.4c-8.7,1.8-16.8,4.4-24.7,8.4-.7,3.7-1.1,7.1-1,10.8ZM96.7,19.5c-5.5-1.7-9.7-3.3-15-3.9,5.5,3.3,10.2,6.3,15.6,10.1l-.6-6.2ZM124.7,34.7c-.4-4-1.2-7.8-2.5-11.6-8-3.7-15.7-6.3-24.6-7.7l.8,4.2c9.7,3.4,17.8,8.6,26.3,15.1ZM69.4,34.5l3.1-8.7,3.6-9.8-6.6,5.5v13ZM97.5,27.1c-5.8-4.1-10.6-8.5-17.3-10.7,7.2,8.7,12.3,17.4,17.4,27.1v-16.4ZM41.1,24.2l2-7.4c-5.6,1.8-10.9,4.1-15.8,7.2-2.9,1.8-5,3.7-6.2,7-1.2,3.3-2.2,6.7-2.7,10.4,6.7-7.1,14.2-12.5,22.7-17.3ZM77.7,83.5c-2.9-.9-4.6-2.9-4.5-5.4s2-4.1,4.4-5l-.2-27.5-.2-8.3v-5.7c0-4.9,0-9.4-.5-14.5-3.1,7.2-5.8,14.1-7.3,21.2.1,21.8,1.8,43,3.9,64.7,1.1,11.6,2.5,22.4,4.7,34.2v-35c0,0-.3-4.1-.3-4.1v-14.7ZM87.7,114.4c5.7-22.4,8.9-45.2,9.9-68.2-4.6-10.4-10.4-19.9-17.4-28.6-.6.2-1.4.5-1.4.8l.3,1.6c5.1,31.2,7.5,62.4,8.6,94.4ZM42.8,58.5c6.5-13.3,14-24.7,23.6-35,2.1-1,2.5-3.3,1.7-5.2-10.2,4.7-18.9,10.9-27,18.2,0,7.7.4,15,1.7,21.9ZM124.5,55.9c1-7.1,1.2-13.1.5-19.6-8.1-6.9-16.9-12-26.7-16.1l.5,6.7c10.2,8.3,18.7,18.1,25.7,29ZM79,125.3v12.3c.1,0,.1,1.1.1,1.1,0,.2.4.1,1,.1l6.4-19.5-.5-18.6-1-17.6-1-14.4c-1-14.6-2.2-28.9-4.8-43.2l-.9-4.8-.2,12.2.2,25.1v3.9c.1,0,.3,11,.3,11,2.6.8,5.1,2.7,4.8,5.5s-2,4.5-4.9,4.9v31.3c.1,2.5.9,4.8.3,7.3s.1,2.2.1,3.2ZM64.6,53.4l3.4-13.3v-17.1c-11,11.2-18.8,24-25.1,38,2.9,16.2,7.4,31.6,14.1,46.5,1.3-18.5,3.7-36.1,7.6-54ZM145.3,58.8c.8-7.1-.7-13-2.3-19.1-5.4-6.4-11.6-11.6-19.1-15.6l2.4,12.2c7.7,6.4,13.8,14.1,19,22.5ZM39.8,36.8l1-11.5c-8.6,4.8-16.2,10.4-22.7,17.7-.9,7-.6,13.8.9,21.1,5.6-10.2,12.4-19.4,20.8-27.3ZM113.8,93.9c4.9-11.1,8.3-22.6,10.4-34.9-6.5-11.5-14.9-21.7-25.2-30.5v18.1c6.8,15.1,11.8,30.6,14.8,47.3ZM138.2,87.8c4.3-9,6.6-17.5,7.2-26.7-4.7-9.1-11-16.6-18.9-23.7.2,6.9,0,13.3-.8,20.4,5.8,9.3,9.6,19.4,12.5,29.9ZM41.8,60.9l-1-6.4c-.6-5.4-.8-10.7-1-16.4-8.4,8.2-15.4,17.5-20.5,28,2.3,10.6,6,20.2,11.5,29.9,2.3-12.2,5.8-23.7,11.1-35ZM77.3,137.5c-5.5-31-7.8-62-9.1-94.2-5.6,21.5-8.8,43.9-9.9,66.8,4.5,10.3,10.1,19.6,17.2,28.3.4.5,1.3.8,1.8.5s.2-.8,0-1.4ZM9.8,92.6c1.5-9.7,4-18.1,8.1-26.6-1.2-7.1-1.7-14-1.3-21.3-6.1,7.2-10.5,14.9-13.1,23.7.6,8.5,2.4,16.6,6.2,24.2ZM112.9,96c-2.8-16.3-7.3-31.9-14.1-47-1.6,23.8-4.9,46.3-11.1,68.9v16.1c10.7-10.7,19-24.3,25.2-37.9ZM116.1,119c8.5-8.4,15.3-17.6,20.7-28-1.8-8.7-4.6-16.7-8.6-24.4l-3-5.9c-2.3,12.4-5.8,23.8-11,35.2,1.2,7.6,1.9,15.2,1.9,23.2ZM56.9,128.1v-18.3c-6.7-14.9-11.7-30.1-14.8-46.8-5.1,11.1-8.4,22.7-10.4,34.7,6.7,11.6,14.9,21.3,25.1,30.3ZM139.8,111.6c5.9-7.1,10.2-14.8,13-23.7-.6-8.5-2.3-16.7-6.4-24.4-1.4,9.5-3.8,17.9-7.9,26.3,1.4,7.3,2,14.2,1.4,21.8ZM29.6,118.6c-.5-7.4,0-14,1-21-5.6-9.4-9.5-19-12.2-29.9-4.2,8.7-6.8,17.4-7.6,27,4.7,9.2,11,17.1,18.8,23.9ZM115.3,131.3c8.8-4.8,16.2-10.5,22.7-17.5.9-7.1.5-13.9-.8-21l-4.5,7.4c-4.9,7.2-10.2,13.9-16.5,19.8l-.9,11.3ZM32.2,132.2c-1.2-4.1-1.9-8.1-2.5-12.3-7.7-6.6-13.9-14.1-18.9-23.2-.7,6.8.5,13.4,2.4,20,5.4,6.1,11.3,11.6,19,15.6ZM87.5,138.6c10.1-4.8,19.1-10.6,27.2-18.4.3-7.5-.3-14.7-1.5-21.9l-5.3,9.8c-5.6,9.9-12.1,18.9-20.2,26.9l-.2,3.6ZM57.6,136.3l-.6-7.1c-10.1-8.5-18.5-18.3-25.5-29.7-1,7.2-1.3,13.9-.6,20.6,8.2,7,16.9,12,26.7,16.2ZM64.4,133.8c3.7,2.6,7.3,5,11.8,6.8-7.3-9-13-17.9-18-28-.3,6-.2,11.3.2,17l6,4.3ZM113,139.9c7.9-2.6,14.5-5.8,20.4-10.5,2.1-4.4,3.8-8.8,4.2-13.9-6.8,7-14.2,12.6-22.6,16.9l-2,7.5ZM58.5,141.3l-.7-4.4c-9.9-3.6-18.3-9.1-26.7-15.6.5,4.4,1.5,7.9,2.6,11.9,7.9,3.9,16,6.5,24.8,8.1ZM87.9,140.9c9.2-1.8,17.6-4.7,25.9-8.7l1-10.8c-8.5,7.2-16.7,13.2-26.4,17.5l-1,.8c-.2.2.3,1.1.5,1.2ZM86.4,135.3v-12.7c0,0-6,17.6-6,17.6,2.8-1.5,4.2-3.2,6-4.9ZM74,142.5c-2.3.4-4.6.5-7,.3l-7.1-.5.8,3.2,14.4-2.4c.5,0,1-1.7.6-1.9l-1.4-.7c-5.7-2.9-10.5-6.3-15.7-10.2l.6,6.6,15.9,4.8c-5.7-.5-10.7-2.3-16-4.2l.6,3.8,5,.5,9.4.6ZM95.9,142.7c5.4-.3,10.4-1.3,15.8-2.4l1.8-7.2c-8.7,4.2-16.8,7-26,8.4-.1.4,0,1.4.4,1.4h1.5c0,0,6.5-.2,6.5-.2ZM59.4,145.6l-.9-3.8c-8.6-1.1-16.4-3.7-24.3-7.5,1.1,2.8,2.5,5.8,4.5,8,4,1.5,8.1,2.5,12.3,2.8l8.3.5ZM86.5,141.9l-4.4.4-.3-.5,3.7-.5c.2,0,.6-.5.7-.7s-.5-.6-.6-.6l-3.4,1.3-.3-.3,4.5-2v-2.7s-3.6,3.1-3.6,3.1c-1,.8-2.3,1.7-1.5,3.5l4.4,1.7.2-1.3-3-.4c1.8-.4,2.2,0,3.6-1.1ZM100,147.5l8.4-.6,2.9-5.7c-4.2.7-7,1.7-10.6,2l-4.8.4h-8.4s-.2,1.7-.2,1.7l12.7,2.3ZM62.4,150.2c5.4-1.8,9.3-3.5,13.6-6.5-5.3,1.2-9.7,2.1-15.2,2.6l1.6,3.9ZM77.6,143.7c-4.9,3.1-9.2,5.5-14.8,7.1,0,1.4,1.6,3.2,3,3.8,4.2,1.9,9.5-6.1,11.8-10.9ZM86.1,145.5l-4.8-1.4,4.3,4,.6-2.6Z"/>
</svg>