<?xml version="1.0" encoding="UTF-8"?>
<svg id="Layer_1" xmlns="http://www.w3.org/2000/svg" version="1.1" viewBox="0 0 149.1 160.3">
  <!-- Generator: Adobe Illustrator 30.5.1, SVG Export Plug-In . SVG Version: 2.1.4 Build 3)  -->
  <defs>
    <style>
      .st0 {
        fill: #0c6d2f;
      }

      .st0, .st1 {
        stroke: #0c6d2f;
        stroke-miterlimit: 10;
      }

      .st1 {
        fill: #D9D9D9;
      }
    </style>
  </defs>
  <g>
    <path class="st1" d="M110.8,88.2c8.3,0,16.6,1.9,23.9,5.7,8.4,4.3,16,11.1,8.8,19.9-13.3,16.3-47.9,30-60.4,28.9-12.5-1.1-61.7-14.1-61.4-34.4s28.4-21.1,47.8-20.7c12.8.3,30.7.5,41.4.6Z"/>
    <path class="st0" d="M147.8,106.6s1.6,14.2.2,19.2c-1.4,5-6.5,11.2-24.6,20-18,8.8-20.2,12.7-35.7,13.9-15.6,1.2-30.6-5.7-38.7-10s-21.9-12.9-25.7-18.3c-2.2-3.1-3-22-3-22,0,0,2.7,9.4,13.5,14.8,10.8,5.4,35.4,18.5,52.1,17.7,16.7-.8,48.6-17.3,54.5-24.3,5.9-7,7.2-11,7.2-11Z"/>
    <path class="st0" d="M128,72.4s1.6,14.2.2,19.2c-1.4,5-6.5,11.2-24.6,20-18,8.8-20.2,12.7-35.7,13.9-15.6,1.2-30.6-5.7-38.7-10s-21.9-12.9-25.7-18.3c-2.2-3.1-3-22-3-22,0,0,2.7,9.4,13.5,14.8,10.8,5.4,35.4,18.5,52.1,17.7,16.7-.8,48.6-17.3,54.5-24.3,5.9-7,7.2-11,7.2-11Z"/>
    <path class="st1" d="M91,54c8.3,0,16.6,1.9,23.9,5.7,8.4,4.3,16,11.1,8.8,19.9-13.3,16.3-47.9,30-60.4,28.9-12.5-1.1-61.7-14.1-61.4-34.4.3-20.3,28.4-21.1,47.8-20.7,12.8.3,30.7.5,41.4.6Z"/>
    <path class="st0" d="M142.5,43.6s1.6,14.2.2,19.2c-1.4,5-6.5,11.2-24.6,20-18,8.8-20.2,12.7-35.7,13.9-15.6,1.2-30.6-5.7-38.7-10s-21.9-12.9-25.7-18.3c-2.2-3.1-3-22-3-22,0,0,2.7,9.4,13.5,14.8,10.8,5.4,35.4,18.5,52.1,17.7,16.7-.8,48.6-17.3,54.5-24.3,5.9-7,7.2-11,7.2-11Z"/>
    <path class="st1" d="M105.4,25.1c8.3,0,16.6,1.9,23.9,5.7s16,11.1,8.8,19.9c-13.3,16.3-47.9,30-60.4,28.9-12.5-1.1-61.7-14.1-61.4-34.4.3-20.3,28.4-21.1,47.8-20.7,12.8.3,30.7.5,41.4.6Z"/>
  </g>
  <path class="st1" d="M79.2,49.4c-4.8,0-7.7-5.1-5.3-9.2,5.5-9.4,15.6-24.6,25.6-30.6,9-5.4,16.7-7.9,21.3-9,2.2-.5,4.2,1.5,3.6,3.7-2.6,9.3-9.6,30-23.2,38.4-8.6,5.4-16.4,6.7-22.1,6.7Z"/>
</svg>