<?xml version="1.0" encoding="UTF-8"?>
<svg id="Layer_1" xmlns="http://www.w3.org/2000/svg" version="1.1" viewBox="0 0 138.4 137.1">
  <!-- Generator: Adobe Illustrator 30.5.1, SVG Export Plug-In . SVG Version: 2.1.4 Build 3)  -->
  <defs>
    <style>
      .st0 {
        fill: #0c6d2f;
      }
    </style>
  </defs>
  <path class="st0" d="M78.6,134.4c-6.1,3.3-13.4,3.7-19.4.3l-48.2-27.9C2.8,102.1-1.1,93.5.3,84.2c.5-3.6.7-7,0-10.6-1.3-8.1,2.1-12.3.3-19.3-2.2-9.1,1-17.9,8.6-23.5L57.1,2.9c6.1-3.6,15.6-3.8,21-.6l49.3,28.7c8.8,5.1,12.8,15.3,10.1,25-1.8,6.5,2,10.7.4,19-.6,3.3-.7,6.5,0,9.8,1.6,9.3-2.3,18.7-10.8,23.3l-48.6,26.5ZM80.8,24.3l46.8,27.3,4.9,3.5c.5.4,2.1.4,2.7.1,2.8-1.5,3.5-16.1-8.8-23.2L78.2,4c-6.2-3.6-13.7-3.6-19.9,0L11.6,31.1C.2,37.7,0,52.1,3.1,54c.5.3,2.2.4,2.7,0l4.5-3.3,47-27.3c7.6-4.4,15.9-3.5,23.5.9ZM55.5,43c8.3-4.8,16.9-4.9,25-.1l39,22.8c2.8,1.6,5.7,2,8.5.5,1.9-1,4.5-3.1,4.5-6.1s-1.8-4.9-4.1-6.2l-50.4-29.4c-6.2-3.6-13.7-3.5-19.9.1L11.1,51.9l-2.9,2.3c-1.5,1.2-2.5,3.2-2.3,5.1s1.3,3.4,2.7,4.5c2.6,2.1,6,3,9.2,1.2l37.7-22ZM79,93.3l39.3-21.4c.8-.4,1.5-2,1.4-2.7s-.8-2.1-1.6-2.6l-41.1-23.9c-6.4-2.8-12.9-2.8-19,.8l-37.9,22c-.9.5-1.7,2-1.7,2.7s.8,2.2,1.7,2.8l37.9,22.1c6.7,3.9,14,4.1,21,.2ZM9.4,68c-.1-2.6-3.9-5.6-6.3-4.1-2.4,1.6-2.2,9,.3,9.5,2,.4,6.1-2.7,5.9-5.4ZM135.9,73.8c1.5-2.3,1.3-6.7-.5-8.6-1.9-2.1-7.2,2-6.6,4.8s5.4,6.6,7.1,3.8ZM127.2,87.5c3-1.6,5.3-4,5.8-7.1.5-3.3-2.2-6-4.4-7.4-2.7-1.7-5.9-1.8-8.9-.2l-39.4,21.5c-7.4,4-15.4,4.4-22.8.1l-39.4-22.9c-3.3-1.9-6.7-1.1-9.5,1-2.6,2-4.4,5.3-2.8,8.4s3.8,4.5,6.5,6.1l45.8,26.6c6.7,3.9,14.1,3.9,20.9.2l48.2-26.3ZM132.3,85.5l-8,5.3-44.5,24.3c-7.2,4-15.4,4-22.6-.2l-44.9-26.1-6.5-4.7c-.6-.5-2.5-.8-3.1-.2-3.1,2.6-1.2,15.7,8.8,21.6l46.7,27.2c6.7,3.9,14.3,3.6,21,0l47.2-25.8c11.3-6.2,12.1-21,8.5-21.9s-1.8.3-2.5.7Z"/>
  <path class="st0" d="M65.5,55.8c7.8-2.2,15.2,2.6,17.2,9.9,2.1,7.4-2.5,15.2-9.9,17.2-7.3,2-14.8-2.3-17-9.5-2.2-7.3,1.8-15.3,9.7-17.5Z"/>
</svg>