<?xml version="1.0" encoding="UTF-8"?>
<svg id="Layer_1" xmlns="http://www.w3.org/2000/svg" version="1.1" viewBox="0 0 132.8 152.5">
  <!-- Generator: Adobe Illustrator 30.5.1, SVG Export Plug-In . SVG Version: 2.1.4 Build 3)  -->
  <defs>
    <style>
      .st0 {
        fill: #0c6d2f;
      }
    </style>
  </defs>
  <path class="st0" d="M71.5,151.4c-1.3.4-2.8,1.4-4,1s-.5-2.9-1.9-3.7-3,3.8-6.9,1.4l-5.6-3.6-30-15.6c-1-.5-1.8-1.4-2.2-2.5L.8,71c-.3-1-1.5-2.9-.3-3.7l9.5-6.2c2-1.3,3.1-3.9,2.7-6.2l-1.7-8.5c-.3-1.3.3-2.5,1.2-3.4l9-8.3c1.9-1.7,3.7-4.2,6.2-5.2l15.4-6.1c.7-.3,2-.6,2.7-.4s1.1,1.2,1.5,1.9l3.3,6.7c.3.6,1.4,1.3,2,1.3s1.9-.7,2.3-1.3l5.8-11.6c.8-1.6.6-3.8-.4-5.3l-5.9-8.8c-.6-.8-1.9-2.3-.7-3.3l3.1-2.5c.3-.3,1.5-.4,1.9-.3s.9.7,1.3,1.3l5.9,10.2c1.5,2.5,1.8,4.5,1.7,7.4l-.2,9.9.4,8.8c0,1.3-.7,2.3-2,2.5l-6.1,1.2c-1.7.3-2.7,2.4-2,4,.6,1.3,1.3,2.9,2.1,3.9,1.3,1.8,3.5,1.5,5.1.4l25.7-16.7c5.3-3.5,4.1-7.6,5.7-8.5s2.2.7,3.2,1.3l22,13.2c.6.3,1.6,1.5,1.8,2.1l9.2,29.4c.6,2,.8,3.9.6,6l-2.8,29c0,.9-.5,2.2-1,2.9l-22.5,32.2c-.7,1.1-2,1.5-3.1,1.9l-31.8,9ZM57.4,40.4c4.3.2,8.9-1.2,8.9-5.4v-16.5c0-2.2-.7-4.4-1.8-6.3l-4.9-8.2c-.5-.9-2.3-1.8-3.1-1.4-1.6.8-1.6,2.8-.8,4.1l5.7,8.5c1.1,1.6,1.5,3.3,0,4.9l-6.1,12.3c-.7,1.4-1.1,3.1-1.2,4.6s1,3.4,3.1,3.5ZM32.5,67.5l11.8-2.3c5.8-1.1,6.5-7.1,11.4-9.7,1.9-1,3.5-3.4,2.5-5.6l-1.8-3.8c-1.8-3.8-5.6-2.2-6.8-3-1.4-1,2.6-4.9.5-9.1l-3.6-7.2c-.8-1.6-3.1-2.2-4.7-1.6l-12.8,4.9c-2.6,1-4.6,3.3-6.6,5.2l-8,7.4c-1.3,1.2-2.4,3.2-2.1,5l1.3,6.8c.2,1.3,2,2.8,3.5,2.1,5.2-2.5,8.3-6.5,10-5.5s.6,1,.6,1.4l.9,10.8c.2,2,1.5,5,3.9,4.5ZM87,140.1c-.4,2.2-.7,3.4-1.6,5.2,1.1,0,3.1.2,4.1,0l12.4-3.5c1.6-.5,3.5-1.6,4.6-3.1l20.2-28.8c1.5-2.1,2.4-4.1,2.6-6.7l2.5-26.4c.2-1.8.1-3.6-.4-5.3l-9-28.5c-.5-1.7-2.4-3.3-3.9-4.2l-18.2-10.9c-1.1-.7-3.3-1.1-3.8.6s1.3,3.6,2.6,4.4l11.4,7.1c.9.6,2.2,1.5,2,2.7l-.9,9.1c0,.9-.7,1.8-1.5,2.2l-18.3,8.1c-1.8.8-3.7,2.6-4,4.4s1.6,3.6,3.1,4.4l6.1,3.1c2.1,1.1,2,2.1,1.6,4.2l-11.6,61.9ZM108.2,53.4c2.5-1.1,2.6-4.4,2.9-6.4.5-3.1-.3-5.6-2.9-7.2l-10.3-6.2c-1.6-1-3.6,1.2-3.9,2.8l-4.9,21.6c-.1.6.4,1.9.8,2.3s1.8.6,2.3.4l16-7.2ZM43.7,75.1c-.2.4.5,1.9.9,1.8,2.6-.6,2.8-3,4.3-3.6l23.3-10c4.1-1.7,5.4,1.5,9.7,1.1,2.7-.2,5.1-2.6,5.7-5.4l5-21.8c.2-.8-.6-2.2-1.2-2.4s-1.7,0-2.4.4l-24,15.5c-1.7,1.1-3.1,2.9-2.4,5.1.9,2.9,3.1,4.4,2.6,6-.1.4-1,1-1.5,1.1l-10.5,1.9c-2.9.5-5.2,2.4-6.6,5l-3,5.3ZM23.5,69.5c2.9-.5,4.7-2.6,4.4-5.3l-.9-7.8c-.2-1.7-2.2-3.2-3.7-2.3l-5.1,3.2c-4.4,2.8-2.7,11.2.1,12.4,1.4.6,3.5.1,5.2-.2ZM61.2,61.8c2.2-1,1.7-3.8.5-5.1s-3.4-1.6-5.2-.4c-2.6,1.7-5.2,4.3-4,6.1s6.3.6,8.8-.6ZM39.2,89.7c1.3-2.3.5-4.7-1.5-5.9l-7.2-4.3c-1.2-.7-1.4-2.9-1.4-4.3,0-2.4-1.2-5.5-3.9-5l-7.3,1.4c-1.3.2-2.2-.5-2.4-1.6l-.9-5.6c-.3-1.6-2.4-3.3-3.9-2.3l-7,4.5c-2,1.3-2.2,3.4-1.4,5.6l18.8,53.8c.9,2.7,2.7,4.2,5.1,5.4l26,13.3c.6.3,2,.2,2.4-.3s.4-1.9,0-2.5l-21.3-36.5c-1.1-2-1.2-3.1,0-5.1l5.9-10.7ZM50.7,79l24.5-10.9c.7-.3,1.3-1.1,1.5-1.6s-.2-1.8-.7-2c-1-.5-3-.4-4.2.1l-20.4,8.7c-3.1,1.3-4.5,4.2-3.1,5.5s1.7.5,2.4.2ZM43.1,81.7c.7-2.4-3-3.5-1.6-5.9l3.8-6c.3-.5.1-1.9-.3-2.3s-1.6-.9-2.1-.8l-9.7,1.9c-2.5.5-3.8,3.1-3.4,5.5s.7,4.1,2.2,5l6.7,4.1c1.3.8,3.7.4,4.3-1.5ZM65,102.3l-2.3,41.1c0,1.5,1.3,3.2,2.7,2.9s3.1-2,3.6-3.8l15.8-69.9c.3-1.2-.5-2.8-1-3.5-1.7-2.4-6.3-.7-9.7.8l-26,11.6c-1,.5-2.9.5-3.4,1.5-1.1,1.9.3,3.9,1.9,4.8l18,10.7c1,.6.6,2.6.5,3.8ZM86.1,139.5l11.3-60.4c.4-2.2-1-4.2-2.7-5.1l-4.8-2.5c-1.8-.9-3.9.3-4.4,2.3l-15.3,68c-.2.8.3,2.1.7,2.5s1.6,1,2.3.9l9.8-2.1c1.3-.3,2.8-1.9,3.1-3.6ZM59.7,146c.9.3,2-1.4,2.1-2.3l2.3-40.1c.1-2.2-.5-4.5-2.5-5.6l-15.6-9.3c-1.7-1-4.3-.9-5.4,1.1l-5.8,10.6c-.8,1.4-.9,3.5,0,5l21.9,37.7c.7,1.2,1.8,2.4,3.1,2.9ZM71.6,150.3c4.3-1.4,8.3-2.3,12.5-4.7-3-.7-5.8,0-8.8.4-4.9.7-6.2,2.9-5.4,3.4l1.6.9Z"/>
</svg>