<?xml version="1.0" encoding="UTF-8"?>
<svg id="Layer_1" xmlns="http://www.w3.org/2000/svg" version="1.1" viewBox="0 0 123.4 158.6">
  <!-- Generator: Adobe Illustrator 30.5.1, SVG Export Plug-In . SVG Version: 2.1.4 Build 3)  -->
  <defs>
    <style>
      .st0 {
        fill: #0c6d2f;
        stroke: #0c6d2f;
        stroke-miterlimit: 10;
      }
    </style>
  </defs>
  <path class="st0" d="M86.5,84.9c0-1.7-1.1-2.9-2.4-3.5s-3.4-.4-4.4,1.1-1.7,3.8-1.8,6l-1.7-2c-1.1-1.3-3.2-2.4-5.1-2.1-2.7.4-4.4,2.9-4.4,5.5v4.9s0,6.5,0,6.5l.2,6.2c.1,4.6.6,9,1.3,13.6-.9-1.9-.7-3.8-1.2-5.7s-1.4-6-2.8-6c-1.4,0-2.5,3.9-2.8,5.9l-.8,4.8h-.3c0,0,.5-4.1.5-4.1l.8-14.8v-6.7c0,0,0-4.9,0-4.9,0-2.4-1.8-4.2-4.1-5l4.4-.8c1.5-.3,3-.2,4.5,0l4.2.5c.7,0,1.6-.7,2.2-1.1,3.9-2.3,7.1-2,7.9-2.6l4.5-3.7,4.2-2.3,1.4-1.2c3.3-3.1,5.8-6.7,8-10.5s2.3-5.8,2.7-9c.4-3.2.9-6.2,1.7-9.3.4-1.5.3-3.2,0-4.8l-2.2-10.1-2-6.7-1.4-3.3c-1.8-3.3-4.3-6.1-7-8.7-1.4-1.4-2.8-1.6-2.7-2.2s1.6-.8,2.5-.4c.3.9.7,1.9,1.3,2.5l2,2.2,5.3,7.3c3.4,4.6,6.9,9.9,8.4,15.5l3.1,11,.7,2.3h-.4s-1.2-2.8-1.2-2.8c-.7-1.7-2.3-3.6-3.4-2.9-.3.2-.6.8-.6,1.2l.8,5.9v12c0,0,.1,2.7.1,2.7-.2-2-.4-3.9-1.2-5.8-.5-1.1-1.9-1.7-3-1-.9.6-1.7,1.6-2.2,2.6-2.1,4.3-4.5,8.2-7.9,11.7-1.2,1.2-2.5,2.3-3.3,3.8s-2.2,6.9-2.2,9v3.4c-.1,0-.3,5.8-.3,5.8l.2,12.4-.2,5.3c0,1.5.7,3,1.1,4.4l1.8,7.3.3,1-1.6-1.8c-.8-.9-2.2-1.2-3.3-.3-.7.6-1.1,1.5-1.7,2.4v-2.7s.3-7.5.3-7.5c0-1.1,0-2.2-.4-3.3-.8-2.4-1.3-4.7-1.7-7.2l-1.1-6c1.1,1.4,1.6,3.1,3.3,3.4,2.4-.2,2.9-5.3,2.9-8.2v-8.8Z"/>
  <path class="st0" d="M43.4,96.5c-.3-3.1-.3-5.8,0-8.8.4-3.3-.4-6.8-2.7-9.2l-1.4-1.2-4.3-3.7c-2.7-2.6-4.9-5.6-6.9-8.9s-1.3-2.1-2.2-2.8c-1.2-.9-2.7-.6-3.4.7s-1,2.8-1.1,4.3l-.2,2.6-.2,3.6-.2,4.9v13.6s.1,5.1.1,5.1h-.2c0,0-.1-4.4-.1-4.4v-14.9s.1-2.7.1-2.7v-3.1c.1,0,.3-3.1.3-3.1v-2.3c.1,0,0-7.7,0-7.7,0-3,.3-5.7,1-8.5,1.1-4.3-.9-8.5-3-7.4-.3.2-1,.6-1.3.9l-1.7,2.5,2.1-7.4c1.3-4.5,3.1-8.6,6-12.3l2-3c1.7-3.3,3.4-6.5,5.9-9.3l2.6-2.9c3.3-3.2,6.9-5.9,11.1-7.9.4-.2,1-.4,1.4-.3l-3.9,2.2-3.8,2.6c-5.1,4-9.1,8.8-12.1,14.5-1,1.8-1.3,3.9-1.7,5.9l-2.1,10.7-.8,5.3c-.3,1.9.1,3.6.9,5.3,1.4,2.9,2.1,5.9,2.7,9.1s1.4,4.6,2.7,6.7c2.9,4.6,7.1,9.4,11.7,12.4s1.5.7,2.3,1l4.7,2c2.3,1,4.4,2,6.6,3.5h-.1c-1.8.2-3.7.6-4.9,2.2s-.8,2-1,3c-.4,2.5-.9,4.8-1.7,7.2s-.7,2.2-.5,3.4c.7,5.9-.3,10.8.4,15.5l.8,5.7h-.3s-1-6.6-1-6.6c-.4-2.4-1.9-4.9-3.7-3.8-1.2.7-1.9,2-2.7,3.2,0-.4.2-.9.3-1.4l1.3-6.4c.4-2.1.9-4,1.6-6,.4-1.1.7-2.3.5-3.6Z"/>
  <path class="st0" d="M4.2,146.9c1.5,2.8,4.1,5.8,7.2,5.9,1.3,0,2.5,0,3.7-.5,1.8-.8,3.3-1.8,4.6-3.2l2.1-2.1c1.8-1.8,3.9-6.7,3.8-8.8l-.2-7.3.8,1c1,1.5,2.9,1.9,4.4.7s2-2.7,2.8-4.2c0,1-.8,1.8-1.1,2.7l-1.5,4.4c-.5,1.5-1.1,3-1.1,4.6s.2,4.6,1,6.6c1,2.5,2.3,4.7,4,6.7,1.1,1.4,2.6,2.6,4.1,3.4,2.3,1.2,4.7.7,6.8-.6,2.9-1.9,4.8-4.5,5.5-7.9s.7-2.8.4-4.2l-1.1-7.5c0,0,.2-.5.2-.4l.3.4c.4.4.9,1.2,1.5,1.5.9.6,2.1.4,2.8-.4l1.6-1.7-.9,6.1c-.3,2.4-.4,4.5.3,6.8s1.4,3.9,3,5.3c3,2.8,6.3,4.1,9.9,1.7.8-.5,1.6-1,2.2-1.8,1.5-1.9,2.4-4.5,2-6.9l-1-6.6,1.7,1.4c.8.7,2.4.9,3.1.1l1.9-1.9-1.1,6.9c-.4,2.4.5,5.1,2,7.1.7,1,1.8,1.7,2.8,2.3,2,1.2,4.9,1.2,6.9,0,1.4-.9,2.7-1.9,3.6-3.1,1.2-1.6,2.5-3.1,3.1-5,.7-2,1.1-4.3.6-6.4s-1.5-5.1-2.8-7.4l-3.1-5.6-.3-.4c0-.1.2-.5.3-.5l.6,1.1.6,1.4c.8,1.7,1.7,3.5,2.8,4.9.9,1.1,2,1.7,3.2,1.5,1.2-.2,2.3-.8,2.9-2.2.1,0,.3,0,.4.2-.2,2.2-.5,4.3-.2,6.6.7,4.6,4.5,8.2,9,8.3,2.9,0,5.7-2.2,7.1-4.6l1.6-2.8c-.6,2.3-1.8,4.4-3.4,6s-4,2.4-5.3,2.1l-1-.2c-2.1-.4-3.9-1.6-5.6-2.8-1.7-1.3-4.1-1.5-5.8,0-.4.4-1.1,1-1.4,1.4l-3.8,5.8c-.3.4-.7.7-1,1-1.5,1.3-3.1,2.4-5.3,2.5-1.7.1-3.7-.5-5-1.6l-1.7-1.5-1.3-1.2c-2.1-1.5-4.5-1.2-6.3.4l-1.2,1-1.8,1.4c-1,.8-2.6,1.2-3.9,1.2-2.3,0-4-1.2-5.6-2.6-.4-.3-.7-.6-1-1l-1.9-2.3c-1.7-1.7-4.2-1.9-6-.4l-1.3,1.4c-1.1,1.2-2,2.5-3.4,3.5-3.3,2.6-7.8,1.8-10.6-1.3-2-2.2-3.6-4.7-4.9-7.4-.4-1-1-1.8-1.9-2.5-1.8-1.5-4.2-1.1-5.9.6l-4.1,4.2c-2,2-6.7,4.3-9.5,3.2-1.3-.5-2.6-1.1-3.4-2.3l-1.8-2.9c-.2-.3-.3-.9-.3-1.1Z"/>
  <path class="st0" d="M122.8,114.5v-3.6c-.1,0-.3-3.1-.3-3.1l-.2-3-2.3-18.7c.1,0,.3-.1.4,0v.6c0,0,2.2,17.7,2.2,17.7l.2,3.1.2,2.7v4.3Z"/>
  <path class="st0" d="M.6,120.8v-3.6c0,0,.3-3.4.3-3.4l.2-2.4.2-2.7,1.2-10.2.6-4.2v-.4c0,0,.3.2.4.2-1,6.1-1.8,12.1-2.3,18.3l-.2,2.7v3.3c-.1,0-.4,2.4-.4,2.4Z"/>
  <path class="st0" d="M107,70.8v-2.6s.1,0,.1,0v2.6s.2,0,.2,0v3.9s.2,0,.2,0v6.2c.1,0,.1,7.8.1,7.8l-.2,5.8-.2,3.4-.2,2.5-.2,2.9-.2,2.5-.2,2-.7,6.3-.8,5.8c-.3-.5-.2-.9-.2-1.3l1-7,.8-7.4.2-2.4.2-3.3v-2.9c.1,0,.3-2.2.3-2.2v-18.7s-.1,0-.1,0v-3.9s-.2,0-.2,0Z"/>
  <path class="st0" d="M115.6,64.4l-3.2-11.4c1.4,3.6,2.5,7.4,3.2,11.4Z"/>
  <path class="st0" d="M22.8,117.4l-.9-7.4-.2-2v-2.7s2,16,2,16c-.7-1.2-.7-2.6-.9-4Z"/>
  <path class="st0" d="M122.5,129.4c-.4,2.1-.2,4.1-1.1,6l1.3-11.1v-3.5c0,0,.2,0,.2,0v3.6s-.2,2.5-.2,2.5l-.2,2.4Z"/>
  <path class="st0" d="M72.1,139.5l-1.4-5.1c0,0-.1-.3,0-.4l.2-.2,1.7,5.6h-.4Z"/>
  <polygon class="st0" points="1.4 138 1 135 .8 132.4 .8 129 1 132.2 1.8 138 1.4 138"/>
  <path class="st0" d="M78.2,91.6l.2-.8v.8s.2,0,.2,0l1.3,4.6-.3.3-1.2-4.8c0,0-.1-.1,0-.2Z"/>
  <path class="st0" d="M49,2.1l-1.6.7c0,0-.3.2-.3.1s0-.2-.1-.4l3.7-1.5c-.1.9-1.2.7-1.8,1Z"/>
  <path class="st0" d="M50.4,135c-.6-.6-.7-1.4-.7-2.3.4.7.6,1.5.7,2.3Z"/>
  <polygon class="st0" points="21 99.8 21 97 21.1 96.9 21.2 99.7 21 99.8"/>
  <path class="st0" d="M115.8,65.9c-.2-.4-.3-1-.2-1.5.4.5.5.8.2,1.5Z"/>
  <polygon class="st0" points="21.2 102.5 21.2 100.4 21.3 100.3 21.4 102.4 21.2 102.5"/>
  <polygon class="st0" points="21.4 105.1 21.3 103.2 21.5 103.1 21.5 105 21.4 105.1"/>
  <polygon class="st0" points="106.8 67.8 106.8 65.8 107 65.7 107 67.7 106.8 67.8"/>
  <path class="st0" d="M80.5,137.1l-.3-.5c0-.1.3-.4.4-.4l-.2.9Z"/>
  <path class="st0" d="M80.3,137.5l-.2.9-.3-.7c0-.1.4-.2.5-.2Z"/>
  <path class="st0" d="M53.8.6l-1.1.2c.2-.4.7-.4,1.1-.2Z"/>
  <polygon class="st0" points=".6 127.9 .5 126.9 .7 126.8 .7 127.8 .6 127.9"/>
</svg>