<?xml version="1.0" encoding="UTF-8"?>
<svg id="Layer_1" xmlns="http://www.w3.org/2000/svg" version="1.1" viewBox="0 0 160.3 177.8">
  <!-- Generator: Adobe Illustrator 30.5.1, SVG Export Plug-In . SVG Version: 2.1.4 Build 3)  -->
  <defs>
    <style>
      .st0 {
        fill: none;
        stroke: #0c6d2f;
        stroke-miterlimit: 10;
        stroke-width: 2px;
      }
    </style>
  </defs>
  <polygon class="st0" points="117.8 158.6 104.4 158.6 104.4 145.2 117.9 145.1 117.8 158.6"/>
  <polygon class="st0" points="56.3 158.6 42.8 158.6 42.6 145.1 56 145.1 56.3 158.6"/>
  <polygon class="st0" points="35.4 140.3 22 140.2 21.8 126.9 35.3 127.1 35.4 140.3"/>
  <polygon class="st0" points="76.8 158.6 63.4 158.6 63 145.1 76.5 145.1 76.8 158.6"/>
  <polygon class="st0" points="14.5 104.1 1.1 104.2 1.1 91.1 14.4 90.9 14.5 104.1"/>
  <polygon class="st0" points="138.6 104 125 104.1 125 91 138.4 90.8 138.6 104"/>
  <polygon class="st0" points="76.8 122.2 63.2 122.2 63.3 109.1 76.6 108.8 76.8 122.2"/>
  <polygon class="st0" points="97.4 122.1 84 122.2 83.8 108.9 97 108.9 97.4 122.1"/>
  <polygon class="st0" points="35.3 158.6 21.9 158.7 21.8 145.2 35 145.1 35.3 158.6"/>
  <polygon class="st0" points="14.6 122.2 1.2 122.2 1 109.3 14.4 109.1 14.6 122.2"/>
  <polygon class="st0" points="14.6 67.7 1.1 68 1 54.9 14.3 54.8 14.6 67.7"/>
  <polygon class="st0" points="117.9 176.6 104.3 176.8 104.6 163.4 117.8 163.4 117.9 176.6"/>
  <polygon class="st0" points="138.4 49.8 125 49.8 125.1 36.6 138.2 36.6 138.4 49.8"/>
  <polygon class="st0" points="117.8 122.1 104.6 122.2 104.5 108.8 117.8 109.1 117.8 122.1"/>
  <polygon class="st0" points="14.3 86 1 86.1 1 72.8 14.4 72.9 14.3 86"/>
  <polygon class="st0" points="35.2 67.9 21.8 67.9 21.9 54.7 35 54.7 35.2 67.9"/>
  <polygon class="st0" points="35.3 49.9 21.8 49.8 21.8 36.8 34.9 36.8 35.3 49.9"/>
  <polygon class="st0" points="76.5 67.9 63.2 67.9 63.3 54.8 76.4 54.7 76.5 67.9"/>
  <polygon class="st0" points="97.1 67.9 83.9 67.9 83.9 54.8 97.1 54.8 97.1 67.9"/>
  <polygon class="st0" points="159 67.9 145.7 67.8 145.8 54.7 158.8 54.6 159 67.9"/>
  <polygon class="st0" points="35.1 86 21.7 86 22 72.8 34.9 72.9 35.1 86"/>
  <polygon class="st0" points="55.9 86.1 42.4 85.9 42.4 72.8 55.8 72.8 55.9 86.1"/>
  <polygon class="st0" points="76.5 86.1 63.2 86 63.3 72.8 76.4 72.8 76.5 86.1"/>
  <polygon class="st0" points="97.1 86 83.9 86 83.9 72.9 96.8 72.7 97.1 86"/>
  <polygon class="st0" points="76.8 104 63.3 104.2 63.2 91 76.6 90.9 76.8 104"/>
  <polygon class="st0" points="97.3 104.1 83.9 104.1 83.8 90.9 97.2 91 97.3 104.1"/>
  <polygon class="st0" points="117.9 14.1 104.6 14.1 104.6 1 117.8 1 117.9 14.1"/>
  <polygon class="st0" points="76.7 49.8 63.3 49.7 63.3 36.5 76.5 36.6 76.7 49.8"/>
  <polygon class="st0" points="117.9 140.2 104.5 140.1 104.5 127 117.8 126.9 117.9 140.2"/>
  <polygon class="st0" points="97.3 140.1 83.9 140.1 83.9 126.9 97.2 126.9 97.3 140.1"/>
  <polygon class="st0" points="76.8 140.3 63.3 140.1 63.3 126.9 76.6 126.9 76.8 140.3"/>
  <polygon class="st0" points="76.8 176.8 63.3 176.6 63.2 163.4 76.6 163.4 76.8 176.8"/>
  <polygon class="st0" points="56.2 176.8 42.6 176.6 42.7 163.4 55.8 163.4 56.2 176.8"/>
  <polygon class="st0" points="56.1 122.1 42.6 122.2 42.7 109.1 55.8 109 56.1 122.1"/>
  <polygon class="st0" points="56 49.9 42.4 49.8 42.5 36.8 55.7 36.8 56 49.9"/>
  <polygon class="st0" points="55.9 67.9 42.4 67.9 42.5 54.7 55.7 54.7 55.9 67.9"/>
  <polygon class="st0" points="97.4 31.7 83.9 31.9 83.9 18.7 97 18.7 97.4 31.7"/>
  <polygon class="st0" points="159.1 86 145.8 85.8 145.9 72.9 158.8 72.9 159.1 86"/>
  <polygon class="st0" points="97.4 158.5 83.9 158.4 84 145.1 96.9 145.2 97.4 158.5"/>
  <polygon class="st0" points="35.2 104 22 104.1 21.9 91 35 91 35.2 104"/>
  <polygon class="st0" points="159.2 104 146 104 145.8 91 159 91 159.2 104"/>
  <polygon class="st0" points="159.1 49.7 145.9 49.4 145.9 36.7 158.8 36.5 159.1 49.7"/>
  <polygon class="st0" points="56 140.1 42.7 140.1 42.7 127.3 55.7 127.3 56 140.1"/>
  <polygon class="st0" points="138.3 67.8 125.4 67.8 125.4 54.8 138 54.8 138.3 67.8"/>
  <polygon class="st0" points="138.2 176.6 125.7 176.6 125.1 163.6 138.3 163.3 138.2 176.6"/>
  <polygon class="st0" points="138.4 86.1 125.4 85.9 125.4 72.9 138.1 73 138.4 86.1"/>
  <polygon class="st0" points="138.4 158.3 125.4 158.5 125.2 145.3 138.2 145 138.4 158.3"/>
  <polygon class="st0" points="117.6 67.8 104.6 67.9 104.6 54.8 117.3 54.8 117.6 67.8"/>
  <polygon class="st0" points="117.6 49.6 104.6 49.7 104.6 36.6 117.3 36.6 117.6 49.6"/>
  <polygon class="st0" points="117.6 86 104.6 85.9 104.6 73 117.3 73 117.6 86"/>
  <polygon class="st0" points="55.9 103.8 42.7 103.7 42.7 91 55.7 91.1 55.9 103.8"/>
  <polygon class="st0" points="158.9 121.9 146.5 121.9 145.8 109.2 159 109.1 158.9 121.9"/>
  <polygon class="st0" points="117.6 103.5 104.7 104.1 104.6 91 117.3 91.2 117.6 103.5"/>
  <polygon class="st0" points="159.2 140.1 146.4 140 146.2 127.3 158.8 127.5 159.2 140.1"/>
  <polygon class="st0" points="138.7 140 125.1 140.1 125.7 127.5 137.8 127.4 138.7 140"/>
  <polygon class="st0" points="138.6 122.1 125.4 121.8 125.5 109.4 138.3 108.9 138.6 122.1"/>
  <polygon class="st0" points="14.5 140.1 1.5 140.1 1.3 127.2 14 127.5 14.5 140.1"/>
  <polygon class="st0" points="35.4 121.9 22.3 121.9 22.3 109.2 34.9 109.2 35.4 121.9"/>
</svg>